SplineFontDB: 3.0
FontName: Career
FullName: Career
FamilyName: Career
Weight: Medium

StartChar: .notdef
Encoding: 65536 -1 0
Width: 500
Flags: W
LayerCount: 2
Fore
SplineSet
50 0 m 1
 50 533 l 1
 450 533 l 1
 450 0 l 1
 50 0 l 1
100 50 m 1
 400 50 l 1
 400 483 l 1
 100 483 l 1
 100 50 l 1
EndSplineSet
EndChar

StartChar: exclam
Encoding: 33 33 2
Width: 282
GlyphClass: 2
Flags: HMW
VStem: 58.8271 0.5<645 645> 59.8271 162.189 68.1172 0.5<60 60> 212.864 0.5<56 56> 222.517 0.5<642 642>
LayerCount: 2
Fore
SplineSet
150.828 180.353 m 5
 115.21 245.669 105.149 315.722 92.4688 388.086 c 4
 77.4922 473.559 61.7559 560.092 59.8271 647.011 c 4
 58.6934 698.079 64.7344 770.957 124.172 786.944 c 4
 132.216 789.106 140.658 789.702 148.928 788.709 c 4
 217.163 780.514 224.099 696.913 222.017 643.02 c 4xc8
 218.464 551.015 200.184 459.621 184.351 369.086 c 4
 173.378 306.346 166.437 241.903 150.828 180.353 c 5
137.005 134.927 m 4
 178.213 137.383 214.477 97.0352 213.364 57.001 c 4
 212.624 30.3633 196.3 5.07129 173.57 -8.37012 c 4
 164.579 -13.6855 154.447 -17.0293 143.995 -17.6279 c 4
 102.121 -20.0254 66.3535 21.5625 68.1172 61.998 c 4
 69.2529 88.0322 85.249 112.289 107.419 125.514 c 4
 116.401 130.872 126.534 134.302 137.005 134.927 c 4
EndSplineSet
EndChar

StartChar: quotedbl
Encoding: 34 34 3
Width: 309
GlyphClass: 2
Flags: HMW
HStem: 533.75 240.455
VStem: 57.7021 73.7588 131.961 0.5<712 712> 179.189 74.3115 253.501 0.5<712 712>
LayerCount: 2
Fore
SplineSet
101.793 535.367 m 1
 71.5312 588.484 54.6865 653.963 57.7021 714.975 c 0
 57.9023 719.021 58.3818 723.714 59.2188 728.647 c 0
 62.9893 750.881 73.8799 777.419 98.5488 773.219 c 0
 124.734 768.762 130.811 735.076 131.461 712.984 c 0
 133.232 652.863 114.763 593.367 101.793 535.367 c 1
223.793 535.367 m 5
 236.764 593.373 255.206 652.861 253.501 712.984 c 4
 252.875 735.075 246.733 768.848 220.552 773.29 c 4
 195.844 777.483 184.95 750.923 181.193 728.665 c 4
 180.36 723.726 179.885 719.026 179.688 714.975 c 4
 176.742 653.935 193.514 588.517 223.793 535.367 c 5
EndSplineSet
EndChar

StartChar: numbersign
Encoding: 35 35 4
Width: 515
GlyphClass: 2
Flags: HMW
HStem: -2.57422 21G<116.762 116.762> 337.585 27.9893<333.598 338.409>
LayerCount: 2
Fore
SplineSet
380 599 m 1
 368.567 588.067 357.513 576.837 349.857 562.839 c 0
 335.385 536.375 332.694 504.241 327.494 475 c 0
 321.395 440.707 315.241 406.438 310 372 c 1
 216 390 l 1
 253 597 l 1
 200.237 545.346 197.424 464.516 187 395 c 1
 25 426 l 1
 37.2539 414.117 49.8643 402.94 65.0596 394.926 c 0
 100.537 376.215 142.927 372.732 182 367 c 1
 162 255 l 1
 25 280 l 1
 35.9404 268.494 47.1973 257.439 61.1465 249.599 c 0
 89.9053 233.436 124.93 230.613 157 226 c 1
 116 -4 l 1
 127.109 6.6543 137.812 17.6035 145.344 31.167 c 0
 160.179 57.8779 162.906 90.3867 168.077 120 c 0
 173.951 153.633 179.887 187.24 185 221 c 1
 280 202 l 1
 244 -1 l 1
 294.641 51.2676 298.302 128.208 309 197 c 1
 493 162 l 1
 481.488 173.901 469.594 185.118 454.893 193.011 c 0
 413.638 215.162 359.645 218.82 314 226 c 1
 334 337 l 1
 493 307 l 1
 481.421 318.846 469.456 329.962 454.889 338.072 c 0
 420.081 357.451 377.791 360.862 339 366 c 1
 353.732 443.137 370.55 521.027 380 599 c 1
210 361 m 1
 305 343 l 1
 285 231 l 1
 190 249 l 1
 210 361 l 1
EndSplineSet
EndChar

StartChar: dollar
Encoding: 36 36 5
Width: 612
GlyphClass: 2
Flags: HMW
HStem: -180.5 0.5<282 331 282 331.5> 206 0.5<62 63 62 62> 800 0.509766<280.5 281>
VStem: 56.4863 0.513672<-99 -99> 280.5 0.5<717.409 800 717 800.51> 281.5 0.5<-180 -110.402 -110.402 -110.402> 330.497 0.50293<-94 -94> 331 0.5<-180 -113.423 -180.5 -113 -180.5 -113> 332 0.5<798.986 799>
LayerCount: 2
Fore
SplineSet
282.106 -109.512 m 5
 253.187 -103.191 224.559 -95.8662 196.141 -87.5576 c 4
 171.913 -80.4717 146.723 -71.8037 120.952 -74.2666 c 4
 97.9639 -76.4658 77.3975 -87.5479 57.5137 -98.1592 c 5
 62.4922 205.5 l 5
 62.7119 205.5 l 5
 94.0215 151.527 116.046 92.2305 151.618 40.7158 c 4
 186.817 -10.2598 233.032 -49.9307 281.695 -87.3965 c 4
 281.963 -87.6025 282.231 -87.8096 282.5 -88.0156 c 6
 282.5 -87 l 6
 282.5 -27.333 282.361 32.334 282.5 91.999 c 4
 282.579 126.735 286.387 164.535 271.244 197.171 c 4
 253.34 235.767 214.483 255.862 180.265 277.158 c 4
 145.744 298.641 112.984 324.066 89.1172 357.316 c 4
 20.1699 453.376 58.8711 590.496 146.433 661.005 c 4
 185.525 692.485 232.586 706.747 281.099 716.51 c 6
 281.5 716.591 l 5
 281.5 799.49 l 5
 331.5 798.51 l 5
 330.809 775.557 327.431 748.645 339.96 728.115 c 4
 350.507 710.835 370.082 703.229 387.828 696.176 c 4
 413.521 685.965 441.922 673.187 470.134 681.912 c 4
 485.852 686.773 499.521 696.739 512.562 706.072 c 5
 530.383 444.705 l 5
 501.232 485.173 479.811 530.092 450.33 570.293 c 4
 417.355 615.262 376.402 652.701 332.276 686.397 c 6
 331.5 687.011 l 5
 331.5 686 l 6
 331.5 633.661 330.761 581.344 330.497 529.003 c 4
 330.341 498.091 327.595 464.684 341.537 435.835 c 4
 360.486 396.631 401.549 377.913 436.743 356.805 c 4
 473.453 334.785 507.719 307.52 532.997 272.691 c 4
 606.041 172.051 577.094 24.0215 483.039 -52.9834 c 4
 439.356 -88.748 385.204 -103.339 330.497 -112.577 c 5
 330.497 -179.5 l 5
 282.5 -179.5 l 5
 282.106 -109.512 l 5
278 700 m 1
 257.704 691.271 237.637 682.01 221.334 666.715 c 0
 211.629 657.61 203.497 646.854 197.552 634.941 c 0
 192.381 624.582 188.901 613.421 187.047 602 c 0
 175.433 530.432 225.751 475.808 281 439 c 1
 281.003 525.684 287.021 613.623 278 700 c 1
332.276 193.417 m 2
 331.5 193.93 l 1
 330.497 -94.7227 l 1
 331.176 -94.4678 l 2
 352.709 -86.3955 373.907 -77.627 391.705 -62.5186 c 0
 403.092 -52.8535 412.866 -41.2451 420.162 -28.1895 c 0
 426.613 -16.6484 431.052 -4.05176 433.584 8.9043 c 0
 449.238 88.9453 394.408 152.175 332.276 193.417 c 2
EndSplineSet
EndChar

StartChar: percent
Encoding: 37 37 6
Width: 589
GlyphClass: 2
Flags: HMW
HStem: 87.5 0.5<50 50>
LayerCount: 2
Fore
SplineSet
144.115 765.139 m 0
 189.932 769.376 229.939 734.964 250.667 696.744 c 0
 261.328 677.085 267.998 653.306 270.359 628.469 c 0
 277.611 552.21 244.283 466.323 161.953 458.51 c 0
 108.601 453.446 62.4316 491.47 43.1934 539.189 c 0
 20.9482 594.364 27.4746 664.108 62.5312 712.571 c 0
 81.7646 739.162 110.545 762.034 144.115 765.139 c 0
146.453 736.755 m 0
 125.205 731.836 116.549 706.436 112.339 688.102 c 0
 101.507 640.921 101.782 588.197 111.738 540.902 c 0
 116.046 520.442 128.329 483.586 156.617 489.052 c 0
 178.46 493.272 187.488 519.395 191.76 537.898 c 4
 202.714 585.362 202.152 638.591 191.785 686.101 c 0
 187.353 706.419 174.737 743.303 146.453 736.755 c 0
480.028 715.926 m 0
 494.161 721.672 509.013 721.692 524 721 c 1
 427.995 553.68 315.497 396.14 209.71 235 c 0
 189.759 204.61 170.657 173.526 149.393 144.025 c 0
 135.04 124.112 118.191 103.367 94.7715 94.0576 c 0
 81.0771 88.2969 66.2793 87.9971 51.8447 88.4717 c 1
 147.473 255.992 260.168 413.329 365.586 574.727 c 0
 385.894 605.816 405.117 637.789 427.134 667.665 c 0
 441.217 686.774 457.615 706.812 480.028 715.926 c 0
426.046 349.132 m 0
 471.87 353.369 511.934 318.956 532.683 280.744 c 0
 543.34 261.117 550.007 237.391 552.376 212.605 c 0
 559.668 136.318 526.267 50.3486 443.952 42.4961 c 0
 390.972 37.4385 344.941 74.8418 325.58 122.192 c 0
 302.949 177.538 309.242 247.855 344.517 296.571 c 0
 363.765 323.153 392.493 346.028 426.046 349.132 c 0
428.561 320.266 m 0
 407.678 315.432 399.039 290.34 394.826 271.989 c 0
 384.013 224.889 384.286 172.23 394.228 125.005 c 0
 398.556 104.442 410.797 68.1855 438.522 73.543 c 0
 459.984 77.6895 468.996 103.487 473.272 122.011 c 0
 484.208 169.393 483.648 222.556 473.297 269.994 c 0
 468.84 290.422 456.273 326.682 428.561 320.266 c 0
EndSplineSet
EndChar

StartChar: ampersand
Encoding: 38 38 7
Width: 860
GlyphClass: 2
Flags: HMW
HStem: 466.636 0.5<709 709>
LayerCount: 2
Fore
SplineSet
205.273 355.419 m 2
 204.78 355.741 l 1
 204.542 355.201 l 2
 170.896 278.714 142.915 195.872 172.01 112.835 c 0
 179.486 91.4932 190.461 71.4434 204.846 53.957 c 0
 216.281 40.0518 229.73 27.7871 244.769 17.8672 c 0
 347.208 -49.7119 479.054 9.55273 552.373 91.667 c 0
 552.499 91.8076 552.625 91.9492 552.75 92.0898 c 1
 552.595 92.1963 552.439 92.3037 552.284 92.4111 c 0
 483.548 139.895 414.623 187.392 349.312 239.514 c 0
 301.216 277.897 256.99 321.609 205.273 355.419 c 2
340.868 774.122 m 0
 327.249 772.139 314.387 766.933 302.941 759.354 c 0
 227.586 709.448 249.353 607.509 287.922 541.755 c 0
 306.156 510.669 336.835 471.057 378.057 476.862 c 0
 415.469 482.131 441.223 519.36 453.698 551.821 c 0
 472.359 600.383 473.239 660.775 450.444 708.193 c 0
 430.65 749.366 388.241 781.022 340.868 774.122 c 0
883.116 62.9717 m 1
 835.118 27.7109 780.397 -24.667 716.121 -8.59277 c 0
 686.682 -1.22852 661.224 16.4414 635.252 31.6299 c 0
 616.784 42.4297 596.243 53.333 573.95 51.1035 c 0
 549.206 48.6318 528.004 32.3105 507.736 19.7207 c 0
 483.819 4.86719 458.757 -7.67285 431.851 -16.0752 c 0
 407.862 -23.5684 383.01 -28.0605 357.961 -30.0098 c 0
 238.736 -39.2861 84.7441 4.12402 42.2871 129.161 c 0
 20.6445 192.896 42.9883 259.171 87.6836 307.247 c 0
 111.368 332.725 153.903 357.024 159.16 394.939 c 0
 161.816 414.093 152.729 432.438 145.19 449.205 c 0
 136.012 469.622 127.432 490.189 122.716 512.105 c 0
 101.978 608.475 149.033 712.486 232.268 764.14 c 0
 296.618 804.076 385.8 811.926 452.744 773.755 c 0
 464.869 766.842 475.833 758.593 485.566 749.299 c 0
 550.381 687.414 560.612 579.233 495.304 510.863 c 0
 460.718 474.658 413.847 458.998 366.861 445.48 c 2
 366.025 445.24 l 1
 366.654 444.639 l 2
 449.62 365.347 540.317 294.486 632.704 226.597 c 0
 632.901 226.452 633.1 226.307 633.297 226.161 c 1
 633.359 226.398 633.422 226.636 633.483 226.873 c 0
 648.013 282.308 676.825 356.59 645.353 411.209 c 0
 629.445 438.811 602.594 458.541 578.662 478.275 c 1
 622.055 472.503 665.24 466.103 709 466.136 c 0
 753.329 466.17 797.66 472.707 841.28 478.275 c 1
 806.599 450.903 769.115 426.382 740.502 392.164 c 0
 717.535 364.698 702.703 332.241 689.857 299.181 c 0
 678.029 268.747 664.602 234.182 682.228 202.912 c 0
 696.281 177.978 721.619 160.585 744.723 145.041 c 0
 789.328 115.031 838.037 91.8008 883.116 62.9717 c 1
EndSplineSet
EndChar

StartChar: quotesingle
Encoding: 39 39 8
Width: 189
GlyphClass: 2
Flags: HMW
HStem: 533.75 240.455
VStem: 57.7021 73.7588 131.961 0.5<712 712>
LayerCount: 2
Fore
SplineSet
101.793 535.367 m 5
 71.5312 588.484 54.6865 653.963 57.7021 714.975 c 4
 57.9023 719.021 58.3818 723.714 59.2188 728.647 c 4
 62.9893 750.881 73.8799 777.419 98.5488 773.219 c 4
 124.734 768.762 130.811 735.076 131.461 712.984 c 4
 133.232 652.863 114.763 593.367 101.793 535.367 c 5
EndSplineSet
EndChar

StartChar: parenleft
Encoding: 40 40 9
Width: 318
GlyphClass: 2
Flags: HMW
HStem: 781.154 20G<302.682 302.682>
VStem: 186.077 0.5<244 244>
LayerCount: 2
Fore
SplineSet
299.318 -134.82 m 5
 270.617 -123.756 243.373 -110.574 218.295 -92.6387 c 4
 157.169 -48.9219 113.643 14.4238 84.8906 83.1934 c 4
 39.6406 191.426 26.6768 313.121 43.5771 428.928 c 4
 49.0713 466.571 57.7656 503.738 69.7598 539.843 c 4
 98.4277 626.137 147.141 708.439 223.284 760.676 c 4
 246.913 776.887 272.753 788.92 299.31 798.839 c 5
 269.828 765.47 238.115 733.438 220.111 692.2 c 4
 195.658 636.196 193.222 573.027 189.951 513.027 c 4
 185.066 423.437 182.951 333.695 185.577 243.985 c 4
 188.047 159.629 185.559 69.6562 213.899 -11.165 c 4
 230.983 -59.8857 266.445 -96.8555 299.318 -134.82 c 5
EndSplineSet
EndChar

StartChar: parenright
Encoding: 41 41 10
Width: 318
GlyphClass: 2
Flags: HMW
HStem: 781.138 20G<36.3516 36.3516>
VStem: 151.85 0.5<421 421>
LayerCount: 2
Fore
SplineSet
38 800 m 1
 70.6016 762.416 106.361 725.864 123.187 678 c 0
 135.243 643.702 139.602 606.989 143.265 571 c 0
 148.306 521.472 150.867 471.751 152.35 422 c 0
 155.224 325.624 154.249 229.163 146.787 133 c 0
 142.546 78.3438 139.305 20.8428 116.933 -30 c 0
 98.957 -70.8535 67.0098 -102.881 38 -136 c 1
 67.7598 -124.554 96.0566 -110.966 121.993 -92.2324 c 0
 185.862 -46.0986 230.596 21.2832 258.97 94 c 0
 299.914 198.936 311.907 314.619 296.281 426 c 0
 291.049 463.288 282.637 500.18 271.023 536 c 0
 232.656 654.329 157.629 756.117 38 800 c 1
EndSplineSet
EndChar

StartChar: asterisk
Encoding: 42 42 11
Width: 405
GlyphClass: 2
Flags: HMW
HStem: 553.82 35.4111<107 107>
VStem: 82.71 0.5<571 571> 183.5 40<580.366 581.284 581.284 581.284> 224.5 0.5<560 561 560 561.605 559.713 561>
LayerCount: 2
Fore
SplineSet
193.487 592.11 m 6
 187.949 616.571 180.388 643.524 184.948 668.541 c 4
 186.627 677.752 192.124 692.262 203.477 690.891 c 4
 213.456 689.684 217.808 677.288 219.409 668.546 c 4
 223.585 645.746 219.04 621.104 217.501 598.033 c 6
 217.359 595.905 l 5
 218.432 597.748 l 6
 229.89 617.426 242.467 638.484 261.724 651.288 c 4
 268.277 655.644 281.302 661.97 287.023 653.837 c 4
 292.458 646.115 285.402 634.386 280.562 627.771 c 4
 266.184 608.132 244.318 594.912 223.74 582.428 c 6
 223.5 582.281 l 5
 223.5 580.366 l 5
 224.116 580.514 l 6
 248.011 586.246 274.007 593.457 298.57 589.401 c 4
 307.968 587.85 322.383 582.68 321.716 571.258 c 4
 321.09 560.542 307.748 555.688 298.569 554.068 c 4
 274.557 549.834 248.771 556.924 225.095 561.491 c 6
 224.5 561.605 l 5
 224.5 559.713 l 5
 224.747 559.568 l 6
 245.375 547.486 267.224 534.277 281.036 514.361 c 4
 285.611 507.765 292.68 494.674 285.088 488.188 c 4
 277.763 481.929 265.469 489.1 258.876 493.856 c 4
 238.988 508.205 225.835 530.456 213.43 551.256 c 6
 213.284 551.5 l 5
 211.374 551.5 l 5
 211.513 550.89 l 6
 216.845 527.303 224.009 501.562 220.095 477.408 c 4
 218.611 468.252 214.062 454.762 203.446 453.79 c 4
 192.45 452.784 186.93 466.45 185.161 475.514 c 4
 180.558 499.109 187.515 524.706 192.489 547.896 c 6
 192.618 548.5 l 5
 190.72 548.5 l 5
 190.573 548.262 l 6
 178.226 528.112 165.045 506.593 145.376 492.953 c 4
 138.781 488.379 126.331 481.595 119.497 488.44 c 4
 112.419 495.531 119.839 508.441 124.674 515.09 c 4
 139.036 534.84 161.259 547.726 182.246 559.564 c 6
 182.5 559.708 l 5
 182.5 561.604 l 5
 181.906 561.491 l 6
 157.843 556.887 131.827 549.844 107.399 553.82 c 4
 98.0693 555.339 84.0449 560.142 83.71 571.205 c 4
 83.3633 582.637 97.9375 587.729 107.395 589.231 c 4
 132.292 593.19 158.718 585.436 182.881 579.515 c 6
 183.5 579.362 l 5
 183.5 581.284 l 5
 183.256 581.43 l 6
 161.983 594.107 139.299 607.563 124.509 627.8 c 4
 119.577 634.547 111.899 647.518 118.737 654.945 c 4
 125.567 662.365 138.639 655.061 145.307 650.323 c 4
 165.707 635.826 179.094 613.051 191.568 591.747 c 6
 191.713 591.5 l 5
 193.626 591.5 l 5
 193.487 592.11 l 6
EndSplineSet
EndChar

StartChar: comma
Encoding: 44 44 13
Width: 301
GlyphClass: 2
Flags: HMW
HStem: -127.455 307.763
VStem: 42.5645 163.627
LayerCount: 2
Fore
SplineSet
44.2002 -125.901 m 5
 63.9883 -91.5674 100.419 -56.4824 96.2803 -13.9512 c 4
 90.8877 41.4658 33.0332 90.3086 68.332 146.267 c 4
 73.3799 154.269 79.8438 161.406 87.3467 167.17 c 4
 95.3184 173.293 103.672 177.244 112.106 179.337 c 4
 152.455 189.35 194.848 156.789 205.221 114.873 c 4
 210.854 92.1064 208.666 67.793 203.372 45.1133 c 4
 184.038 -37.71 118.302 -91.8691 44.2002 -125.901 c 5
EndSplineSet
EndChar

StartChar: period
Encoding: 46 46 15
Width: 301
GlyphClass: 2
Flags: HMW
HStem: -0.140625 153.525
VStem: 57.5801 144.328 202.408 0.5<75 75>
LayerCount: 2
Fore
SplineSet
126.055 152.389 m 4
 166.908 154.779 202.924 114.779 201.908 75.0137 c 4
 201.23 48.5371 184.943 23.373 162.328 10.0205 c 4
 153.395 4.74609 143.335 1.44629 132.968 0.857422 c 4
 91.2236 -1.51367 55.7686 39.5654 57.5801 79.9766 c 4
 58.7402 105.831 74.582 129.965 96.6621 143.095 c 4
 105.591 148.404 115.668 151.782 126.055 152.389 c 4
EndSplineSet
EndChar

StartChar: slash
Encoding: 47 47 16
Width: 295
GlyphClass: 2
Flags: HMW
VStem: 10.1758 274.312
LayerCount: 2
Fore
SplineSet
283.237 665.893 m 5
 268.652 601.607 247.046 538.841 227.14 476.151 c 4
 191.148 362.812 152.867 250.2 115.931 137.155 c 4
 105.162 104.202 94.5186 71.2051 84.0645 38.1504 c 4
 75.9434 12.4736 68.5508 -14.3486 52.6123 -36.332 c 4
 41.665 -51.4336 27.043 -62.7432 11.8252 -72.8535 c 5
 59.4199 104.306 121.356 277.463 178.023 451.846 c 4
 187.868 482.142 197.562 512.488 207.209 542.849 c 4
 217.018 573.72 224.98 607.318 245.271 633.1 c 4
 255.788 646.463 269.267 656.577 283.237 665.893 c 5
EndSplineSet
EndChar

StartChar: zero
Encoding: 48 48 17
Width: 688
GlyphClass: 2
Flags: HMW
VStem: 31.3105 196.714 228.524 0.5<423 423> 459.477 0.5<378 378>
LayerCount: 2
Fore
SplineSet
321.933 795.208 m 0
 446.856 805.991 554.213 715.303 607.75 608.775 c 0
 625.481 573.492 637.89 535.564 645.772 496.9 c 0
 651.612 468.268 655.018 439.153 656.518 409.975 c 0
 663.754 269.176 629.778 108.993 507.706 23.2812 c 0
 489.723 10.6562 470.241 0.146484 449.815 -7.94922 c 0
 424.28 -18.0703 397.317 -24.1562 369.958 -26.4775 c 0
 339.289 -29.0811 308.189 -27.209 278.106 -20.668 c 0
 254.928 -15.6279 232.375 -7.75879 211.227 2.99609 c 0
 66.751 76.4717 24.5957 254.368 31.3105 403.978 c 4
 32.6055 432.791 35.6318 461.567 41.0098 489.907 c 4
 48.3281 528.475 59.9287 566.301 76.7783 601.785 c 0
 122.285 697.632 211.842 785.705 321.933 795.208 c 0
338.468 770.553 m 0
 270.997 766.327 252.243 678.469 243.729 626.08 c 0
 232.808 558.889 229.635 490.935 228.024 423.012 c 0
 225.902 333.49 228.148 242.603 241.539 153.926 c 0
 248.105 110.437 257.065 63.6592 287.361 29.6191 c 0
 302.628 12.4639 324.043 -1.77539 348.026 -0.416016 c 0
 369.376 0.794922 387.92 13.998 401.523 29.5391 c 0
 429.155 61.1045 438.272 103.823 444.868 143.919 c 0
 457.568 221.12 460.443 299.904 460.477 378 c 0
 460.511 457.768 457.538 538.09 445.607 617.074 c 0
 439.162 659.739 430.465 705.65 401.181 739.362 c 0
 385.402 757.527 363.516 772.121 338.468 770.553 c 0
EndSplineSet
EndChar

StartChar: one
Encoding: 49 49 18
Width: 495
GlyphClass: 2
Flags: HMW
HStem: -1.64941 21G<74.3398 74.3398> 779.728 20G<342.5 342.5>
VStem: 60.5 0.5<698 699 698 699.362 698 699.362> 167.52 0.5<234 234> 168.5 0.5<444.167 500.665 444.164 500.666> 342 0.5<293 799 799 799>
LayerCount: 2
Fore
SplineSet
199.154 743.604 m 5
 61.0664 698.496 l 1
 101.709 693.613 142.617 683.569 159.824 642.072 c 0
 168.68 620.714 169.058 596.659 169.368 574.007 c 0
 169.77 544.672 169.5 515.326 169.5 486 c 0
 169.5 402.323 168.296 318.673 168.52 235.001 c 0
 168.645 188.482 175.875 137.011 161.038 91.8457 c 0
 147.347 50.166 110.805 25.1172 77.6621 -0.351562 c 1
 196.18 10.0469 313.577 10.4473 432.3 -0.342773 c 1
 405.548 19.8066 375.644 39.6895 358.611 69.833 c 0
 341.948 99.3232 341.739 134.22 341.547 166.997 c 0
 341.301 208.999 341.5 251.004 341.5 293 c 2
 341.5 798.272 l 1
 199.154 743.604 l 5
EndSplineSet
EndChar

StartChar: two
Encoding: 50 50 19
Width: 634
GlyphClass: 2
Flags: HMW
HStem: -15.5 0.5<54 397 54 397> 137 0.5
VStem: 581.256 0.5<577 577>
LayerCount: 2
Fore
SplineSet
51.125 534.603 m 5
 92.9307 647.227 168.561 762.891 293.108 790.575 c 4
 398.706 814.047 515.095 762.819 560.717 662.793 c 4
 572.982 635.899 579.507 606.482 580.756 576.979 c 4
 581.794 552.461 579.223 527.736 572.432 504.139 c 4
 535.258 374.96 394.475 323.233 287.758 264.099 c 4
 226.517 230.158 172.661 187.188 123.644 137.351 c 6
 122.807 136.5 l 5
 124 136.5 l 6
 203.999 136.5 284.006 136.888 363.997 136.453 c 4
 406.857 136.221 454.735 129.458 495.197 147.857 c 4
 529.781 163.586 552.399 195.605 575.244 224.254 c 5
 568.533 177.499 561.311 130.836 554.677 84.0703 c 4
 550.926 57.625 548.447 27.9248 529.405 7.68555 c 4
 498.659 -24.9941 437.891 -14.5 397 -14.5 c 6
 54.5459 -14.5 l 5
 57.6855 21.1182 62.2178 56.167 73.9912 89.835 c 4
 96.7588 154.94 142.154 208.871 191.385 256.002 c 4
 259.755 321.456 351.74 377.443 385.578 470.83 c 4
 389.173 480.749 391.718 491.112 393.234 501.669 c 4
 403.521 573.271 366.488 653.997 288.07 665.207 c 4
 272.731 667.4 257.047 666.585 241.901 663.525 c 4
 165.049 648.001 108.095 582.774 51.125 534.603 c 5
EndSplineSet
EndChar

StartChar: three
Encoding: 51 51 20
Width: 645
GlyphClass: 2
Flags: HMW
VStem: 484.648 0.5<463 463>
LayerCount: 2
Fore
SplineSet
122.764 635.919 m 5
 135.46 682.964 156.617 725.114 196.416 754.824 c 4
 200.345 757.757 204.396 760.535 208.559 763.16 c 4
 302.41 822.344 452.35 803.212 513.247 706.59 c 4
 545.305 655.726 545.46 593.135 521.021 539.206 c 4
 513.96 523.624 505.173 509 496.397 494.3 c 4
 491 485.26 483.832 474.677 484.148 463.44 c 4
 484.507 450.717 495.761 441.391 504.109 433.648 c 4
 519.595 419.288 534.575 404.706 547.1 387.673 c 4
 579.587 343.492 593.77 288.505 590.452 234.03 c 4
 588.664 204.67 582.146 175.592 571.491 148.182 c 4
 562.092 124 549.408 101.131 533.93 80.3105 c 4
 458.803 -20.748 331.032 -46.6025 213.113 -19.1416 c 4
 167.128 -8.43262 121.022 9.81738 85.9248 42.1445 c 4
 59.5391 66.4473 38.1221 99.9795 39.7852 136.978 c 4
 40.1182 144.372 41.4775 151.623 43.7129 158.586 c 4
 57.7246 202.213 106.119 234.402 151.809 219.657 c 4
 221.64 197.12 210.19 114.756 234.584 59.8154 c 4
 248.425 28.6396 279.215 -1.58105 316.056 2.67383 c 4
 358.149 7.53613 386.628 49.8535 398.296 86.8496 c 4
 422.583 163.855 413.058 261.484 362.46 326.18 c 4
 327.355 371.064 276.792 386.506 230.282 414.802 c 5
 276.32 426.234 321.63 441.468 349.432 482.876 c 4
 356.683 493.675 361.674 505.11 364.642 516.802 c 4
 381.041 581.41 335.706 653.788 269.123 670.631 c 4
 217.384 683.721 167.701 657.396 122.764 635.919 c 5
EndSplineSet
EndChar

StartChar: four
Encoding: 52 52 21
Width: 685
GlyphClass: 2
Flags: HMW
HStem: 148.524 0.5<144 144> 254 0.5<118.94 371.5 118.94 372 540.5 665 665 665> 779.205 20G
VStem: 279.5 0.5<-45 -44 -45 -43.7383> 371.5 0.5<254 254> 540 0.5<254.5 310.831> 540.053 0.5<595 595>
LayerCount: 2
Fore
SplineSet
507.915 799.205 m 5
 518.33 782.896 527.443 766.425 532.825 747.854 c 0
 547.055 698.762 539.857 645.51 539.553 595.003 c 0
 538.866 481.341 539.5 367.659 539.5 254 c 2
 539.5 253.5 l 1
 664.23 253.5 l 1
 647.593 215.946 630.593 168.501 588.777 154.098 c 0
 573.149 148.714 556.429 149.045 540.014 149.5 c 0
 539.846 149.505 539.677 149.509 539.508 149.514 c 2
 539.5 149.008 l 2
 538.771 102.71 535.496 52.9443 564.324 13.2207 c 0
 581.317 -10.1924 605.797 -27.1416 628.29 -44.3203 c 1
 511.651 -32.3408 397.183 -33.5361 280.185 -44.4805 c 1
 304.344 -27.7471 327.918 -12.0137 345.658 11.002 c 0
 376.435 50.9355 373.07 101.669 372.5 149.006 c 2
 372.494 149.5 l 1
 372 149.5 l 2
 296.334 149.5 220.665 149.252 145.002 149.524 c 0
 110.66 149.646 71.4121 150.018 49.9619 181.229 c 0
 20.626 223.916 62.0557 272.706 89.1982 304.675 c 2
 107.146 325.676 l 2
 115.337 335.291 123.449 344.97 131.523 354.681 c 0
 197.853 434.454 263.81 514.539 329.688 594.683 c 0
 387.245 664.702 444.144 734.984 507.915 799.205 c 5
368.495 560.068 m 2
 368.35 561.132 l 1
 367.629 560.335 l 2
 279.199 462.536 191.431 363.842 117.585 254.279 c 0
 117.41 254.02 117.235 253.76 117.06 253.5 c 2
 372.5 253.5 l 1
 372.5 254 l 2
 372.547 355.584 382.349 458.908 368.495 560.068 c 2
EndSplineSet
EndChar

StartChar: five
Encoding: 53 53 22
Width: 550
GlyphClass: 2
Flags: HMW
HStem: 604.22 0.5<361 361> 604.5 0.5<119.443 119.443> 757 0.5<241.503 253 241.503 253> 780.949 21G
VStem: 513 0.5<800 800>
LayerCount: 2
Fore
SplineSet
513 800 m 1
 491.386 785.381 469.355 771.263 444 764.113 c 0
 416.379 756.325 387.431 757.018 359 757.003 c 2
 253 757 l 2
 230.003 757 206.996 757.194 184 756.908 c 0
 167.505 756.703 149.772 756.487 135.044 748.076 c 0
 99.6543 727.865 101.361 671.3 96.5459 636 c 0
 82.5322 533.251 63.5811 431.338 47 329 c 1
 135.297 338.046 230.949 345.453 305.936 288.342 c 0
 384.501 228.505 438.225 101.526 365.949 16.5967 c 0
 356.255 5.20605 344.84 -4.94922 331.907 -12.5264 c 0
 285.16 -39.915 230.781 -17.1064 206.647 29.0693 c 0
 179.736 80.5566 194.114 151.885 136.748 185.396 c 0
 129.383 189.699 121.351 192.833 112.994 194.552 c 0
 102.802 196.649 92.2158 196.639 82.0039 194.676 c 0
 71.4824 192.653 61.4111 188.561 52.3516 182.856 c 0
 -5.64258 146.336 3.40332 71.4668 42.3457 24.4971 c 0
 96.7539 -41.126 189.391 -61.4277 271 -57.2041 c 0
 317.118 -54.8174 361.661 -41.5 399.997 -15.3516 c 0
 526.878 71.1904 578.636 275.696 489.465 405.992 c 0
 405.44 528.77 243.355 538.946 109 522 c 1
 119 605 l 1x78
 199.955 605 281.062 606.446 362 604.72 c 0
 397.726 603.958 441.942 596.17 471.03 622.27 c 0
 489.602 638.934 495.239 663.463 499.565 687 c 0
 506.421 724.295 512.535 762.016 513 800 c 1
EndSplineSet
EndChar

StartChar: six
Encoding: 54 54 23
Width: 646
GlyphClass: 2
Flags: HMW
VStem: 221.904 0.5<195 195> 442.072 0.5<201 201>
LayerCount: 2
Fore
SplineSet
257.09 471.508 m 2
 321.353 483.285 389.485 493.172 451.813 468.097 c 0
 464.361 463.049 476.229 456.905 487.377 449.813 c 0
 597.261 379.905 637.024 217.907 566 106.271 c 0
 505.251 10.7852 383.473 -34.4072 274.103 -11.4336 c 0
 99.4805 25.2461 5.6582 223.311 39.0293 388.901 c 0
 70.6055 545.59 196.75 665.205 334.229 736.06 c 0
 393.435 766.573 457.554 793.14 524.988 785.728 c 1
 497.402 774.547 471.167 761.594 446.715 744.576 c 0
 352.033 678.684 298.209 576.476 256.536 472.186 c 2
 256.2 471.345 l 1
 257.09 471.508 l 2
301.933 452.812 m 0
 254.79 445.219 235.081 397.634 228.129 356.082 c 0
 219.275 303.156 219.496 248.41 221.404 194.982 c 0
 222.745 157.428 224.42 118.312 238.34 82.8184 c 0
 254.688 41.1348 294.42 0.15625 343.072 7.32031 c 0
 387.208 13.8203 416.698 55.2598 429.351 94.8477 c 0
 440.275 129.033 442.145 165.439 443.072 200.987 c 0
 444.555 257.842 443.821 319.438 419.626 372.206 c 0
 399.462 416.189 354.803 461.326 301.933 452.812 c 0
EndSplineSet
EndChar

StartChar: seven
Encoding: 55 55 24
Width: 611
GlyphClass: 2
Flags: HMW
HStem: -1.5 0.5<177 381 177 381.458> 646.513 0.5<253 253> 647.513 150.987 799 0.5<213.314 579.513 236 579>
VStem: 579 0.5<799 799>
LayerCount: 2
Fore
SplineSet
16.8135 606.052 m 1
 26.3369 640.092 36.502 673.497 47.6699 706.841 c 0
 56.6602 733.69 67.2598 761.512 90.2969 779.293 c 0
 128.406 808.708 190.525 798.5 236 798.5 c 2
 578.487 798.5 l 1
 577.763 769.667 575.777 741.754 568.115 714.134 c 0
 556.84 673.491 536.344 635.885 519.696 597.197 c 0
 501.51 554.935 485.532 511.762 470.898 468.159 c 0
 419.758 315.783 394.71 158.905 380.542 -0.5 c 1
 177.566 -0.5 l 1
 208.528 246.662 350.311 449.173 491.407 646.709 c 2
 491.972 647.5 l 1
 491 647.5 l 2
 411.999 647.5 332.999 647.362 254.001 647.513 c 0
 200.778 647.615 145.224 654.761 92.874 641.182 c 0
 65.4912 634.076 40.9121 620.079 16.8135 606.052 c 1
EndSplineSet
EndChar

StartChar: eight
Encoding: 56 56 25
Width: 603
GlyphClass: 2
Flags: HMW
HStem: 776.587 20.3154
VStem: 429 0.5<448.289 448.289 448.289 449.716> 459.33 0.5<596 596>
LayerCount: 2
Fore
SplineSet
429 448 m 1
 429 450 l 1
 465.138 471.572 500.035 496.907 520.135 535.004 c 0
 559.261 609.163 528.732 701.987 464.812 751.442 c 0
 426.458 781.116 378.026 795.324 330 797.401 c 0
 284.958 799.349 239.454 791.602 199 771.175 c 0
 112.244 727.367 52.3066 630.015 61.4551 532 c 0
 64.1455 503.172 74.0195 476.301 87.7979 451 c 0
 99.4375 429.625 116.549 406.694 113.667 381 c 0
 111.286 359.768 96.4199 342.072 83.583 326 c 0
 66.2646 304.319 48.9004 282.558 37.5791 257 c 0
 -10.6504 148.12 59.5859 32.8154 163 -9.1543 c 0
 257.943 -47.6846 373.052 -39.1836 460 15.5469 c 0
 501.578 41.7188 537.771 78.7471 559.648 123 c 0
 596.527 197.6 588.699 291.163 538.855 357.965 c 0
 509.99 396.65 470.364 424.188 429 448 c 1
303.943 776.587 m 0
 316.64 778.026 329.562 777.414 342.096 774.982 c 0
 424.553 758.978 461.187 672.028 460.33 595.994 c 0
 459.841 552.517 447.278 487.37 394.033 480.504 c 0
 368.947 477.269 344.167 489.409 322.768 500.635 c 0
 272.039 527.245 215.768 565.183 199.753 623.868 c 0
 198.229 629.454 197.159 635.074 196.518 640.692 c 0
 189.17 705.071 238.068 769.118 303.943 776.587 c 0
185.292 344.395 m 0
 199.526 348.418 214.11 343.993 227.189 338.636 c 0
 249.312 329.576 270.393 317.647 291.242 306.113 c 0
 341.396 278.367 394.18 245.91 422.969 194.24 c 0
 427.973 185.261 431.79 175.963 434.492 166.51 c 0
 454.504 96.5107 413.388 18.0508 340.137 -2.80762 c 0
 259.474 -25.7773 177.928 30.6855 144.029 101.785 c 0
 128.09 135.215 122.668 172.282 124.066 209.02 c 0
 125.372 243.331 132.341 279.567 148.771 310.078 c 0
 156.683 324.772 168.357 339.61 185.292 344.395 c 0
EndSplineSet
EndChar

StartChar: nine
Encoding: 57 57 26
Width: 611
GlyphClass: 2
Flags: HMW
HStem: -12.5 0.5<97 97>
VStem: 191.123 0.5<566 566> 403.619 0.5<581 581>
LayerCount: 2
Fore
SplineSet
375.646 322.646 m 2
 376.401 323.303 376.354 323.354 376.354 323.354 c 2
285.942 770.876 m 0
 239.253 765.208 211.258 719.725 200.781 678.122 c 0
 191.615 641.724 190.958 603.27 190.623 566.005 c 4
 190.17 515.549 190.568 460.741 211.813 413.799 c 0
 230.701 372.063 273.04 333.182 322.056 339.091 c 0
 367.855 344.612 391.396 387.884 398.713 428.912 c 0
 407.644 478.987 406.431 531.441 404.619 582.018 c 0
 403.252 620.2 401.74 660.135 387.418 696.184 c 0
 371.447 736.38 332.983 776.588 285.942 770.876 c 0
375.354 324.354 m 1
 374.646 323.646 l 1
 374.817 323.475 l 1
 302.276 310.305 227.191 296.524 158.223 330.845 c 0
 150.951 334.464 143.976 338.459 137.304 342.799 c 0
 30.9434 411.965 1.37012 568.43 70.5176 674.726 c 0
 127.896 762.93 237.597 809.505 340.912 791.133 c 0
 465.808 768.923 561.56 656.818 587.228 535.896 c 0
 600.198 474.791 595.589 410.634 577.062 351.148 c 0
 533.515 211.325 417.292 106.26 289.773 41.3975 c 0
 230.666 11.333 167.057 -11.8809 100.224 -11.5215 c 1
 134.529 4.39648 167.687 21.3418 197.307 44.9268 c 0
 285.674 115.292 338.121 218.592 375.468 322.824 c 1
 375.646 322.646 l 1
 376.354 323.354 l 1
 375.354 324.354 l 1
375.354 324.354 m 1
 374.646 323.646 l 1
 374.817 323.475 l 1
 375.468 322.824 l 1
 375.646 322.646 l 1
 376.354 323.354 377.061 322.646 376.354 323.354 c 2
 375.354 324.354 l 1
EndSplineSet
EndChar

StartChar: colon
Encoding: 58 58 27
Width: 301
GlyphClass: 2
Flags: HMW
VStem: 57.5801 144.828 201.908 0.5<75 75 420 420> 202.408 0.5<75 75 420 420>
LayerCount: 2
Fore
SplineSet
126.062 497.39 m 0
 166.915 499.778 202.924 459.78 201.908 420.014 c 0x40
 201.23 393.537 184.943 368.373 162.328 355.021 c 0
 153.395 349.746 143.335 346.446 132.968 345.857 c 4
 91.2236 343.487 55.7686 384.564 57.5801 424.977 c 4x80
 58.7402 450.831 74.582 474.965 96.6621 488.095 c 0
 105.591 493.404 115.672 496.782 126.062 497.39 c 0
126.055 152.389 m 0
 166.908 154.779 202.924 114.779 201.908 75.0137 c 0x40
 201.23 48.5371 184.943 23.373 162.328 10.0205 c 0
 153.395 4.74609 143.335 1.44629 132.968 0.857422 c 0
 91.2236 -1.51367 55.7686 39.5654 57.5801 79.9766 c 0x80
 58.7402 105.831 74.582 129.965 96.6621 143.095 c 0
 105.591 148.404 115.668 151.782 126.055 152.389 c 0
EndSplineSet
EndChar

StartChar: semicolon
Encoding: 59 59 28
Width: 301
GlyphClass: 2
Flags: HMW
VStem: 57.5879 144.253 202.341 0.5<420 420>
LayerCount: 2
Fore
SplineSet
126.059 497.389 m 4
 166.923 499.78 202.885 459.782 201.841 420.014 c 4
 201.146 393.542 184.95 368.38 162.327 355.021 c 4
 153.394 349.745 143.335 346.446 132.968 345.857 c 4
 91.2344 343.486 55.752 384.564 57.5879 424.977 c 4
 58.7637 450.817 74.5908 474.969 96.6631 488.095 c 4
 105.592 493.405 115.67 496.782 126.059 497.389 c 4
44.2002 -125.901 m 1
 63.9883 -91.5674 100.419 -56.4824 96.2803 -13.9512 c 0
 90.8877 41.4658 33.0332 90.3086 68.332 146.267 c 0
 73.3799 154.269 79.8438 161.406 87.3467 167.17 c 0
 95.3184 173.293 103.672 177.244 112.106 179.337 c 0
 152.455 189.35 194.848 156.789 205.221 114.873 c 0
 210.854 92.1064 208.666 67.793 203.372 45.1133 c 0
 184.038 -37.71 118.302 -91.8691 44.2002 -125.901 c 1
EndSplineSet
EndChar

StartChar: less
Encoding: 60 60 29
Width: 297
GlyphClass: 2
Flags: HMW
HStem: -1.56738 21G<278.017 278.017>
VStem: 169.052 0.5<240 240>
LayerCount: 2
Fore
SplineSet
272 473 m 1
 221.702 422.703 171.44 372.369 121.071 322.143 c 0
 98.9062 300.04 67.4414 273.73 65.3379 240 c 0
 63.2188 206.038 93.5029 178.115 115.17 156 c 0
 167.59 102.495 220.907 49.668 277 0 c 1
 262.357 46.6377 241.112 89.5342 215.332 131 c 0
 194.909 163.85 167.297 199.212 169.052 240 c 0
 170.69 278.076 196.319 311.076 215.895 342 c 0
 241.757 382.854 264.331 424.746 272 473 c 1
EndSplineSet
EndChar

StartChar: greater
Encoding: 62 62 31
Width: 297
GlyphClass: 2
Flags: HMW
HStem: -1.56641 21G<18.9863 18.9863>
VStem: 127.512 0.5<236 236> 128.512 102.726<237 237> 231.737 0.5<237 237>
CounterMasks: 1 70
LayerCount: 2
Fore
SplineSet
21.0322 471.394 m 1
 75.4844 422.146 127.081 370.599 178.586 318.648 c 0
 200.315 296.73 230.999 270.237 231.237 236.996 c 0
 231.475 203.686 201.203 176.406 179.51 154.351 c 0
 128.09 102.069 75.6816 50.1074 21.0195 1.57227 c 1
 35.4736 47.1758 56.1064 89.1211 81.2627 129.736 c 0
 101.325 162.13 128.638 196.741 128.512 237.002 c 0
 128.386 277.254 100.956 311.861 80.8721 344.264 c 0
 55.9209 384.52 35.3066 426.527 21.0322 471.394 c 1
EndSplineSet
EndChar

StartChar: question
Encoding: 63 63 32
Width: 476
GlyphClass: 2
Flags: HMW
HStem: 229.5 0.5<160.984 161>
VStem: 71.0928 0.5<79 79> 129.454 31.0967<230.515 231.486> 215.89 0.5<75 75>
LayerCount: 2
Fore
SplineSet
140.033 152.429 m 0
 180.897 154.859 217.003 114.785 215.89 75.0146 c 0
 215.149 48.5752 198.899 23.415 176.315 10.0605 c 0
 167.387 4.78125 157.331 1.46484 146.967 0.871094 c 0
 105.452 -1.50391 69.8398 39.8096 71.5928 79.9775 c 0
 72.7197 105.834 88.5967 129.966 110.662 143.1 c 0
 119.589 148.414 129.651 151.811 140.033 152.429 c 0
104 484 m 1
 183.9 479.59 274.953 466.281 345.945 512.618 c 0
 404.688 550.96 443.045 632.973 392.042 693.259 c 0
 384.021 702.74 374.494 711.019 363.872 717.468 c 0
 356.119 722.175 347.751 725.868 338.998 728.262 c 0
 273.052 746.291 221.238 688.287 173 653.848 c 0
 149.418 637.012 121.016 621.545 91.0137 625.782 c 0
 44.2598 632.384 16.4814 684.195 39.2666 725.896 c 0
 57.3281 758.953 93.0898 778.172 128 788.497 c 0
 199.337 809.596 285.882 804.895 350.994 767.358 c 0
 451.262 709.556 492.153 574.427 436.762 472 c 0
 384.028 374.488 274.476 337.963 171 326 c 1
 161 230 l 1
 129 231 l 1
 104 484 l 1
EndSplineSet
EndChar

StartChar: at
Encoding: 64 64 33
Width: 752
GlyphClass: 2
Flags: HMW
HStem: -107.097 37.5879 -88.3047 0.5<340 340> 114.108 0.5<574 574>
VStem: 461.124 0.5<347 347> 462.124 70.3652 496 0.5<-70 -69 -69 -69>
LayerCount: 2
Fore
SplineSet
495.877 -69.5088 m 1xb8
 429.708 -97.7227 361.551 -113.49 290.045 -107.097 c 0
 254.765 -103.944 219.593 -95.6123 187.203 -81.1836 c 0
 164.972 -71.2803 144.087 -58.4434 125.414 -42.8242 c 0
 22.4072 43.3369 11.2275 190.003 54.8633 309.829 c 0
 118.591 484.822 303.267 607.886 490.902 570.367 c 0
 545.519 559.446 596.111 533.6 636.108 494.704 c 0
 678.835 453.156 706.905 398.574 716.989 339.915 c 0
 731.839 253.543 709.059 151.293 629.722 102.989 c 0
 602.076 86.1562 570.527 80.4395 538.922 75.4658 c 0
 507.471 70.5156 462.213 54.0264 432.243 68.5146 c 0
 421.58 73.6689 414.323 82.8418 407.403 92.2949 c 2
 407.113 92.6924 l 1
 406.712 92.4082 l 2
 384.079 76.418 361.188 59.8643 334.837 50.8008 c 0
 281.459 32.4404 220.976 49.9775 191.152 99.3643 c 0
 180.423 117.134 175.187 137.475 173.224 158.048 c 0
 165.862 235.219 199.075 313.346 249.45 370.567 c 0
 284.009 409.82 330.538 446.411 384.056 452.428 c 0
 422.126 456.708 456.498 439.185 493.947 435.242 c 0
 527.254 431.735 559.779 441.231 591.349 449.317 c 1
 573.636 363.8 545.633 279.757 533.826 193.067 c 0
 532.814 185.639 532.19 176.857 532.489 167.887 c 0
 533.376 141.249 542.47 112.543 574.146 113.608 c 0
 599.729 114.468 621.719 136.385 636.469 154.937 c 0
 676.036 204.716 685.822 272.774 674.976 334.087 c 0
 674.43 337.174 673.828 340.242 673.172 343.293 c 0
 643.476 481.41 502.311 581.521 361.895 551.299 c 0
 212.238 519.089 99.0938 378.013 76.8418 230.074 c 0
 62.832 136.934 86.2822 36.084 159.05 -27.9434 c 0
 208.66 -71.5957 274.574 -91.5986 340.021 -88.8047 c 0
 392.544 -86.5645 442.967 -73.1738 495.877 -69.5088 c 1xb8
403.939 422.806 m 0
 374.545 420.98 351.164 395.704 335.695 373.204 c 0
 299.363 320.366 283.619 250.51 288.656 186.961 c 0
 291.443 151.786 307.537 95.4824 353.043 97.9414 c 0
 381.25 99.4639 402.251 124.921 414.374 147.807 c 0
 430.953 179.102 437.31 214.824 445.162 248.888 c 0
 452.548 280.915 462.079 313.772 462.124 346.999 c 0x38
 462.17 380.48 444.719 425.338 403.939 422.806 c 0
EndSplineSet
EndChar

StartChar: A
Encoding: 65 65 34
Width: 835
GlyphClass: 2
Flags: HMW
HStem: -18.5 0.5<11.0195 322.983 825.978 825.978> 227.006 0.5<321 321> 228.006 15.4941 524.5 0.5<357.341 357.341 357.341 358.66>
VStem: 323 0.5<-18 -17 -18 -18>
LayerCount: 2
Fore
SplineSet
440 798 m 1
 442 798 l 1
 511.044 639.967 571.149 478.611 633.806 318 c 0
 652.294 270.612 671.112 223.354 689.688 176 c 0
 704.018 139.474 717.262 101.618 739.556 69.0078 c 0
 762.925 34.8262 795.341 9.23242 826 -18 c 1
 703.714 -12.5283 582.283 -12.3867 460 -18 c 1
 482.694 -1.74316 508.789 14.499 521.831 40.1768 c 0
 536.614 69.2852 525.387 101.649 514.449 130 c 0
 503.177 159.219 489.608 189.395 463.474 208.317 c 0
 425.333 235.933 365.578 229.285 321 227.506 c 0
 300.812 226.701 280.098 224.523 262.246 214.294 c 0
 200.64 178.991 192.298 85.334 240.595 36.7148 c 0
 263.868 13.2861 294.442 -1.19922 323 -17 c 1
 323 -18 l 1
 218.738 -14.5703 115.26 -14.0156 11 -18 c 1
 54.2656 9.85742 98.7285 33.4814 133.612 72.3105 c 0
 198.334 144.355 226.707 239.488 260.868 328 c 0
 281.651 381.852 309.504 434.102 324.499 490 c 0
 335.163 529.752 319.008 571.274 332.436 610 c 0
 342.46 638.907 363.429 663.11 379.13 689 c 4
 400.716 724.592 418.448 762.351 440 798 c 1
357 525 m 1
 247 244 l 1
 470 244 l 1
 359 525 l 1
 357 525 l 1
EndSplineSet
EndChar

StartChar: B
Encoding: 66 66 35
Width: 757
GlyphClass: 2
Flags: HMW
HStem: -1.70508 21G<27.333 27.333> 412.5 10<292.996 292.996 292.996 292.996> 423 0.5<292 292 293 293> 780.74 20G<28.2793 28.2793>
VStem: 118.5 0.5<202.051 271.335 202.051 271.337> 119.494 0.5<503 503> 120.308 0.5<599 599> 292.5 0.5<380.335 412 380.335 412 380.335 412.496 380.335 412.496 380.335 412.496> 293 0.5<412 412 422 422 423 423> 293.971 0.5<590 590>
LayerCount: 2
Fore
SplineSet
30 800 m 1
 64.2598 772.507 102.646 745.483 115.087 701 c 0
 124.298 668.064 121.964 632.775 120.808 599 c 0
 119.713 567.011 120.026 535.002 119.994 503 c 0
 119.901 410.34 119 317.671 119 225 c 0
 119 179.102 126.619 123.997 107.394 81.0117 c 0
 91.5742 45.6416 58.1973 22.6152 29 -1 c 1
 96.3955 7.15234 164.001 15.3926 232 11.2021 c 0
 317.976 5.90332 401.612 -5.53027 488 2.37109 c 0
 530.751 6.28125 573.908 13.6484 613 32.1592 c 0
 651.065 50.1826 684.335 79.1719 705.161 116.005 c 0
 741.979 181.125 735.87 267.471 688.751 325.825 c 0
 646.587 378.044 582.683 399.661 520 416 c 1
 570.694 432.468 620.932 450.18 655.52 493.27 c 0
 699.13 547.601 706.707 629.798 670.615 689.98 c 0
 649.736 724.796 616.519 750.866 580 767.748 c 0
 475.741 815.944 357.287 796.08 247 789.033 c 0
 174.138 784.378 102.189 790.134 30 800 c 1
293 423 m 1
 293.003 478.673 294.176 534.323 293.971 590 c 0
 293.825 629.428 290.184 669.769 295.31 708.999 c 0
 296.874 720.96 299.661 732.908 305.491 743.566 c 0
 334.986 797.489 412.558 782.752 453.721 752.336 c 0
 489.015 726.257 507.1 685.535 512.912 643 c 0
 523.594 564.821 500.586 469.808 420.995 436.599 c 0
 380.763 419.812 335.642 423 293 423 c 1
293 412 m 1xff40
 342.55 412.347 394.676 416.589 441.998 398.718 c 0
 534.736 363.696 553.601 254.36 544.123 167 c 0
 539.101 120.72 523.162 74.6074 484.629 45.6709 c 0
 433.196 7.04883 345.803 4.98633 309.345 65.2461 c 0
 301.811 77.7002 297.586 91.7051 295.269 106 c 0
 289.091 144.117 292.691 183.584 292.941 222 c 0
 293.352 285.329 293 348.67 293 412 c 1xff40
EndSplineSet
EndChar

StartChar: C
Encoding: 67 67 36
Width: 776
GlyphClass: 2
Flags: HMW
HStem: 277 0.5<710 711 710 710> 474.5 0.5<710 711 710 711.5 709.674 711>
VStem: 217 0.5<327.627 417.494> 711 0.5<-19 277 277 277 475 788 788 788>
LayerCount: 2
Fore
SplineSet
711 -19 m 5
 711 277 l 5
 710 277 l 5
 677.218 213.887 658.694 145.519 612.097 90.0586 c 4
 545.439 10.7217 423.421 -43.3037 327.015 17.208 c 4
 310.642 27.4863 296.057 40.5498 283.532 55.2471 c 4
 266.939 74.7168 254.436 97.1934 245.232 121 c 4
 214.898 199.46 217 286.254 217 369 c 4
 217 465.987 212.77 569.581 253.751 660 c 4
 264.065 682.756 277.517 704.03 294.664 722.269 c 4
 307.634 736.064 322.532 748.129 339.008 757.495 c 4
 437.562 813.522 551.125 748.987 615.497 670.967 c 4
 639.074 642.392 658.298 610.191 672.534 576 c 4
 686.362 542.788 695.495 507.985 710 475 c 5
 711 475 l 5
 711 788 l 5
 695.587 772.868 679.246 756.132 657.986 749.718 c 4
 636.021 743.091 613.598 750.691 593 758.424 c 4
 564.231 769.225 536.026 781.355 506 788.373 c 4
 445.067 802.615 381.062 798.062 322 777.942 c 4
 204.877 738.048 101.375 649.041 55.166 533 c 4
 -23.3037 335.946 81.665 93.8555 272 5.75586 c 4
 338.955 -25.2344 415.655 -36.0479 488 -19.9873 c 4
 523.56 -12.0928 556.581 2.98242 590 17.0176 c 4
 611.447 26.0264 635.665 35.918 658.885 27.4922 c 4
 681.257 19.3721 696.575 -1.16211 711 -19 c 5
EndSplineSet
EndChar

StartChar: D
Encoding: 68 68 37
Width: 855
GlyphClass: 2
Flags: HMW
HStem: -1.10742 0.5<379 379> 1.5 0.5<28 28> 11.5137 0.5<213 213> 786.496 13.0039 798.56 1.94043<30.5 31>
VStem: 30.5 0.5<799 800 799 800.5> 118.5 0.5<199.333 268.157> 119.217 0.5<499 499> 120.424 0.5<594 594> 292.491 0.508789 627.343 0.5<376 376>
LayerCount: 2
Fore
SplineSet
28 800 m 1
 84.7305 791.544 142.556 784.984 200 786.496 c 0xf7e0
 264.791 788.202 329.172 799.306 394 799.43 c 0
 487.301 799.607 583.856 776.283 663 725.947 c 0
 715.949 692.271 761.145 645.492 789.075 589 c 0
 812.274 542.074 822.807 489.99 825.819 438 c 0
 834.521 287.766 771.161 130.099 635 55.1729 c 0
 557.952 12.7754 467.221 -2.74414 380 -0.607422 c 0
 324.463 0.754883 269.49 9.92578 214 12.0137 c 0
 151.694 14.3594 90.1719 2.43555 28 2 c 1
 58.5244 22.8877 91.0879 45.3066 107.016 80.0156 c 0
 126.441 122.347 119 176.665 119 222 c 0
 119 314.317 118.011 406.698 119.717 499 c 0
 120.303 530.671 119.715 562.339 120.924 594 c 0
 122.255 628.865 125.074 664.948 115.599 699 c 0
 102.858 744.787 63.6426 772.263 28 800 c 1
364.003 779.466 m 4
 355.55 778.642 347.121 776.993 339.188 773.901 c 4
 285.337 752.914 292.939 685.715 292.991 639 c 6
 293 602 l 5
 293 270 l 5
 293.005 169 l 6
 293.026 144.117 292.149 118.41 297.791 94.0049 c 4
 310.465 39.1729 363.084 17.0449 415 20.585 c 4
 512.775 27.252 576.354 102.744 602.833 192 c 4
 620.494 251.532 625.484 314.213 627.343 376 c 4
 629.944 462.43 626.349 555.434 588.95 635 c 4
 549.619 718.673 460.48 788.871 364.003 779.466 c 4
EndSplineSet
EndChar

StartChar: E
Encoding: 69 69 38
Width: 790
GlyphClass: 2
Flags: HMW
HStem: -1.5 0.5<27 523 27 523> 779.674 20G<26.376 26.376> 787.551 0.5<200 200>
VStem: 116.5 0.5<527.498 596.941 527.498 596.973> 117.493 0.5<294 294> 118.308 0.5<199 199> 293 0.5<176 388.431 176 389> 539 0.5<202 592 592 592>
LayerCount: 2
Fore
SplineSet
28 799 m 5
 56.7451 775.678 89.6475 752.773 105.314 717.975 c 4
 124.644 675.037 117 619.883 117 574 c 4
 117 480.996 117.887 387.994 117.993 295 c 4
 118.029 263.331 117.725 231.656 118.808 200 c 4
 119.964 166.194 122.254 130.925 112.839 98 c 4
 100.048 53.2686 61.8076 26.3584 27 -1 c 5
 523 -1 l 6
 560.993 -1 599.01 -1.38184 637 -0.900391 c 4
 661.544 -0.587891 687.639 0.881836 706.273 18.9814 c 4
 728.717 40.7793 730.569 74.8418 734.697 104 c 4
 743.053 163.011 752.477 221.873 760 281 c 5
 735.968 241.264 719.034 197.37 691.112 160.01 c 4
 637.439 88.1973 554.955 43.4268 468 26.0674 c 4
 413.911 15.2676 347.012 10.6797 311.828 62.4297 c 4
 289.339 95.5078 293.003 137.938 293 176 c 6
 293 389 l 5
 368.998 379.155 449.274 364.541 496.144 296.943 c 4
 516.345 267.81 521.467 232.434 539 202 c 5
 539 592 l 5
 521.438 561.59 516.325 526.193 496.132 497.069 c 4
 449.368 429.617 368.667 415.33 293 405 c 5
 293 483.328 293.484 561.674 292.934 640 c 4
 292.68 676.17 286.489 718.977 309.93 749.767 c 4
 341.013 790.595 398.683 781.314 442 770.414 c 4
 505.196 754.512 561.868 720.746 609.927 677.195 c 4
 647.396 643.241 679.423 603.874 716 569 c 5
 702.959 604.725 690.024 640.5 676.377 676 c 4
 664.777 706.175 652.033 737.296 626.145 758.151 c 4
 603.558 776.349 575.033 782.527 547 786.694 c 4
 516.871 791.173 486.401 794.115 456 795.946 c 4
 370.457 801.096 285.436 789.383 200 787.551 c 4
 142.483 786.317 85.0996 792.989 28 799 c 5
EndSplineSet
EndChar

StartChar: F
Encoding: 70 70 39
Width: 728
GlyphClass: 2
Flags: HMW
HStem: -1.66699 21G<27.3838 27.3838> 779.676 20G<26.3564 26.3564> 787.45 0.5<203 203>
VStem: 117.5 0.5<527.498 596.912 527.498 596.944> 118.495 0.5<295 295> 119.294 0.5<199 199> 293 0.5<389 389 405 405> 539 0.5<202 592 592 592>
LayerCount: 2
Fore
SplineSet
28 799 m 5
 57.0703 775.724 90.376 752.963 106.283 717.992 c 4
 125.763 675.165 118 619.824 118 574 c 4
 118 480.996 118.914 387.993 118.995 295 c 4
 119.022 263.331 118.734 231.656 119.794 200 c 4
 120.927 166.188 123.2 130.938 113.801 98.001 c 4
 101.162 53.707 63.0742 26.6318 29 -1 c 5
 147.325 11.0439 264.695 11.8047 383 -1 c 5
 354.027 21.6719 321.438 43.7744 305.179 78.0137 c 4
 288.286 113.592 292.85 154.833 292.974 193 c 4
 293.188 258.332 293 323.668 293 389 c 5
 368.944 379.216 449.389 364.513 496.185 296.943 c 4
 516.364 267.806 521.481 232.431 539 202 c 5
 539 592 l 5
 521.473 561.577 516.321 526.189 496.132 497.069 c 4
 449.349 429.589 368.751 415.161 293 405 c 5
 293 483.338 294.484 561.655 293.934 640 c 4
 293.678 676.511 287.385 719.866 311.597 750.672 c 4
 342.932 790.539 399.98 781.326 443 770.662 c 4
 506.123 755.014 562.812 721.568 610.881 678.221 c 4
 648.621 644.188 680.787 604.597 718 570 c 5
 704.854 605.35 691.932 640.796 678.399 676 c 4
 666.802 706.168 654.024 737.305 628.145 758.151 c 4
 605.814 776.141 577.707 782.292 550 786.5 c 4
 519.227 791.173 488.07 794.197 457 795.994 c 4
 372.102 800.905 287.774 789.312 203 787.45 c 4
 144.478 786.165 86.0977 792.884 28 799 c 5
EndSplineSet
EndChar

StartChar: G
Encoding: 71 71 40
Width: 803
GlyphClass: 2
Flags: HMW
HStem: 474.5 0.5<718 719 718 719.5 717.672 719>
VStem: 215 0.5<349.754 438.249> 406.5 0.5<356 357 356 357.544> 544.466 0.5<183 183> 719 0.5<-20.4053 11.999 475 788 788 788>
LayerCount: 2
Fore
SplineSet
719 -19 m 5
 719 42.998 719.24 105.002 718.963 167 c 4
 718.794 204.523 714.495 244.391 729.048 280 c 4
 741.84 311.301 767.995 334.268 792 357 c 5
 662.92 345.243 536.1 346.092 407 357 c 5
 407 356 l 5
 453.579 335.068 511.336 317.644 533.758 266.94 c 4
 545.171 241.131 544.842 211.685 544.966 184 c 4
 545.099 154.401 545.939 124.561 544.233 95 c 4
 542.952 72.8203 538.744 50.8389 524.85 32.8594 c 4
 487.326 -15.7021 408.805 -16.4824 356 3.17871 c 4
 292.828 26.7021 252.973 85.1582 235.216 148 c 4
 213.126 226.177 215 309.509 215 390 c 4
 215 486.498 211.847 592.886 262.413 678.999 c 4
 274.467 699.528 289.616 718.249 307.364 734.132 c 4
 320.759 746.118 335.691 756.444 352 764.06 c 4
 452.486 810.979 561.587 738.629 623.574 661.979 c 4
 669.031 605.767 689.79 540.25 718 475 c 5
 719 475 l 5
 719 788 l 5
 703.299 772.579 686.654 755.593 664.988 749.077 c 4
 642.417 742.29 619.261 750.006 598 757.729 c 4
 568.871 768.309 540.236 780.127 510 787.305 c 4
 448.154 801.985 383.311 798.865 323 778.977 c 4
 206.002 740.393 101.555 652.175 54.5879 537 c 4
 -26.2559 338.752 78.4404 92.3428 272 4.76953 c 4
 340.436 -26.1943 418.531 -35.7773 492 -19.0957 c 4
 528.099 -10.9004 561.814 4.06641 596 17.8496 c 4
 617.827 26.6514 642.411 36.3271 665.883 27.9824 c 4
 688.677 19.8779 704.277 -0.932617 719 -19 c 5
EndSplineSet
EndChar

StartChar: H
Encoding: 72 72 41
Width: 891
GlyphClass: 2
Flags: HMW
HStem: -1.65527 21G<25.3379 25.3379> 401.5 0.5<293.5 597.5 293.5 293.5> 402.5 30<292.5 598.5 292.5 598.5> 779.626 21G 788.345 0.5<218 218> 796 0.5<384 384>
VStem: 118.496 0.503906 293 0.5<401.5 401.5 401.5 402 433.5 614> 597.529 0.5<195 195> 772 0.5<199.118 501>
LayerCount: 2
Fore
SplineSet
27 799 m 5
 56.6396 776.242 90.2383 754.017 106.448 718.984 c 4
 126.301 676.08 119 620.992 119 575 c 6
 119 296 l 5
 118.996 179 l 6
 118.976 151.18 120.24 122.003 112.44 95.001 c 4
 99.8574 51.4414 61.0088 25.334 27 -1 c 5
 146.64 10 265.36 10 385 -1 c 5
 355.203 21.4688 321.824 43.2783 305.193 78.0244 c 4
 287.757 114.45 292.808 156.905 292.967 196 c 4
 293.246 264.664 293 333.335 293 402 c 5
 598 402 l 5
 598 333.335 597.777 264.665 598.029 196 c 4
 598.173 156.868 603.205 114.455 585.657 78.0273 c 4
 568.953 43.3535 535.716 21.5586 506 -1 c 5
 625.64 9.99902 744.36 10 864 -1 c 5
 834.366 21.7852 800.705 43.9707 784.48 79.0146 c 4
 764.741 121.645 772 176.298 772 222 c 6
 772 501 l 5
 772.003 619 l 6
 772.021 646.821 770.702 675.982 778.448 702.999 c 4
 790.975 746.697 829.815 772.754 864 799 c 5
 744.213 790.399 625.778 790.084 506 799 c 5
 534.984 777.315 567.3 756.254 584.085 722.971 c 4
 600.903 689.624 597.996 650.242 598 614 c 6
 598 433 l 5
 293 433 l 5
 293 614 l 6
 293.004 650.236 290.036 689.631 306.865 722.973 c 4
 323.321 755.576 354.421 776.422 384 796 c 5
 328.621 797.455 273.369 789.299 218 788.345 c 4
 154.217 787.245 90.4648 793.51 27 799 c 5
EndSplineSet
EndChar

StartChar: I
Encoding: 73 73 42
Width: 412
GlyphClass: 2
Flags: HMW
HStem: -1.64551 21G<25.3584 25.3584> 779.653 20G<25.3271 25.3271> 786.499 0.5<221 221> 796 0.5<384 384>
VStem: 118.495 0.504883 292.148 0.5<196 196> 293 0.5<287 573>
LayerCount: 2
Fore
SplineSet
27 799 m 5
 56.6396 776.242 90.2383 754.017 106.448 718.984 c 4
 126.301 676.08 119 620.992 119 575 c 6
 119 296 l 5
 118.995 179 l 6
 118.972 151.2 120.246 121.976 112.422 95.002 c 4
 99.8203 51.5537 60.8398 25.3926 27 -1 c 5
 146.713 9.50195 265.295 9.99219 385 -1 c 5
 349.974 25.9355 311.525 52.2148 298.858 97 c 4
 289.805 129.005 291.22 163.113 292.148 196 c 4
 293.005 226.334 293 256.656 293 287 c 6
 293 573 l 6
 293 619.174 285.275 674.82 304.876 717.987 c 4
 320.682 752.799 353.42 775.18 384 796 c 5
 329.54 795.998 275.482 787.223 221 786.499 c 4
 156.145 785.637 91.4805 793.153 27 799 c 5
EndSplineSet
EndChar

StartChar: J
Encoding: 74 74 43
Width: 527
GlyphClass: 2
Flags: HMW
HStem: 787.579 11.1982 800 0.5<161.5 162 161.5 514 161.5 219.849>
VStem: 10.1572 151.654 249.517 0.5<246 246> 424 0.5<362 557>
LayerCount: 2
Fore
SplineSet
158 800 m 5
 187.804 777.781 221.4 756.009 237.345 720.984 c 4
 258.567 674.368 250 612.898 250 563 c 4
 250 457.668 249.765 352.332 250.017 247 c 4
 250.128 200.789 254.713 153.981 248.452 108 c 4
 245.343 85.1641 238.996 60.2686 221.385 44.1094 c 4
 200.341 24.7969 174.223 34.8096 162.258 58.5547 c 4
 142.403 97.958 160.84 147.005 125.062 180.089 c 4
 85.4131 216.752 20.3037 191.376 9.66797 139.981 c 4
 3.54395 110.389 17.584 80.6992 35.9707 58.2715 c 4
 75.7373 9.75977 138.501 -11.9561 200 -9.22559 c 4
 272.692 -6 341.624 32.6748 379.912 95.0049 c 4
 399.499 126.891 410.127 163.298 416.146 200 c 4
 424.923 253.523 424 307.95 424 362 c 6
 424 557 l 6
 424 586.991 423.613 617.014 424.226 647 c 4
 424.743 672.288 426.005 698.644 436.741 721.979 c 4
 452.482 756.194 484.989 777.912 514 800 c 5
 394.981 783.525 277.115 785.498 158 800 c 5
EndSplineSet
EndChar

StartChar: K
Encoding: 75 75 44
Width: 845
GlyphClass: 2
Flags: HMW
HStem: -1.5 0.5<536.02 834.982 536.02 536.02> -0.5 0.5<33.0146 390.985 33.0146 33.0146> 779.636 21G
VStem: 124.498 0.501953 298.941 0.5<596 596> 549.928 0.5<48 48> 775 0.5<798 799 799 799>
LayerCount: 2
Fore
SplineSet
34 799 m 5
 63.3623 776.985 96.6885 755.376 112.695 720.975 c 4
 132.546 678.311 125 622.773 125 577 c 6
 125 293 l 5
 124.998 176 l 6
 124.989 148.844 126.444 120.434 119.134 94.002 c 4
 106.963 49.9893 67.9697 25.1035 33 0 c 5
 152.591 3.60547 271.409 3.60547 391 0 c 5
 361.962 20.25 330.057 39.7734 313 72.0566 c 4
 295.43 105.311 298.929 144.659 298.987 181 c 4
 299.067 231.071 291.545 289.64 310.969 336.999 c 4
 320.31 359.774 336.369 378.243 353 396 c 5
 392.043 315.895 442.242 241.097 491.475 167 c 4
 514.505 132.34 551.589 92.3008 550.428 48.0059 c 4
 549.972 30.6494 542.906 14.6201 536 -1 c 5
 635.933 2.82129 735.065 2.60547 835 -1 c 5
 807.543 25.0625 779.269 50.2148 755.703 80.0029 c 4
 723.874 120.236 699.792 166.01 673.705 210 c 4
 638.279 269.74 601.75 328.843 565.363 388 c 4
 546.893 418.028 527.347 447.679 511.105 479 c 4
 499.728 500.938 490.433 525.052 496.557 550 c 4
 505.713 587.303 538.675 616.262 565.062 642.001 c 4
 598.379 674.5 633.009 705.826 671 732.822 c 4
 704.357 756.525 740.385 776.233 775 798 c 5
 775 799 l 5
 690.585 791.955 607.429 792.554 523 799 c 5
 544.559 773.927 571.021 745.588 568.521 710 c 4
 565.251 663.441 522.987 626.294 493.765 594 c 4
 428.379 521.739 365.308 447.435 299 376 c 5
 299 449.329 299.417 522.672 298.941 596 c 4
 298.678 636.498 292.698 681.124 310.453 718.988 c 4
 326.731 753.702 359.685 776.104 389 799 c 5
 270.363 789.209 152.637 789.209 34 799 c 5
EndSplineSet
EndChar

StartChar: L
Encoding: 76 76 45
Width: 717
GlyphClass: 2
Flags: HMW
HStem: -1.5 0.5<28 485 28 485> 283 0.5<706 707 706 706> 779.626 21G
VStem: 119.5 0.5<200 223 200 223> 120.5 173<200.031 267> 294 0.5<267 569> 294.251 0.5<151 151>
LayerCount: 2
Fore
SplineSet
27 799 m 5
 61.1377 773.07 100.257 747.317 113.165 703.997 c 4
 121.196 677.045 119.972 647.823 119.995 620 c 6
 120 503 l 5
 120 223 l 6
 120 177.001 127.305 121.912 107.397 79.0156 c 4
 91.1416 43.9893 57.6133 21.8203 28 -1 c 5
 485 -1 l 6
 518.99 -1 553.014 -1.42969 587 -0.861328 c 4
 611.305 -0.453125 636.799 1.70801 654.918 19.8945 c 4
 677.125 42.1836 678.54 76.626 682.515 106 c 4
 690.502 165.026 699.74 223.876 707 283 c 5
 706 283 l 5
 679.249 229.781 658.66 172.106 619.382 126.362 c 4
 569.947 68.792 497.835 28.8887 422 21.1445 c 4
 378.246 16.6758 332.443 28.1924 309.609 69.1729 c 4
 295.841 93.8828 294.835 123.386 294.251 151 c 4xfa
 293.433 189.645 294 228.348 294 267 c 6
 294 569 l 6
 294 617.433 285.913 676.762 306.759 721.938 c 4
 322.475 755.996 354.968 777.246 384 799 c 5
 264.56 790.113 146.448 790.509 27 799 c 5
EndSplineSet
EndChar

StartChar: M
Encoding: 77 77 46
Width: 1110
GlyphClass: 2
Flags: HMW
HStem: -1 21G<37 308 37 37 676 1033> 40.3779 0.5<458 458> 252 0.5<546.353 547.644 546.353 548 546.353 548> 779 20G<11 11 1083 1083> 787.485 0.5<190 190>
VStem: 10.5 0.5<798 799 798 799.547 797.675 799> 36.5 0.5<-1 0 -1 0.264648> 162.617 0.5<246 246> 181 0.5<271.512 664.918 289 664.918 289 665> 181.744 0.5<184 184> 308 0.5<-1 0 -1 -1> 767.5 0.5<271 750 292 749.916> 942 0.5<469.335 536.995> 1083 0.5<798 799 798 798>
LayerCount: 2
Fore
SplineSet
11 799 m 5xf7fc
 70.3652 793.647 130.291 785.956 190 787.485 c 4xeffc
 227.903 788.456 271.616 799.703 306.761 780.544 c 4
 331.603 767.003 346.222 741.916 357.618 716.999 c 4
 370.369 689.117 381.317 660.384 392.885 632 c 4
 444.406 505.587 500.186 380.659 546 252 c 5
 548 252 l 5
 592.686 381.546 648.849 506.928 699.939 634 c 4
 719.424 682.465 735.733 754.741 785.216 781.494 c 4
 820.717 800.688 864.828 788.699 903 787.561 c 4
 963.036 785.77 1023.26 794.251 1083 799 c 5
 1083 798 l 5
 1036.37 779.765 981.796 765.033 957.044 716.937 c 4
 943.684 690.977 942.703 660.592 942.196 632 c 4
 941.521 594.016 942 555.989 942 518 c 4
 942 420.669 942.337 323.33 941.97 226 c 4
 941.788 177.584 932.715 122.461 953.77 77.0254 c 4
 969.922 42.1709 1003.15 21.0293 1033 -1 c 5
 913.574 9.80176 795.43 9.72852 676 -1 c 5
 703.333 19.6748 733.639 39.5186 750.892 70.0791 c 4
 767.28 99.1055 767.659 133.553 767.927 166 c 4
 768.273 207.996 768 250.003 768 292 c 6
 768 750 l 5
 767 750 l 5
 740.77 673.821 709.195 599.675 679.048 525 c 4
 636.156 418.753 593.549 312.386 551 206 c 4
 533.803 163.003 518.604 118.387 497.564 77.0752 c 4
 489.99 62.2041 478.061 41.2451 458.938 40.8779 c 4
 441.258 40.5381 429.28 58.4834 421.773 72.1602 c 4
 402.239 107.748 389.67 147.473 374.414 185 c 4
 309.528 344.604 236.78 501.469 182 665 c 5
 181 665 l 5
 181 289 l 6
 181 254.023 180.309 218.955 181.744 184 c 4
 182.921 155.342 185.57 126.074 198.512 100.005 c 4
 221.148 54.4082 267.268 27.4004 308 0 c 5
 308 -1 l 5
 217.123 8.12207 127.874 8.12402 37 -1 c 5
 37 0 l 5
 77.4795 27.457 122.854 54.1074 146.164 99.0068 c 4
 169.684 144.312 163.676 197.771 163.117 247 c 4
 162.17 330.356 163 413.641 163 497 c 4
 163 537.995 163.322 579.006 162.907 620 c 4
 162.578 652.532 161.709 687.062 144.775 715.895 c 4
 115.684 765.425 59.625 776.373 11 798 c 5
 11 799 l 5xf7fc
EndSplineSet
EndChar

StartChar: N
Encoding: 78 78 47
Width: 925
GlyphClass: 2
Flags: HMW
HStem: -0.473633 21G 779 20G<11 11 643 913> 787.252 0.5<189 189>
VStem: 10.5 0.5<798 799 798 799.55 797.697 799> 162.5 0.5<492.496 560.334 492.496 560.372> 181 0.5 182 0.5<274.345 354.966 274.342 355.17> 182.63 0.5<186 186> 768.5 0.5<283.311 326.333 282 327.447> 787 0.5<-11 466 -11 -11>
LayerCount: 2
Fore
SplineSet
11 799 m 5xdfc0
 70.2295 793.416 129.39 785.926 189 787.252 c 4xbfc0
 232.501 788.219 279.495 799.514 320.999 781.452 c 4
 350.519 768.605 373.002 743.658 393.884 719.981 c 4
 420.842 689.415 446.979 658.109 473.307 627 c 4
 571.143 511.397 668.13 394.986 769 282 c 5
 769 370.666 768.782 459.334 769.02 548 c 4
 769.153 597.833 775.394 651.976 751.935 697.996 c 4
 728.732 743.515 683.002 770.118 643 799 c 5
 733.422 791.343 822.584 791.175 913 799 c 5
 871.725 769.469 824.181 742.19 802.352 693.992 c 4
 787.695 661.632 787.289 624.89 787.057 590 c 4
 786.782 548.67 787 507.331 787 466 c 6
 787 -11 l 5
 699.622 67.3145 626.63 159.241 550.383 248 c 4
 428.44 389.956 307.657 533.195 181 671 c 5
 181 544.663 182 418.341 182 292 c 4
 182 256.69 181.318 221.292 182.63 186 c 4
 183.718 156.727 186.234 126.712 199.295 100.01 c 4
 221.552 54.5059 267.36 27.1387 308 0 c 5
 308 -1 l 5
 253.555 5.44531 198.886 11.1113 144 7.83301 c 4
 129.978 6.99609 115.705 4.93457 101.648 5.8125 c 4
 96.126 6.15625 88.5732 6.94629 85.0781 11.9053 c 4
 76.5898 23.9512 101.839 43.374 108.658 50.2402 c 4
 140.357 82.1631 158.339 119.226 162.903 164 c 4
 167.162 205.789 164.093 248.092 164.013 290 c 4
 163.86 371.002 163 451.992 163 533 c 4
 163 587.669 172.693 655.698 144.05 704.935 c 4
 114.91 755.024 59.4688 772.726 11 798 c 5
 11 799 l 5xdfc0
EndSplineSet
EndChar

StartChar: O
Encoding: 79 79 48
Width: 796
GlyphClass: 2
Flags: HMW
HStem: 796.933 0.500977<375 375>
VStem: 227.436 0.5<420 420> 569.356 0.5<405 405>
LayerCount: 2
Fore
SplineSet
375 796.933 m 4
 337.517 794.288 300.438 784.393 266 769.504 c 4
 -7.79395 651.131 -62.3389 227.54 174.009 43.8721 c 4
 202.325 21.8672 234.208 4.6875 268 -7.26953 c 4
 320.121 -25.7148 375.985 -31.6611 431 -27.7803 c 4
 477.848 -24.4756 524.581 -13.3613 567 7.00879 c 4
 677.266 59.958 744.475 173.873 762.333 292 c 4
 788.801 467.091 722.94 664.779 562 754.146 c 4
 536.177 768.485 508.561 779.682 480 787.229 c 4
 445.788 796.27 410.293 799.423 375 796.933 c 4
384 775.032 m 4
 472.32 786.035 527.226 699.379 547.231 625 c 4
 566.348 553.921 568.945 479.2 569.856 406 c 4
 570.946 318.532 568.896 228.401 543.592 144 c 4
 524.719 81.0498 484.86 4.68945 412 -4.02832 c 4
 323.188 -14.6533 272.599 81.0254 251.825 153 c 4
 226.956 239.159 225.378 330.975 227.436 420 c 4
 229.031 489.042 231.975 559.003 250.23 626 c 4
 268.047 691.388 309.801 765.788 384 775.032 c 4
EndSplineSet
EndChar

StartChar: P
Encoding: 80 80 49
Width: 713
GlyphClass: 2
Flags: HMW
HStem: -1.6543 21G<25.3457 25.3457> 346.5 0.5<293.5 293.5> 347.5 10.999<292.5 293 292.5 292.5> 359 0.500977<293 293.5> 798.596 0.5<381 381>
VStem: 118.494 0.505859 293 0.5<359.501 546>
LayerCount: 2
Fore
SplineSet
27 799 m 5
 56.5146 776.162 90.0654 753.886 106.357 718.979 c 4
 126.228 676.401 119 621.691 119 576 c 6
 119 296 l 5
 118.994 179 l 6
 118.968 150.849 120.141 121.28 112.041 94.0068 c 4
 99.248 50.9316 60.6582 25.2051 27 -1 c 5
 146.659 10.001 265.343 10.001 385 -1 c 5
 356.334 20.4854 324.387 41.2891 307.481 74.0342 c 4
 290.773 106.398 293.014 144.651 293.002 180 c 6
 293 347 l 5
 391.286 347 499.26 343.785 584.994 399.842 c 4
 672.02 456.743 722.617 576.764 665.96 671.997 c 4
 648.001 702.186 621.502 727.188 591.998 745.955 c 4
 529.999 785.395 453.633 799.614 381 798.596 c 4
 330.482 797.888 280.412 790.283 230 787.842 c 4
 161.979 784.547 94.541 792.035 27 799 c 5
293 359 m 1
 293 546 l 2
 293 589.665 292.821 633.335 293.032 677 c 0
 293.148 700.826 292.904 726.535 306.922 747.014 c 0
 343.851 800.963 426.48 773.094 463.489 734.928 c 0
 491.112 706.44 504.169 668.561 509.923 630 c 0
 522.279 547.191 510.264 444.425 438.764 390.348 c 0
 396.65 358.496 343.345 359.075 293 359 c 1
EndSplineSet
EndChar

StartChar: Q
Encoding: 81 81 50
Width: 787
GlyphClass: 2
Flags: HMW
VStem: 220.5 0.5<9.42578 9.72461 9.72461 9.72461> 227.027 0.5<393 393> 566.451 0.5<394 394>
LayerCount: 2
Fore
SplineSet
221 10 m 1
 180.001 35.8535 141.445 64.959 110.922 103.021 c 0
 28.8506 205.367 11.293 348.318 36.5557 474 c 0
 74.1279 660.93 249.571 827.064 449 793.188 c 0
 477.973 788.268 506.268 779.28 533 767.111 c 0
 705.081 688.771 780.538 490.424 761.993 311 c 0
 754.821 241.612 733.817 172.284 693.117 115.002 c 0
 645.078 47.3916 571.719 -0.726562 491 -19.251 c 0
 450.592 -28.5244 408.995 -28.915 368 -34 c 1
 437.725 -55.4014 504.906 -85.0703 577 -98.2285 c 0
 613.196 -104.835 652.215 -108.959 686.996 -94.1016 c 0
 721.429 -79.3936 745.596 -49.1367 770 -22 c 1
 755.076 -54.9648 738.26 -86.2734 712.172 -111.896 c 0
 621.826 -200.64 479.41 -194.942 371 -145.903 c 0
 320.252 -122.948 274.16 -90.8838 223 -68.7422 c 0
 195.714 -56.9316 164.656 -46.5811 135 -55.4648 c 0
 106.498 -64.0029 84.709 -86.8301 64 -107 c 1
 69.3018 -90.2627 75.1904 -73.8359 85.0527 -59.1611 c 0
 116.001 -13.1123 169.382 0.720703 221 9 c 1
 221 10 l 1
380.937 775.495 m 0
 306.494 765.898 265.892 690.42 248.735 625.127 c 0
 228.934 549.769 226.701 470.438 226.527 393.001 c 0
 226.346 312.07 228.591 229.283 250.879 150.863 c 0
 271.243 79.2109 321.248 -16.2246 410.06 -5.54004 c 0
 483.566 3.30762 523.118 80.71 541.805 143.858 c 0
 565.789 224.912 567.886 311.153 567.451 395.003 c 0
 567.051 472.09 564.741 551.226 544.5 626.131 c 0
 524.458 700.299 469.372 786.896 380.937 775.495 c 0
EndSplineSet
EndChar

StartChar: R
Encoding: 82 82 51
Width: 808
GlyphClass: 2
Flags: HMW
HStem: -1.65039 21G<33.3486 33.3486> 798.502 0.5<387 387>
VStem: 126.496 0.503906 301 0.5<359.572 546> 798 0.5<-1 0 0 0>
LayerCount: 2
Fore
SplineSet
35 799 m 1
 64.6455 776.244 98.3301 754.043 114.518 718.985 c 0
 134.339 676.058 127 621.004 127 575 c 2
 127 296 l 1
 126.996 179 l 2
 126.979 151.176 128.275 122.001 120.43 95.002 c 0
 107.799 51.5342 68.917 25.3584 35 -1 c 1
 154.759 9.75781 273.243 9.83301 393 -1 c 1
 364.323 20.4727 332.356 41.2754 315.465 74.0342 c 0
 298.763 106.425 301.012 144.633 301.001 180 c 2
 301 347 l 1
 324.731 343.796 348.516 340.25 369.991 328.986 c 0
 435.15 294.811 461.366 218.011 491.736 156 c 0
 508.337 122.104 531.231 88.2402 535.935 50.0039 c 0
 538.056 32.7627 535.312 15.8916 532 -1 c 1
 621.263 7.2959 708.746 7.49023 798 -1 c 1
 798 0 l 1
 765.892 27.5625 734.027 55.9971 711.143 92 c 0
 692.368 121.539 679.168 154.13 662.842 185 c 0
 645.521 217.75 624.576 248.782 598.954 275.636 c 0
 557.921 318.641 509.523 338.919 455 359 c 1
 523.979 376.496 595.28 400.399 643.808 455.392 c 0
 696.104 514.653 710.656 604.675 669.445 673.989 c 0
 646.873 711.954 611.222 740.704 572 760.15 c 0
 515.154 788.336 450.1 799.332 387 798.502 c 0
 337.157 797.847 287.74 790.251 238 787.842 c 0
 170.004 784.548 102.51 791.885 35 799 c 1
301 359 m 1
 301 546 l 2
 301 583.333 301.098 620.667 300.965 658 c 0
 300.881 681.682 298.729 707.085 306.442 729.88 c 4
 309.074 737.658 312.986 744.983 318.198 751.342 c 0
 360.508 802.955 443.229 768.805 477.87 726.606 c 0
 501.594 697.707 511.976 660.677 515.37 624 c 0
 522.912 542.51 494.249 455.823 428.802 403.983 c 0
 391.586 374.505 346.926 365.174 301 359 c 1
EndSplineSet
EndChar

StartChar: S
Encoding: 83 83 52
Width: 613
GlyphClass: 2
Flags: HMW
HStem: 288 0.5<62 63 62 62>
VStem: 56.4863 0.513672<-18 -18>
LayerCount: 2
Fore
SplineSet
63 288 m 1
 62 288 l 1
 57 -18 l 1
 77.4492 -7.10645 98.4629 4.18555 122 6.00781 c 0
 145.574 7.83203 168.671 0.402344 191 -6.15137 c 0
 217.648 -13.9727 244.465 -21.5273 272 -25.5293 c 0
 375.259 -40.5361 484.548 1.19629 540.388 92.001 c 0
 557.599 119.989 568.614 151.49 573.178 184 c 0
 576.19 205.451 576.519 227.485 573.946 249 c 0
 561.03 356.992 467.688 425.061 378 471.534 c 0
 309.699 506.925 224.681 541.03 195.525 619 c 0
 172.793 679.792 204.523 763.729 275 772.695 c 0
 296.756 775.463 318.474 769.762 338 760.371 c 0
 434.511 713.959 471.797 606.434 531 525 c 1
 513 790 l 1
 496.98 778.357 480.121 765.625 459.997 762.628 c 0
 437.884 759.334 416.264 768.707 396 776.267 c 0
 372.592 784.997 348.896 792.525 324 795.528 c 0
 221.946 807.839 119.302 747.336 75.9072 655 c 0
 63.6533 628.926 56.3164 600.673 53.7549 572 c 0
 51.6963 548.956 52.8164 525.569 58.0654 503 c 0
 87.3154 377.228 227.066 339.16 323 277.983 c 0
 368.128 249.205 413.669 209.39 428.684 156 c 0
 446.924 91.1465 409.108 8.90918 339 -4.01465 c 0
 310.094 -9.34277 281.113 -0.945312 256 13.3018 c 0
 152.879 71.8037 118.666 191.689 63 288 c 1
EndSplineSet
EndChar

StartChar: T
Encoding: 84 84 53
Width: 794
GlyphClass: 2
Flags: HMW
HStem: -14.6602 21G<215.295 215.295> 784.01 8.95764 792.486 0.5<660 660>
VStem: 308.5 0.5<279 767.332 767.332 767.332> 483 0.5<278 767.339>
LayerCount: 2
Fore
SplineSet
10 525 m 5
 40.4141 569.534 64.8096 618.169 102.146 657.654 c 4
 158.382 717.125 232.216 745.528 309 768 c 5
 309 279 l 6
 309 237.003 309.273 194.996 308.927 153 c 4
 308.659 120.552 308.279 86.1064 291.892 57.0781 c 4
 274.637 26.5117 244.368 6.64062 217 -14 c 5
 336.422 -2.95312 454.602 -2.25781 574 -14 c 5
 546.903 6.64355 516.83 26.6182 499.797 57.0488 c 4
 483.71 85.7891 483.314 119.926 483.066 152 c 4
 482.743 193.996 483 236.003 483 278 c 6
 483 768 l 5
 556.984 747.049 628.682 720.67 684.39 665.315 c 4
 724.916 625.046 752.261 574.208 782 526 c 5
 776.328 583.55 762.691 640.154 752.463 697 c 4
 747.462 724.797 744.298 757.45 721.724 777.298 c 4
 704.543 792.403 681.727 793.319 660 792.486 c 4xb8
 631.315 791.387 602.683 789.005 574 787.765 c 4
 455.447 782.643 336.548 782.822 218 787.931 c 4
 190.646 789.109 163.346 791.18 136 792.469 c 4
 114.345 793.488 91.502 793.27 73.8682 778.81 c 4
 49.9336 759.183 46.6143 725.461 41.5693 697 c 4
 31.3955 639.604 19.9414 582.439 10 525 c 5
EndSplineSet
EndChar

StartChar: U
Encoding: 85 85 54
Width: 903
GlyphClass: 2
Flags: HMW
HStem: 779.655 21G 789.326 0.5<202 202> 797 0.5<376 376>
VStem: 109.247 0.5<649 649> 109.5 0.5<534.496 576.662 534.496 576.664> 110.5 0.5<397 397> 285 0.5<363.267 522> 736.505 0.5<497 497> 753 0.5<338.467 410.667 338.467 410.67> 754 0.5<505.33 555.976>
LayerCount: 2
Fore
SplineSet
18 799 m 5
 47.3545 778.391 79.8301 758.233 96.2568 724.974 c 4
 107.687 701.832 109.176 675.366 109.747 650 c 4x77c0
 110.407 620.683 110 591.323 110 562 c 4
 110 506.992 110.99 452.003 111 397 c 4
 111.012 329.602 111.272 260.435 133.655 196 c 4
 201.044 2.00977 474.607 -84.5518 637.973 44.04 c 4
 659.02 60.6074 677.868 80.1914 693.423 102.006 c 4
 752.184 184.416 753 289.921 753 387 c 4
 753 434.34 754 481.66 754 529 c 4
 754 582.952 746.621 644.669 770.049 694.997 c 4
 792.101 742.369 839.481 769.368 880 799 c 5
 789.886 790.919 701.122 791.074 611 799 c 5
 652.175 768.912 701.074 741.714 722.67 692.996 c 4
 735.141 664.863 736.338 633.307 736.825 603 c 4
 737.392 567.677 736.974 532.326 737.005 497 c 4
 737.119 369.041 756.89 220.373 672.789 112.023 c 4
 659.956 95.4902 645.164 80.377 628.948 67.1465 c 4
 609.684 51.4307 588.082 38.5625 565 29.3027 c 4
 535.648 17.5303 503.613 11.6416 472 14.5137 c 4
 450.163 16.499 428.698 22.5488 409.001 32.1719 c 4
 393.983 39.5088 380.023 48.9199 367.34 59.79 c 4
 264.47 147.946 285 302.641 285 424 c 6
 285 522 l 5
 285.004 627 l 6
 285.024 652.879 283.966 679.802 290.831 704.999 c 4
 302.618 748.263 340.393 773.938 376 797 c 5
 317.95 796.896 260.07 790.096 202 789.326 c 4
 140.546 788.513 79.1807 793.992 18 799 c 5
EndSplineSet
EndChar

StartChar: V
Encoding: 86 86 55
Width: 856
GlyphClass: 2
Flags: HMW
HStem: 16.8711 0.5<400 400> 779.671 21G 790.296 0.5<253 253>
LayerCount: 2
Fore
SplineSet
13 799 m 1
 41.6094 775.556 71.9102 753.326 93.7041 722.967 c 0
 113.012 696.072 124.549 664.592 136.538 634 c 2
 180.781 521 l 2
 220.595 419.326 260.529 300.828 300.28 199.129 c 4
 320.343 147.802 339.306 95.9004 360.789 45.1475 c 4
 367.85 28.4707 379.027 0.46875 400.987 0.5 c 4
 424.32 0.53418 435.474 31.5889 442.719 49.1387 c 4
 465.856 105.184 487.81 161.756 510.137 218.129 c 4
 545.071 306.336 579.911 411.448 613.966 500 c 0
 642.262 573.58 669.854 650.938 723.03 710.814 c 0
 757.661 749.811 801.909 772.749 846 799 c 1
 741.552 791.141 638.431 790.671 534 799 c 1
 575.305 774.595 626.773 752.936 643.882 703.986 c 0
 662.548 650.579 629.718 592.356 610.072 544 c 0
 566.52 436.798 522.616 312.284 487 202.129 c 5
 485 202.129 l 5
 447.366 317.985 400.123 447.54 355.974 561 c 0
 343.814 592.25 331.376 623.427 320.073 655 c 0
 312.845 675.188 304.592 697.18 307.098 718.994 c 0
 311.361 756.1 346.839 778.794 375 798 c 1
 334.286 795.719 293.807 791.195 253 790.296 c 0
 172.742 788.527 92.9863 792.934 13 799 c 1
EndSplineSet
EndChar

StartChar: W
Encoding: 87 87 56
Width: 1379
GlyphClass: 2
Flags: HMW
HStem: 621.5 0.5<664.332 665.646 664.332 664.332> 779.531 21G 790.296 0.5<253 253>
VStem: 534.5 0.5<798 799 798 799.531> 898 0.5<798 799 799 799> 1056.5 0.5<798 799 798 799.541>
LayerCount: 2
Fore
SplineSet
663.668 622.5 m 1
 666.354 622.5 l 1
 721.69 464.61 792.705 283.724 852.732 127.55 c 0
 866.609 91.4463 877.326 52.1973 897.344 19.0225 c 0
 905.252 5.91406 918.381 -9.71289 935.271 -5 c 0
 959.404 1.7334 968.686 35.7188 976.783 56.5518 c 0
 999.943 116.117 1024.29 175.208 1047.97 234.556 c 0
 1080.34 315.674 1108.16 423.639 1139.45 505.179 c 0
 1166.48 575.645 1193.05 649.136 1243.23 707.154 c 0
 1277.88 747.23 1322.75 770.724 1367.02 798.351 c 1
 1263.18 790.637 1161.81 790.177 1057.15 798.487 c 1
 1100.13 775.392 1152.3 752.146 1168.79 702.15 c 0
 1186.46 648.604 1153.52 590.784 1133.95 542.812 c 0
 1090.35 435.909 1050.13 302.058 1014.48 192.215 c 1
 1011.64 191.87 l 1
 973.869 307.669 922.67 447.337 878.507 560.818 c 0
 866.347 592.064 853.94 623.252 842.622 654.831 c 0
 835.392 675.01 827.07 697.071 829.606 719.052 c 0
 833.919 756.441 869.049 778.866 897.828 798.487 c 1
 775.807 790.694 657.461 790.984 535.186 798.487 c 1
 575.218 767.75 619.979 733.952 633.674 683.13 c 0
 649.332 625.023 620.57 565.369 599.479 512.813 c 0
 560.439 415.535 524.957 291.558 491.475 192.215 c 2
 503.493 227.855 l 1
 503.493 227.855 500.489 218.945 491.475 192.215 c 0
 491.436 192.1 491.397 191.985 491.359 191.87 c 2
 488.637 191.87 l 1
 488.523 192.215 l 2
 450.746 308.013 399.667 447.336 355.508 560.818 c 0
 343.35 592.065 330.94 623.252 319.622 654.831 c 0
 312.391 675.009 304.071 697.07 306.605 719.052 c 0
 310.843 755.784 345.319 778.402 373.229 797.398 c 1
 333.401 795.102 293.202 790.682 253.011 789.796 c 4
 173.22 788.038 94.1943 792.363 14.5293 798.383 c 1
 42.9863 774.848 73.0352 751.872 94.7412 721.269 c 0
 114.156 693.896 126.015 662.119 138.155 631.183 c 2
 180.856 522.183 l 2
 218.824 425.167 260.826 301.535 298.877 204.553 c 0
 319.535 151.897 339.689 99.0293 360.789 46.5605 c 0
 368.131 28.3066 377.934 -0.128906 399.617 -4.52734 c 0
 416.369 -7.9248 429.195 8.00684 436.975 20.9434 c 0
 456.994 54.2422 468.328 93.3936 482.408 129.552 c 0
 543.035 285.23 598.66 468.591 663.668 622.5 c 1
EndSplineSet
EndChar

StartChar: X
Encoding: 88 88 57
Width: 809
GlyphClass: 2
Flags: HMW
HStem: -1.5 0.5<12.0186 264.983 12.0186 12.0186> 324.5 0.5<358.286 359.695 358.286 358.286> 511 21G<450 452 450 450> 787.592 0.5<217 217> 796 0.5<390 390> 799 0.5<520.017 772.98 520.017 773>
VStem: 11.5 0.5<-1 0 -1 0.295898 -1 0.295898>
LayerCount: 2
Fore
SplineSet
33 799 m 1
 61.7012 773.843 91.2676 749.798 115.394 719.985 c 0
 141.132 688.181 161.126 652.109 181.898 617 c 0
 208.598 571.872 235.53 526.877 262.651 482 c 0
 287.994 440.065 331.888 388.043 326.717 336 c 0
 322.536 293.922 291.705 256.866 268.986 223 c 0
 231.48 167.094 191.166 112.259 136.997 71.2402 c 0
 98.584 42.1523 54.0137 23.0957 12 0 c 1
 12 -1 l 1
 96.5312 2.1709 180.468 1.74219 265 -1 c 1
 248.977 21.2324 231.306 44.7178 229.042 73 c 0
 226.307 107.184 245.166 139.477 261.608 168 c 0
 292.284 221.217 326.923 272.021 358 325 c 1
 360 325 l 1
 389.952 267.13 423.336 211.133 458.034 156 c 0
 474.384 130.021 498.965 98.7246 494.194 66.0146 c 0
 489.874 36.3916 462.683 16.4902 441 -1 c 1
 560.85 8.40137 679.152 7.96094 799 -1 c 1
 770.188 24.6201 740.36 48.9346 715.968 79.0273 c 0
 687.256 114.448 665.354 154.875 642.226 194 c 0
 611.401 246.149 580.169 298.057 549 350 c 0
 532.922 376.794 516.16 403.332 501.608 431 c 0
 489.406 454.201 479.164 479.304 483.504 506 c 0
 489.582 543.39 515.854 576.114 537.389 606 c 0
 572.472 654.688 611.63 701.619 661 736.467 c 0
 696.099 761.242 735.999 777.474 773 799 c 1
 688.484 795.706 604.519 796.134 520 799 c 1
 535.289 777.576 552.165 754.975 555.152 728 c 0
 558.393 698.73 544.91 670.266 531.762 645 c 0
 507.761 598.882 478.283 555.809 452 511 c 1
 450 511 l 1
 424.263 560.189 395.372 607.502 366.685 655 c 0
 352.577 678.359 333.384 706.188 338.729 734.974 c 0
 343.847 762.54 368.775 780.59 390 796 c 1
 332.255 797.074 274.733 788.494 217 787.592 c 0
 155.491 786.629 94.1729 793.635 33 799 c 1
EndSplineSet
EndChar

StartChar: Y
Encoding: 89 89 58
Width: 849
GlyphClass: 2
Flags: HMW
HStem: -0.5 0.5<215.017 572.983 215.017 215.017> 788.216 0.5<206 206> 796 0.5<367 367> 799 0.5<585.017 837.981 585.017 838>
VStem: 10.5 0.5<798 799 798 799.549> 306.058 0.5<146 146> 306.533 0.5<243 243> 480.974 0.5<245 245> 481.365 0.5<147 147>
LayerCount: 2
Fore
SplineSet
11 799 m 1xf9
 11 798 l 1
 40.5117 773.461 69.8076 748.613 94.3799 718.962 c 0
 132.978 672.387 161.732 618.562 192.913 567 c 0
 228.294 508.492 277.068 453.373 297.047 387 c 0
 311.142 340.177 307.23 291.188 307.033 243 c 0xfb
 306.901 210.681 307.601 178.307 306.558 146 c 0
 305.606 116.509 302.666 86.4424 285.902 61.2334 c 0
 268.304 34.7676 240.57 17.8066 215 0 c 1
 334.599 3.9375 453.401 3.9375 573 0 c 1
 547.36 17.7646 519.56 34.7178 501.93 61.209 c 0
 484.989 86.665 482.222 117.231 481.365 147 c 0xfc80
 480.424 179.643 481.083 212.347 480.974 245 c 0
 480.791 299.972 474.245 357.253 488.858 411 c 0
 501.183 456.331 529.472 495.062 554.611 534 c 0
 599.175 603.028 643.862 674.076 710.001 724.781 c 0
 749.414 754.997 795.627 773.628 838 799 c 1
 753.481 795.928 669.521 796.169 585 799 c 1
 601.439 776.19 619.42 752.122 621.142 723 c 0
 623.402 684.771 600.18 649.314 581.222 618 c 0
 546.409 560.499 509.157 504.497 476 446 c 1
 474 446 l 1
 438.991 509.811 399.867 571.387 359.618 632 c 0
 341.152 659.81 311.699 693.312 314.189 728.984 c 0
 316.337 759.76 343.944 779.745 367 796 c 1
 313.232 797.029 259.73 789.226 206 788.216 c 4
 140.622 786.988 76.0088 792.953 11 799 c 1xf9
EndSplineSet
EndChar

StartChar: Z
Encoding: 90 90 59
Width: 808
GlyphClass: 2
Flags: HMW
HStem: -1.5 0.5<10 488 10 488> 280 0.5<720 721 720 720> 787.696 0.5<619 619> 798 0.5<779 779>
LayerCount: 2
Fore
SplineSet
76 567 m 5
 167.856 649.03 251.801 742.186 377 770.381 c 4
 424.485 781.075 472.746 779.013 521 777 c 5
 419.102 627.316 331.184 468.478 238.614 313 c 4
 212.761 269.577 186.607 226.331 160.599 183 c 4
 139.73 148.231 119.426 112.661 93.9023 81.0215 c 4
 69.1914 50.3896 38.9688 25.3936 10 -1 c 5
 488 -1 l 6
 524.326 -1 560.677 -1.38574 597 -0.889648 c 4
 621.555 -0.554688 647.517 1.10645 666.179 19.1279 c 4
 688.968 41.1357 690.989 75.4805 695.22 105 c 4
 703.587 163.368 713.027 221.575 721 280 c 5
 720 280 l 5
 696.086 240.667 677.244 197.835 649.412 161.006 c 4
 601.993 98.2588 533.312 54.2441 458 32.917 c 4
 425.814 23.8018 388.136 14.4824 355.076 24.3066 c 4
 334.763 30.3447 316.036 45.9668 313.627 68.1016 c 4
 310.909 93.0811 327.377 117.555 339.521 138 c 4
 365.198 181.225 391.613 224.016 417.691 267 c 4
 470.004 353.228 522.583 439.319 574.143 526 c 4
 609.271 585.058 640.139 647.606 682.494 702 c 4
 710.523 737.996 744.492 768.398 779 798 c 5
 725.517 796.483 672.624 786.828 619 787.696 c 4
 566.188 788.552 513.736 795.676 461 798.018 c 4
 418.971 799.884 376.899 797.735 335 794.31 c 4
 304.95 791.853 274.865 788.916 245 784.744 c 4
 217.377 780.886 189.227 775.429 166.678 757.896 c 4
 139.987 737.143 126.999 705.614 115.184 675 c 4
 101.396 639.271 88.1543 603.318 76 567 c 5
EndSplineSet
EndChar

StartChar: bracketleft
Encoding: 91 91 60
Width: 359
GlyphClass: 2
Flags: HMW
HStem: -150.5 0.5<60 320 60 320.5> 800 0.5<59.5 103.237>
VStem: 59.5 0.5<-150 800 -150 800.5> 201.704 0.5<618 618> 202 0.5<139.333 525 161 525> 320 0.5<-150 -149 -150 -150>
LayerCount: 2
Fore
SplineSet
60 800 m 5
 146.475 800 233.615 803.085 320 799 c 5
 276.519 776.271 226.118 757.878 209.307 706.991 c 4
 199.877 678.448 201.165 647.637 201.704 618 c 4xf4
 202.267 587.008 202 555.996 202 525 c 6
 202 161 l 6
 202 117.667 201.954 74.333 202.008 31 c 4
 202.045 0.598633 200.663 -31.9375 211.09 -60.9805 c 4
 228.455 -109.342 278.216 -127.042 320 -149 c 5
 320 -150 l 5
 60 -150 l 5
 60 800 l 5
EndSplineSet
EndChar

StartChar: backslash
Encoding: 92 92 61
Width: 295
GlyphClass: 2
Flags: HMW
HStem: -2.14746 21G<285.831 285.831>
VStem: 10.5166 274.966
LayerCount: 2
Fore
SplineSet
11 740 m 1
 58.5166 561.94 121.18 388.005 178.607 213 c 0
 188.325 183.383 197.91 153.719 207.312 124 c 0
 217.195 92.7588 225.158 58.79 245.838 32.582 c 0
 256.701 18.8145 270.477 8.58105 285 -1 c 1
 236.311 177.445 174.495 352.143 117.424 528 c 0
 107.7 557.964 98.1299 587.979 88.5859 618 c 0
 78.7432 648.961 70.6553 682.65 49.6123 708.264 c 0
 38.8193 721.402 25.2871 731.035 11 740 c 1
EndSplineSet
EndChar

StartChar: bracketright
Encoding: 93 93 62
Width: 359
GlyphClass: 2
Flags: HMW
HStem: -150.5 0.5<60 319 60 319.5> 800 0.5<59 59 59 319>
VStem: 58.5 0.5<799 800 799 800.5> 59.5 0.5<-150 -149 -150 -148.698 -150 -148.698> 177.493 0.506836 178.493 140.007<21 21> 319 0.5<-150 800 800 800>
LayerCount: 2
Fore
SplineSet
59.5 799.5 m 5
 318.5 799.5 l 5
 318.5 -149.5 l 5
 60.5 -149.5 l 5
 60.5 -149.302 l 5
 103.299 -126.828 153.729 -108.471 170.658 -58.1455 c 4
 179.211 -32.7236 178.463 -5.35059 178.493 21 c 6
 178.496 619 l 6
 178.474 649.074 180.001 681.206 169.854 710.148 c 4
 152.592 759.383 101.839 778.139 59.5 799.309 c 4
 59.5 800.309 59.5 798.5 59.5 799.5 c 5
EndSplineSet
EndChar

StartChar: asciicircum
Encoding: 94 94 63
Width: 516
GlyphClass: 2
Flags: HMW
HStem: 615.524 0.5<259 259> 616.524 94.749<260 260> 711.773 0.5<259 259>
CounterMasks: 1 e0
LayerCount: 2
Fore
SplineSet
87 565 m 5
 115.254 572.122 142.851 580.591 170 591.209 c 4
 198.92 602.52 228.322 616.11 260 616.024 c 4
 291.699 615.938 321.078 602.201 350 590.828 c 4
 376.794 580.291 404.089 572.001 432 565 c 5
 401.242 604.305 369.559 644.19 331.94 677.232 c 4
 311.577 695.117 287.213 711.968 259 711.773 c 4
 231.157 711.581 207.183 694.922 187.061 677.237 c 4
 149.455 644.188 117.758 604.301 87 565 c 5
EndSplineSet
EndChar

StartChar: grave
Encoding: 96 96 65
Width: 516
GlyphClass: 2
Flags: HMW
HStem: 564.5 0.5<342 342>
VStem: 136.345 205.964
LayerCount: 2
Fore
SplineSet
342 565 m 5
 316.167 585.266 290.02 605.447 270.365 632.093 c 4
 251.195 658.084 237.13 694.18 204.855 706.755 c 4
 174.939 718.411 141.523 695.826 136.839 664.926 c 4
 134.17 647.321 141.698 630.227 152.495 616.695 c 4
 197.006 560.907 277.826 565.006 342 565 c 5
EndSplineSet
EndChar

StartChar: a
Encoding: 97 97 66
Width: 514
GlyphClass: 2
Flags: HMW
VStem: 305.322 0.5<172 172> 306.322 133.142 439.964 0.5<179 179>
CounterMasks: 1 e0
LayerCount: 2
Fore
SplineSet
307.734 60.4238 m 4
 257.959 29.166 206.611 -8.73242 145.027 -5.41309 c 4
 126.221 -4.39941 108.384 1.29297 92.8389 10.3535 c 4
 46.1123 37.5918 20.1875 95.1982 50.7969 147.702 c 4
 79.6924 197.266 134.935 223.78 186.188 244.597 c 4
 221.936 259.114 261.773 271.593 285.81 304.256 c 4
 312.576 340.627 317.185 409.648 290.504 447.318 c 4
 287.239 451.928 283.666 455.811 279.864 459.007 c 4
 254.887 480.001 220.253 471.205 198.354 445.099 c 4
 162.744 402.646 180.209 340.916 147.327 298.002 c 4
 140.12 288.597 130.777 280.896 120.527 275.568 c 4
 93.0146 261.271 59.1055 264.087 42.1787 296.726 c 4
 18.2275 342.904 64.7617 393.199 96.4844 422.112 c 4
 109.861 434.303 124.166 445.48 139.275 455.441 c 4
 208.335 500.967 323.291 535.371 392.391 472.064 c 4
 436.954 431.24 439.346 368.563 439.483 311.999 c 4
 439.592 267.668 439.653 223.331 439.464 179.002 c 4
 439.281 136.25 433.234 85.4453 469.951 54.3535 c 4
 479.504 46.2637 490.782 40.8232 501.963 35.9092 c 5
 452.577 3.04883 387.688 -24.6035 337.629 21.5723 c 4
 325.592 32.6787 316.733 46.1934 308.431 60.2539 c 6
 308.169 60.6963 l 6
 308.024 60.6055 307.879 60.5146 307.734 60.4238 c 4
302 273 m 5
 247.827 249.382 193.896 221.303 174.428 161 c 4
 161.605 121.282 171.716 61.4736 220.097 51.5283 c 4
 251.761 45.0186 280.707 71.541 293.452 98.085 c 4
 304.425 120.938 305.404 147.099 305.822 172 c 4
 306.387 205.696 305.67 239.484 302 273 c 5
EndSplineSet
EndChar

StartChar: b
Encoding: 98 98 67
Width: 617
GlyphClass: 2
Flags: HMW
HStem: -4.9209 21G<104.736 104.736> 779.691 20G<231.498 231.498>
VStem: 8.5 0.5<736 738 736 738.4 736 738.4> 94.5 0.5<146.279 227.171 146.261 227.172> 95.5117 0.5<483 483> 232 0.5<229 229>
LayerCount: 2
Fore
SplineSet
9 738 m 1
 9 736 l 1
 30.7197 721.464 51.8418 705.879 67.6689 684.765 c 0
 110.31 627.882 96.123 549.249 96.0117 483 c 0
 95.8389 380.663 95 278.342 95 176 c 0
 95 116.521 88.9932 53.8535 105 -4 c 1
 120.535 10.2568 137.007 25.8887 158.006 31.3057 c 4
 182.854 37.7148 207.514 26.6875 230 17.1875 c 0
 255.874 6.25293 281.96 -3.83887 310 -7.44629 c 0
 406.956 -19.9199 501.38 38.5322 548.996 121.001 c 0
 591.977 195.441 601.831 292.412 570.655 373 c 0
 532.8 470.85 419.363 536.396 317 497.317 c 0
 283.86 484.665 257.529 460.87 232 437 c 1
 231 799 l 1
 125 763.86 l 1
 9 738 l 1
309.012 447.05 m 0
 358.693 453.156 396.503 403.573 415.302 364 c 0
 451.907 286.943 455.116 188.199 426.736 108 c 0
 413.061 69.3574 384.278 26.875 339.998 21.9785 c 0
 295.504 17.0566 259.5 55.5068 245.209 94.0029 c 0
 229.37 136.667 232.002 184.267 232 229 c 0
 231.998 272.733 229.271 317.816 237.505 361 c 0
 244.689 398.673 266.593 441.836 309.012 447.05 c 0
EndSplineSet
EndChar

StartChar: c
Encoding: 99 99 68
Width: 532
GlyphClass: 2
Flags: HMW
VStem: 175.866 0.5<328 328> 355.771 112.374
LayerCount: 2
Fore
SplineSet
509 161 m 1
 466.497 131.461 422.757 97.4844 369 94.4141 c 0
 248.893 87.5547 172.332 221.221 175.866 328 c 0
 177.414 374.774 193.705 422.74 228.994 454.852 c 0
 246.141 470.455 269.153 482.77 292.962 477.695 c 0
 300.614 476.064 307.845 472.772 314.31 468.394 c 0
 362.378 435.837 343.883 375.849 355.285 328.006 c 4
 361.791 300.711 381.555 272.469 411.043 267.771 c 0
 418.309 266.613 425.781 267.146 432.819 269.287 c 0
 481.275 284.029 482.699 345.647 468.616 385 c 0
 462.688 401.567 453.782 416.978 442.925 430.796 c 0
 376.879 514.862 253.897 524.031 165.001 472.511 c 0
 64.8877 414.49 13.9131 288.404 44.3379 177 c 0
 81.1904 42.0605 245.137 -51.6973 377 9.31738 c 0
 441.068 38.9619 480.542 98.8857 509 161 c 1
EndSplineSet
EndChar

StartChar: d
Encoding: 100 100 69
Width: 593
GlyphClass: 2
Flags: HMW
HStem: 504.417 0.5<269 269> 779.66 20G<522.5 522.5>
VStem: 382.938 0.5<577 577> 383.506 0.5<270 270> 522 0.5<291 799 799 799> 582 0.5<42 43 43 43>
LayerCount: 2
Fore
SplineSet
300.014 733.887 m 1
 334.64 748.434 372.08 751.107 408.129 760.704 c 0
 446.629 770.953 483.488 787.592 521.5 798.34 c 1
 521.5 291 l 2
 521.5 256.671 521.285 222.331 521.574 187.996 c 0
 521.813 159.834 522.174 130.2 533.629 103.81 c 0
 544.139 79.6006 563.035 60.79 581.5 42.7891 c 1
 581.5 42.3975 l 1
 549.884 35.1104 518.44 29.1396 486.894 22.2451 c 0
 455.455 15.375 410.83 -0.213867 392.149 35.9912 c 0
 388.114 43.8115 386.265 52.4658 384.49 61.1006 c 2
 384.314 61.9551 l 1
 383.666 61.3721 l 2
 357.029 37.4121 329.938 13.585 295.83 1.29297 c 0
 190.101 -36.8125 75.8672 36.7969 43.1572 139.152 c 0
 34.1523 167.328 30.1738 197.779 30.8096 228.659 c 0
 33.5889 363.807 124.682 506.903 268.989 503.917 c 0
 311.073 503.046 348.09 485.699 383.745 464.57 c 2
 384.5 464.122 l 1
 384.5 465 l 2
 384.5 502.634 385.25 540.376 383.938 578.018 c 0
 382.851 609.199 380.144 641.347 364.503 669.202 c 0
 349.22 696.416 324.768 716.065 300.014 733.887 c 1
276.955 474.847 m 0
 231.916 470.635 202.424 428.17 188.515 389.168 c 0
 159.96 309.111 164.246 210.443 201.169 133.783 c 0
 219.89 94.9131 257.029 46.4971 306.041 51.3457 c 0
 349.426 55.6387 372.328 99.8652 379.561 137.906 c 0
 387.815 181.343 384.55 226.182 384.506 270 c 0
 384.462 313.679 387.479 360.266 372.188 402.17 c 0
 357.971 441.128 321.797 479.04 276.955 474.847 c 0
EndSplineSet
EndChar

StartChar: e
Encoding: 101 101 70
Width: 543
GlyphClass: 2
Flags: HMW
HStem: 93.5176 0.5<358 358> 286.5 0.5<174.698 510 174 510.605 174.698 174.698> 287.5 17<173.303 376.504 171.453 509.395 173.303 173.303>
VStem: 375.496 0.503906<305 305.5>
LayerCount: 2
Fore
SplineSet
509 161 m 1
 476.356 137.928 443.763 112.054 405 100.162 c 0
 389.802 95.5 373.907 93.1094 358 93.5176 c 0
 344.793 93.8584 331.649 96.0762 319 99.8652 c 0
 234.234 125.262 174 219.163 174 287 c 1
 510 287 l 1
 494.936 365.531 460.64 440.106 387.999 480.917 c 0
 239.506 564.344 55.7119 436.972 37.1182 279 c 0
 30.1699 219.964 42.4863 158.178 74.8867 108.01 c 0
 136.611 12.4395 266.668 -37.4326 374 7.5127 c 0
 440.949 35.5488 481.202 96.835 509 161 c 1
172 305 m 1
 172 345.163 180.752 403.495 213.615 441.309 c 0
 249.066 482.098 307.397 493.245 344.51 448.202 c 0
 352.874 438.049 359.144 426.346 363.596 413.995 c 0
 376.053 379.438 375.731 341.262 376 305 c 1
 172 305 l 1
EndSplineSet
EndChar

StartChar: f
Encoding: 102 102 71
Width: 364
GlyphClass: 2
Flags: HMW
HStem: -7.5 0.5<21.0215 272.979 21.0215 21.0215> 426.5 0.5<24 79.5> 473 0.5<216.435 312 216 313.076> 790.048 0.5<256 256>
VStem: 79.5 0.5<213 426.5 426.5 426.5> 213 0.5<217 426.518>
LayerCount: 2
Fore
SplineSet
24 427 m 5
 80 427 l 5
 80 213 l 6
 80 184.008 80.3486 154.988 79.793 126 c 4
 79.3203 101.39 78.1807 75.8076 67.9766 53.0039 c 4
 57.4766 29.54 38.625 11.1846 21 -7 c 5
 105.166 -3.45898 188.834 -3.45898 273 -7 c 5
 254.952 11.7969 235.743 30.8008 225.077 55.0039 c 4
 214.737 78.4648 213.638 104.737 213.189 130 c 4
 212.672 158.99 213 188.007 213 217 c 6
 213 427 l 5
 255.616 428.523 284.068 439.878 312 473 c 5
 216 473 l 5
 207.275 535.081 190.141 596.312 186.147 659 c 4
 184.896 678.639 182.127 712.945 202.647 724.479 c 4
 214.698 731.252 225.589 720.924 231.34 710.981 c 4
 242.121 692.345 245.914 670.566 263.829 656.634 c 4
 295.546 631.967 337.233 659.342 342.964 695.043 c 4
 350.685 743.136 302.569 790.03 256 790.048 c 4
 228.762 790.058 204.216 775.312 184.82 757.266 c 4
 138.02 713.721 117.618 650.843 94.8164 593 c 4
 72.7451 537.011 46.5469 482.788 24 427 c 5
EndSplineSet
EndChar

StartChar: g
Encoding: 103 103 72
Width: 516
GlyphClass: 2
Flags: HMW
HStem: -26.4688 1.58008 -25.9688 0.5<243 243> -25.9688 142.6 117.131 0.5<278 278> 541.622 105.101
VStem: 459.775 0.5<341 341>
LayerCount: 2
Fore
SplineSet
166 206 m 1
 120.803 174.19 56.6045 140.042 48.9805 79 c 0
 45.2842 49.4092 60.1143 21.5303 57.3496 -8 c 0
 54.1025 -42.6738 30.0791 -75.3584 53.5977 -108.258 c 0
 76.4707 -140.256 118.419 -150.253 155 -156.423 c 0
 213.623 -166.311 274.232 -167.602 333 -158.151 c 0
 366.857 -152.706 401.002 -143.551 429.915 -124.486 c 0
 490.552 -84.5039 525.545 1.33789 475.325 63.3486 c 0
 466.202 74.6133 455.134 84.29 442.876 92.0107 c 0
 394.383 122.556 332.938 119.051 278 117.131 c 0
 253.468 116.274 226.176 112.849 202.409 120.53 c 0
 191.671 124 179.873 131.443 178.869 143.822 c 0
 177.779 157.249 189.35 168.42 199.656 175.104 c 0
 224.656 191.315 256.454 191.755 285 196.136 c 0
 361.932 207.945 458.274 250.328 459.775 341 c 0
 459.982 353.501 458.229 366.005 454.719 378 c 0
 450.208 393.413 442.823 407.866 433.539 420.94 c 0
 417.463 443.58 396.064 462.609 371.997 476.399 c 0
 339.966 494.753 303.954 502.539 268 509 c 1
 285.481 521.358 303.124 532.251 325.001 533.824 c 0
 353.801 535.896 383.623 525.971 410.387 541.188 c 0
 447.304 562.179 451.923 612.19 417.716 638.146 c 0
 399.666 651.844 376.218 653.852 355.001 647.2 c 0
 294.9 628.359 276.718 563.524 232.242 526.146 c 0
 210.138 507.571 182.802 499.072 157 487.179 c 0
 135.297 477.175 115.081 464.248 97.8262 447.63 c 0
 85.1729 435.442 74.1152 421.483 65.7725 405.994 c 0
 59.5205 394.387 54.8271 381.924 52.1758 369 c 0
 36.1172 290.719 102.079 235.373 166 206 c 1
171.963 -23.8906 m 0
 195.564 -22.124 219.499 -24.5098 243.021 -25.4688 c 4x5c
 278.334 -26.9082 316.965 -26.9482 349.029 -44.3242 c 0
 355.963 -48.082 362.507 -52.6855 368.093 -58.3018 c 0
 372.193 -62.4229 375.81 -67.1143 378.375 -72.3779 c 0
 386.805 -89.666 379.41 -107.515 365.641 -119.287 c 0
 347.021 -135.203 321.496 -139.568 298.052 -142.021 c 0
 245.992 -147.469 182.213 -150.992 136.07 -121.261 c 0
 128.963 -116.681 122.349 -111.215 116.851 -104.746 c 0
 112.834 -100.02 109.389 -94.7246 107.102 -88.916 c 0
 105.375 -84.5332 104.41 -80.3555 104.107 -76.3877 c 0
 101.61 -43.7236 143.712 -26.0059 171.963 -23.8906 c 0
251.073 469.845 m 0
 279.01 472.337 297 442.71 304.754 419.984 c 0
 320.068 375.103 320.133 319.513 303.303 275.032 c 0
 295.722 254.995 280.493 231.229 256.941 229.149 c 0
 228.698 226.657 211.375 257.196 203.845 280.014 c 0
 189.096 324.705 188.087 380.733 205.054 424.962 c 0
 212.648 444.757 227.871 467.775 251.073 469.845 c 0
EndSplineSet
EndChar

StartChar: h
Encoding: 104 104 73
Width: 614
GlyphClass: 2
Flags: HMW
HStem: -1.5 0.5<38.0205 289.982 38.0205 38.0205 347 601>
VStem: 96.5059 0.5<221 221> 231 0.5<424.942 798 798 798> 346.5 0.5<-1 0 -1 0.216797 -1 0.216797> 404.561 2.48145 406.542 0.5<163 163> 541 0.5<301 317.479 279.502 317.486> 601 0.5<-1 0 0 0>
LayerCount: 2
Fore
SplineSet
10.6279 735.15 m 1
 13.1553 739.925 19.7842 739.847 25.0977 740.91 c 2
 66.0977 749.109 l 2
 86.4336 753.177 108.312 755.532 128.153 761.917 c 0
 162.288 772.9 196.046 788.772 230.5 797.361 c 1
 230.5 423.058 l 1
 231.28 423.586 l 2
 262.998 445.061 295.305 465.869 330.207 481.766 c 0
 351.191 491.324 373.245 499.144 396.075 502.623 c 0
 465.914 513.265 520.257 467.248 534.77 399.895 c 0
 541.739 367.545 540.5 333.985 540.5 301 c 0
 540.5 258.001 540.755 214.995 540.427 172.004 c 0
 540.212 143.83 537.636 114.836 543.365 86.8994 c 0
 550.743 50.9209 575.343 24.6035 600.5 -0.208984 c 0
 600.5 -1.20898 600.5 0.5 600.5 -0.5 c 1
 347.5 -0.5 l 1
 347.5 -0.216797 l 1
 367.8 18.8193 388.316 38.502 398.802 64.8164 c 0
 411.317 96.2295 407.701 131.166 407.542 164.002 c 0
 407.295 214.876 409.544 266.221 405.557 317.039 c 0
 402.02 362.132 387.677 429.852 331.022 433.862 c 0
 270.669 438.133 233.856 373.961 231.101 322.026 c 0
 228.419 271.51 230.746 220.531 230.447 170.003 c 0
 230.247 136.248 226.243 100.307 238.446 67.8252 c 0
 248.602 40.7949 269.432 19.8711 288.795 -0.458008 c 1
 205.256 2.38867 122.428 2.93555 39.2598 -0.448242 c 1
 57.1777 17.4443 75.6709 35.5098 86.542 58.7969 c 0
 109.33 107.613 97.5518 169.175 97.5059 221 c 0
 97.4355 299.666 97.4453 378.334 97.5049 457 c 0
 97.5479 513.812 105.992 574.225 91.8457 630.123 c 0
 80.2412 675.971 46.7969 707.601 10.6279 735.15 c 1
EndSplineSet
EndChar

StartChar: i
Encoding: 105 105 74
Width: 301
GlyphClass: 2
Flags: HMW
HStem: -1 0.546875 479.639 21G 593.522 152.134
VStem: 96.5371 133.963 115.905 126.066 230.5 0.5<211.003 226 226 498.36 226 498.36 498.36 498.36>
LayerCount: 2
Fore
SplineSet
167.053 745.656 m 4
 176.06 746.521 185.211 745.396 193.756 742.422 c 4
 223.19 732.172 239.095 705.835 241.972 678.03 c 4
 245.974 639.369 224.788 598.105 179.937 593.522 c 4
 150.141 590.478 128.237 605.036 115.905 626.332 c 4xe8
 95.6455 661.317 101.35 714.342 140.66 737.103 c 4
 148.735 741.778 157.76 744.766 167.053 745.656 c 4
10.6328 435.159 m 1
 32.9521 418.965 55.0361 401.336 70.9727 378.225 c 0
 106.933 326.069 96.8066 257.435 96.5371 197.998 c 0
 96.3359 153.416 104.024 99.6533 84.6973 57.8047 c 0
 74.1289 34.9209 55.7422 17.1689 38.2471 -0.453125 c 1
 121.771 2.65332 204.939 2.7793 288.774 -0.452148 c 1
 271.322 17.5771 252.514 36.2246 242.171 59.8018 c 0
 231.697 83.6777 230.967 110.453 230.628 135.993 c 0
 230.231 165.994 230.5 196.007 230.5 226 c 2xf0
 230.5 498.36 l 1
 195.679 489.642 161.735 473.137 127.15 462.206 c 0
 107.556 456.014 86.166 453.324 66.0977 449.31 c 0
 52.4219 446.575 38.7842 443.646 25.0977 440.91 c 0
 19.7861 439.847 13.1504 439.917 10.6328 435.159 c 1
EndSplineSet
EndChar

StartChar: j
Encoding: 106 106 75
Width: 357
GlyphClass: 2
Flags: HMW
HStem: 479.639 21G 593.621 151.954
VStem: 116.542 125.331 136.984 0.5<250 250> 137.484 133.568 270.553 0.5<189 189>
LayerCount: 2
Fore
SplineSet
166.008 746.073 m 0
 156.622 745.022 147.547 741.842 139.46 736.982 c 0
 76.3857 699.084 101.687 583.785 180.985 593.125 c 0
 258.463 602.251 264.336 719.608 192.931 743.236 c 0
 184.286 746.097 175.06 747.085 166.008 746.073 c 0
50 435 m 5
 52.458 440.44 59.7109 440.342 65 441.4 c 6
 106 449.6 l 6
 126.014 453.603 147.578 456.143 167 462.392 c 4
 201.732 473.568 235.589 490.232 271 499 c 5
 271 396.005 270.44 292.993 271.053 190 c 4xc8
 271.519 111.689 275.831 30.1074 245.722 -44 c 4
 229.22 -84.6172 201.387 -124.41 160.987 -144 c 4
 108.381 -169.509 38.6895 -143.621 22.6826 -84.9922 c 4
 13.291 -50.5938 33.7939 -0.605469 75.9014 -5.25879 c 4
 111.119 -9.15137 118.257 -45.1826 131.675 -71.2148 c 4
 137.116 -81.7715 148.319 -94.3691 161.067 -86.2061 c 4
 174.701 -77.4746 175.663 -57.3428 174.149 -42.9922 c 4
 170.325 -6.74707 152.258 26.5215 144.721 62 c 4
 131.887 122.414 137.127 188.529 136.984 250 c 4
 136.896 287.936 137.446 328.307 119.835 362.985 c 4
 104.274 393.626 77.3242 415.292 50 435 c 5
EndSplineSet
EndChar

StartChar: k
Encoding: 107 107 76
Width: 666
GlyphClass: 2
Flags: HMW
HStem: -1.5 0.5<59.0215 309.982 403.02 656.982 403.02 403.02> 502 0.5<363.017 615.983 363.017 616>
VStem: 58.5 0.5<-1 0 -1 0.209961 -1 0.209961> 116.527 0.5<218 218> 251 0.5<242.986 798 798 798> 415.464 0.5<45 45>
LayerCount: 2
Fore
SplineSet
30.6279 735.15 m 1
 33.1553 739.925 39.7842 739.847 45.0977 740.91 c 2
 86.0977 749.109 l 2
 106.089 753.107 127.646 755.393 147.153 761.661 c 0
 181.619 772.735 215.711 788.692 250.5 797.361 c 1
 250.5 241.014 l 2
 250.766 241.208 251.03 241.402 251.296 241.597 c 0
 296.016 274.36 341.519 308.744 376.059 352.707 c 0
 392.97 374.233 408.419 400.428 404.486 429.068 c 0
 400.64 457.084 380.746 480.318 364.059 501.465 c 1
 447.826 498.715 530.782 498.652 614.283 501.441 c 1
 565.307 468.393 513.342 441.07 467.709 403.241 c 0
 447.767 386.71 424.01 367.037 416.023 341.139 c 0
 403.617 300.91 442.417 262.446 464.069 233.699 c 0
 500.236 185.686 534.396 136.147 572.66 89.6816 c 0
 598.716 58.0459 627.336 28.7979 655.775 -0.458008 c 1
 571.438 2.41602 487.749 2.84473 403.771 -0.46875 c 1
 409.965 14.0547 416.212 28.9092 416.464 45.001 c 0
 417.106 86.2051 381.062 121.16 358.007 151.304 c 0
 333.43 183.437 310.127 216.512 286.405 249.293 c 2
 285.955 249.915 l 2
 285.826 249.694 285.697 249.473 285.568 249.252 c 0
 253.433 194.182 235.003 121.407 263.046 59.7939 c 0
 273.604 36.5977 291.862 17.9053 308.82 -0.458008 c 1
 225.096 2.4873 143.156 3.09375 59.2139 -0.490234 c 1
 77.6943 17.6455 95.1201 34.8174 106.082 57.7871 c 0
 129.484 106.821 117.71 166.951 117.527 219.002 c 0
 117.244 299.33 117.36 379.669 117.513 459.999 c 0
 117.62 515.944 125.797 575.049 111.847 630.123 c 0
 100.234 675.971 66.8008 707.598 30.6279 735.15 c 1
EndSplineSet
EndChar

StartChar: l
Encoding: 108 108 77
Width: 301
GlyphClass: 2
Flags: HMW
HStem: -1.5 0.5<37.0156 290.983 37.0156 37.0156>
VStem: 95.375 0.5<140 140> 96.5098 0.5<455 455> 231 0.5<252 798 798 798> 291 0.5<-1 0 0 0>
LayerCount: 2
Fore
SplineSet
10 734 m 1
 46.1416 705.828 79.9365 673.823 91.8291 628 c 0
 106.253 572.422 97.0996 511.715 97.0098 455 c 0
 96.8916 380.666 96 306.341 96 232 c 0
 96 201.338 96.2676 170.66 95.875 140 c 0
 95.5439 114.173 94.9297 87.1777 84.8184 63.001 c 0
 74.4209 38.1396 55.0107 18.4902 37 -1 c 1
 121.869 1.68457 206.132 1.87793 291 -1 c 1
 291 0 l 1
 271.707 18.1582 251.947 37.1426 241.473 62.0029 c 0
 230.629 87.7383 231.1 116.575 231.02 144 c 0
 230.915 180 231 216 231 252 c 2
 231 798 l 1
 193.824 787.441 158.409 771.392 121 761.726 c 0
 84.0439 752.177 45.2441 749.38 10 734 c 1
EndSplineSet
EndChar

StartChar: m
Encoding: 109 109 78
Width: 928
GlyphClass: 2
Flags: HMW
HStem: -1.5 0.5<41.0146 292.984 350.016 602.984 350.016 350.016 661.016 912.984> 432.181 0.5<330 330>
VStem: 99.4639 0.5<138 138> 234 0.5<421.976 498 498 498> 406.444 2.56934 408.514 0.5<164 164> 543.934 0.5<172 172> 717.57 2.47168 719.542 0.5<164 164> 853.959 0.5<170 170>
LayerCount: 2
Fore
SplineSet
537 416 m 1
 527.317 435.299 516.759 454.035 501.331 469.407 c 0
 434.824 535.673 335.468 488.335 270.039 445.924 c 0
 257.776 437.976 245.859 429.534 234 421 c 1
 234 498 l 1
 199.327 489.45 166.071 473.452 132 462.683 c 0
 111.832 456.309 89.7422 453.625 69 449.476 c 0
 55.3291 446.742 41.6455 444.091 28 441.224 c 0
 22.6826 440.106 15.499 440.53 13 435 c 1
 40.3555 414.982 67.5059 392.91 82.9883 361.994 c 0
 103.09 321.852 99.9971 274.596 100 231 c 0
 100.002 200.001 100.114 168.999 99.9639 138 c 0
 99.8379 111.806 99.8086 84.4541 89.1455 60.0107 c 0
 78.6348 35.917 59.2207 17.3418 41 -1 c 1
 125.195 1.42188 208.807 1.63477 293 -1 c 1
 273.114 19.6543 251.897 40.6211 241.616 68.001 c 0
 229.5 100.266 233.512 136.274 233.881 170 c 0
 234.419 219.261 232.219 268.785 234.559 318 c 0
 237.037 370.109 270.363 434.43 330.992 432.681 c 0
 387.872 431.04 403.266 363.078 406.942 318 c 0
 411.081 267.254 408.918 215.87 409.014 165 c 0xf6c0
 409.077 131.89 412.367 96.4766 399.968 65.001 c 0
 389.672 38.8672 369.166 18.8145 350 -1 c 1
 434.522 1.61914 518.479 1.64453 603 -1 c 1
 583.411 19.4033 562.387 40.0889 552.036 67.001 c 0
 539.297 100.123 543.69 137.314 543.934 172 c 0
 544.281 221.224 540.95 270.844 543.67 320 c 0
 546.546 371.976 582.316 434.815 641.992 432.621 c 0
 699.244 430.516 714.45 362.521 718.068 317 c 0
 722.076 266.564 719.795 215.552 720.042 165 c 0
 720.202 132.141 723.874 97.3506 711.786 66.001 c 0
 701.519 39.373 680.513 19.0488 661 -1 c 1
 745.191 1.60938 828.809 1.63477 913 -1 c 1
 888.932 25.6377 864.447 52.7334 857.108 89 c 0
 851.73 115.571 853.831 143.081 853.959 170 c 0
 854.164 212.998 854.003 256.001 854 299 c 0
 853.998 332.644 855.198 366.986 847.605 400 c 0
 837.348 444.6 807.16 487.974 760.998 500.07 c 0
 742.381 504.948 722.811 504.333 704 500.921 c 0
 679.979 496.562 656.92 487.799 635 477.207 c 0
 600.188 460.384 568.155 438.75 537 416 c 1
EndSplineSet
EndChar

StartChar: n
Encoding: 110 110 79
Width: 617
GlyphClass: 2
Flags: HMW
HStem: -1.5 0.5<292.979 292.979 350.019 602.981> 434.326 0.5<329 329>
VStem: 98.5371 0.5<199 199> 99.5371 134.644 234 0.5<424.955 424.955 424.955 498 498 498> 406.489 2.52539 408.515 0.5<165 165> 543.164 0.5<283 283> 543.947 0.5<173 173>
LayerCount: 2
Fore
SplineSet
234.285 423.589 m 2
 265.235 445.062 296.933 465.529 331.209 481.271 c 0
 352.518 491.058 374.859 499.01 398.076 502.565 c 0
 415.912 505.297 434.396 505.418 451.867 500.676 c 0
 497.826 488.197 526.826 444.406 536.744 399.892 c 0
 545.269 361.634 543.123 321.991 542.664 283.006 c 0
 542.234 246.324 543.662 209.661 543.447 173.003 c 0
 543.285 145.118 540.973 116.548 546.579 88.9004 c 0
 553.895 52.8125 578.006 25.875 601.833 -0.456055 c 1
 517.848 2.66309 434.836 2.65137 351.226 -0.454102 c 1
 370.233 19.1367 390.262 38.9424 400.455 64.8174 c 0
 413.035 96.751 409.583 132.613 409.515 166.001 c 0
 409.411 217.179 411.662 268.932 407.485 320.041 c 0
 403.766 365.557 387.983 434.115 330.005 435.326 c 0
 269.59 436.588 237.583 371.412 234.181 320.033 c 0
 230.92 270.769 233.942 221.272 233.369 172.006 c 0
 232.966 137.396 228.626 100.036 241.473 66.8203 c 0
 251.781 40.1699 272.479 19.5068 291.771 -0.448242 c 1
 207.827 3.05957 124.887 3.32812 41.2412 -0.443359 c 1
 59.0596 17.8135 77.9844 36.1963 88.6504 59.7969 c 0
 107.407 101.305 99.3379 154.88 99.5371 198.998 c 0xf180
 99.8057 258.209 109.929 326.325 73.9727 378.212 c 0
 57.9883 401.277 35.8545 418.847 13.6309 435.157 c 1
 16.1904 439.994 22.7344 439.603 28.1035 440.734 c 0
 41.7422 443.609 55.4268 446.23 69.0986 448.985 c 0
 89.5371 453.104 111.122 455.774 131.146 461.891 c 0
 165.56 472.402 199.027 488.391 233.5 497.354 c 1
 233.5 423.045 l 1
 234.285 423.589 l 2
EndSplineSet
EndChar

StartChar: o
Encoding: 111 111 80
Width: 594
GlyphClass: 2
Flags: HMW
VStem: 191 0.5<225.944 274.402> 401.5 0.5<226.436 274.885 226.436 274.895>
LayerCount: 2
Fore
SplineSet
272.039 505.338 m 4
 339.894 510.645 409.112 492.97 462.609 449.984 c 4
 571.221 362.713 593.527 194.476 502.863 86.4199 c 4
 481.38 60.8174 455.155 38.9727 425.762 23.0254 c 4
 393.191 5.35547 356.861 -4.70508 319.961 -7.56738 c 4
 253.011 -12.7598 184.244 4.79785 131.376 47.0195 c 4
 22.3428 134.094 -1.48828 303.319 89.9766 411.564 c 4
 111.766 437.351 138.437 459.092 168.235 474.972 c 4
 200.262 492.041 235.853 502.509 272.039 505.338 c 4
284.002 481.199 m 4
 242.308 474.378 214.403 434.925 202.864 397 c 4
 188.487 349.743 191 298.804 191 250 c 4
 191 201.889 188.493 151.625 202.486 105 c 4
 216.118 59.5801 255.225 10.6729 307.996 18.9326 c 4
 350.039 25.5137 378.131 64.8496 389.88 103 c 4
 404.517 150.531 402 201.872 402 251 c 4
 402 298.77 404.453 348.71 390.552 395 c 4
 376.803 440.786 337.144 489.893 284.002 481.199 c 4
EndSplineSet
EndChar

StartChar: p
Encoding: 112 112 81
Width: 599
GlyphClass: 2
Flags: HMW
HStem: -162.5 0.5<36.0176 289.981>
VStem: 8.5 0.5<435 438 435 438.405 435 438.405> 35.5 0.5<-162 -161 -162 -160.784 -162 -160.784> 95.5469 0.5<11 11> 231 0.5<411.48 411.48 411.48 498 498 498>
LayerCount: 2
Fore
SplineSet
124.104 461.958 m 1
 230.5 497.307 l 1
 230.5 408.519 l 1
 231.397 409.697 l 2
 256.045 442.058 282.47 474.489 320.208 491.728 c 0
 401.945 529.068 497.781 482.331 538.327 406.763 c 0
 554.934 375.812 563.103 340.827 565.928 305.96 c 0
 576.528 175.102 503.152 15.8877 360.928 -4.78711 c 0
 315.393 -11.4043 272.471 2.13281 231.203 20.457 c 4
 230.975 20.5586 230.746 20.6602 230.518 20.7607 c 2
 230.5 20.0117 l 2
 229.514 -21.4092 224.43 -66.7207 243.917 -105.218 c 0
 254.854 -126.825 272.312 -144.346 288.781 -161.454 c 1
 204.122 -158.311 121.167 -158.587 36.2061 -161.492 c 1
 57.3672 -141.579 77.5752 -122.107 88.0547 -95.1807 c 0
 101.238 -61.3066 96.7393 -23.3037 96.5469 12.0029 c 0
 96.2178 72.6602 96.3232 133.339 96.5264 193.998 c 0
 96.6943 244.264 104.276 298.803 86.1406 347.176 c 0
 71.8633 385.255 41.0771 411.861 9.5 435.252 c 1
 9.5 437.595 l 1
 124.104 461.958 l 1
300.976 433.189 m 0
 263.526 429.36 243.038 391.957 235.775 359.108 c 0
 225.449 312.396 230.223 263.274 230.458 215.997 c 0
 230.661 175.158 226.768 131.751 238.134 91.8643 c 0
 248.221 56.459 277.521 16.374 319.042 20.207 c 0
 359.785 23.9688 384.826 65.5557 397.647 99.8252 c 0
 426.744 177.592 430.898 273.902 398.137 351.195 c 0
 382.264 388.645 347.992 437.997 300.976 433.189 c 0
EndSplineSet
EndChar

StartChar: q
Encoding: 113 113 82
Width: 591
GlyphClass: 2
Flags: HMW
HStem: -162.5 0.5<326.014 579.985>
VStem: 384.5 0.5<268 268> 522 0.5<51.1685 108.828> 522.714 0.5<422 422>
LayerCount: 2
Fore
SplineSet
384.66 63.3672 m 0
 359.806 40.3975 334.396 17.1582 302.809 4.10645 c 0
 294.658 0.738281 286.479 -1.95605 278.309 -4.01562 c 0
 170.492 -31.1953 63.7236 52.126 37.2676 157.122 c 0
 35.1201 165.648 33.3945 174.268 32.0801 182.945 c 0
 10.6855 324.237 98.3994 480.888 247.074 503.321 c 0
 294.784 510.521 339.775 498.293 383.812 480.483 c 0
 405.669 471.645 428.751 461.664 453.066 464.985 c 0
 465.755 466.718 476.993 472.244 488.785 476.452 c 0
 499.27 480.192 510.374 481.175 516.066 470.151 c 0
 523.211 456.316 521.885 437.352 522.214 421.989 c 0
 522.919 388.991 521.915 356.021 521.599 323.005 c 0
 520.777 237.347 521.5 151.653 521.5 66 c 0
 521.5 36.3398 521.268 6.66309 521.606 -23.0059 c 0
 521.896 -48.541 522.522 -75.1729 532.563 -99.1914 c 0
 542.69 -123.424 561.148 -142.795 578.805 -161.464 c 1
 494.614 -158.961 411.1 -159.136 327.211 -161.466 c 1
 345.366 -142.665 364.036 -123.58 374.36 -99.1943 c 0
 384.526 -75.1855 385.158 -48.5654 385.412 -23.0049 c 0
 385.697 5.66406 385.5 34.3379 385.5 63 c 2
 385.5 64.1426 l 2
 385.221 63.8848 384.94 63.626 384.66 63.3672 c 0
276.956 474.836 m 0
 231.931 470.692 202.349 428.185 188.524 389.167 c 0
 160.117 308.985 164.258 210.563 201.184 133.785 c 0
 219.806 95.0635 256.208 47.0176 305.037 51.3799 c 0
 348.858 55.2949 372.072 99.6279 379.67 137.902 c 0
 388.126 180.492 385.501 224.931 385.5 268 c 0
 385.499 312.396 388.02 359.67 372.3 402.172 c 0
 357.912 441.071 321.821 478.966 276.956 474.836 c 0
EndSplineSet
EndChar

StartChar: r
Encoding: 114 114 83
Width: 467
GlyphClass: 2
Flags: HMW
HStem: -1.5 0.5<52.0186 303.979 52.0186 52.0186> 364.74 127.9 369 0.5<245.5 245.678 245.5 246>
VStem: 110.501 0.5<201 201> 111.501 133.005 245 0.5<369.5 498 498 498>
LayerCount: 2
Fore
SplineSet
246.455 368.794 m 2
 268.366 417.16 296.902 476.416 351.158 494.08 c 0
 366.831 499.184 383.173 498.115 397.88 492.641 c 0
 432.761 479.656 458.293 441.97 443.882 403.299 c 0
 440.72 394.81 435.808 386.984 429.635 380.353 c 0
 409.778 359.022 381.875 355.825 355.158 364.74 c 0xdc
 330.555 372.95 304.761 388.66 279.918 370.744 c 4
 244.188 344.975 245.04 292.045 244.608 253.006 c 0
 244.213 217.339 244.471 181.659 244.506 146 c 0
 244.533 118.605 243.456 89.8389 253.947 63.8135 c 0
 264.178 38.4346 284.177 18.5459 302.76 -0.446289 c 1
 219.237 3.10449 136.522 2.64941 53.1875 -0.455078 c 1
 71.2441 18.9727 90.2754 38.2773 101.107 62.7988 c 0
 119.688 104.862 111.513 156.532 111.501 201 c 0
 111.487 257.385 119.119 322.153 87.1377 372.236 c 0
 71.1689 397.242 48.2578 416.221 24.9912 433.876 c 1
 60.001 448.545 97.6699 451.008 134.125 460.381 c 0
 171.759 470.059 207.362 486.281 244.5 497.33 c 1
 244.5 368.5 l 1
 246.322 368.5 l 1
 246.455 368.794 l 2
EndSplineSet
EndChar

StartChar: s
Encoding: 115 115 84
Width: 436
GlyphClass: 2
Flags: HMW
VStem: 57.6182 0.5<121 121> 365 0.5<323 323>
LayerCount: 2
Fore
SplineSet
60.7139 212.5 m 1
 97.7432 149.38 130.76 72.7012 196.752 34.0254 c 0
 211.952 25.1182 230.018 18.2207 248.007 21.5654 c 0
 251.158 22.1514 254.171 22.9951 257.034 24.0693 c 0
 286.603 35.1602 300.234 70.7148 289.122 100.169 c 0
 276.658 133.197 245.186 156.509 216.259 174.127 c 0
 151.269 213.707 58.7959 245.897 46.959 332.068 c 0
 44.9561 346.648 45.7285 361.534 48.9561 375.891 c 0
 66.5771 454.284 149.267 501.03 225.025 504.937 c 0
 258.363 506.656 293.529 501.079 319.841 479.275 c 0
 363.815 442.83 366.617 377.692 364.561 324.543 c 1
 330.508 375.016 294.052 436.62 237.217 464.122 c 0
 224.31 470.368 209.487 474.429 195.089 471.023 c 0
 167.808 464.572 152.949 435.596 163.587 409.865 c 0
 181.769 365.89 234.6 347.681 272.759 326.691 c 0
 349.357 284.562 428.364 204.934 397.871 110.153 c 0
 369.048 20.5654 266.941 -12.877 181.051 -4.19336 c 0
 146.398 -0.689453 109.425 7.96875 84.7393 34.0986 c 0
 62.0352 58.1318 59.0273 90.3125 58.6182 122.007 c 0
 58.2285 152.132 59.1465 182.639 60.4785 212.5 c 1
 60.7139 212.5 l 1
EndSplineSet
EndChar

StartChar: t
Encoding: 116 116 85
Width: 371
GlyphClass: 2
Flags: HMW
HStem: 460.5 0.5<24 78.5> 507 0.5<216.484 327 216 328.073>
VStem: 78.2686 0.5<242 242> 79.2686 132.253 212.021 0.5<225 225>
CounterMasks: 1 38
LayerCount: 2
Fore
SplineSet
211 667 m 5
 24 461 l 5
 79 461 l 5
 79 388.024 79.999 314.966 78.7686 242 c 4
 77.915 191.387 72.3496 137.805 89.0674 89 c 4
 114.191 15.6553 194.916 -21.1602 268 -0.976562 c 4
 303.566 8.84473 332.51 31.1523 359 56 c 5
 336.377 49.0195 312.033 40.3457 288.009 43.6201 c 4
 247.475 49.1465 225.271 88.2383 218.329 125 c 4
 212.157 157.688 212.48 191.848 212.021 225 c 4
 211.32 275.711 211.805 326.294 211.974 377 c 4
 212.067 405 212 433 212 461 c 5
 241.2 460.05 271.435 460.14 296.543 477.251 c 4
 308.408 485.337 317.828 496.086 327 507 c 5
 216 507 l 5
 211 667 l 5
EndSplineSet
EndChar

StartChar: u
Encoding: 117 117 86
Width: 621
GlyphClass: 2
Flags: HMW
HStem: 479.662 20G<235.5 235.5 545.5 545.5>
VStem: 99.0742 0.5<271 271> 99.3682 0.5<224 224> 100.368 134.132 235 0.5<499 499> 408.558 0.442383<71 71> 544.987 0.5<271 271>
LayerCount: 2
Fore
SplineSet
13.9824 434.879 m 1x9e
 49.2383 449.919 87.3252 452.796 124.124 462.238 c 0
 161.642 471.867 197.609 487.79 234.5 498.338 c 1
 234.415 390.278 224.528 280.725 236.9 172.943 c 0
 241.682 131.286 256.852 75.2051 305.941 66.8809 c 0
 365.808 56.7305 403.776 122.923 407.99 172.958 c 0
 410.338 200.836 409.73 229.094 409.359 257.007 c 0
 408.864 294.24 407.812 333.68 389.32 367.229 c 0
 373.851 395.3 349.029 415.938 323.987 434.881 c 1
 359.233 449.916 397.329 452.797 434.124 462.238 c 0
 471.644 471.866 507.609 487.79 544.5 498.338 c 1
 544.5 422.55 544.636 346.78 544.487 271.001 c 0
 544.381 216.545 533.282 153.978 557.739 102.787 c 0
 569.042 79.1299 587.762 60.3232 606.004 42.2812 c 1
 567.93 33.4375 529.964 26.0127 491.895 17.8184 c 0
 472.878 13.7246 450.627 8.22168 432.877 18.4551 c 0
 413.801 29.4492 410.837 51.8203 409.499 72.0332 c 2
 409.443 72.8701 l 2
 409.207 72.7217 408.97 72.5723 408.733 72.4229 c 0
 376.714 52.251 344.373 32.0273 309.796 16.5742 c 0
 288.483 7.04785 266.098 -0.72168 242.932 -3.92676 c 0
 228.062 -5.9834 212.826 -6.10547 198.101 -3.10352 c 0
 186.945 -0.829102 176.213 3.26562 166.376 8.99609 c 0
 92.0342 52.3096 99.5234 149.715 100.368 223.994 c 0
 100.55 239.995 100.532 256.012 100.074 272.015 c 0
 99.4209 294.815 98.2998 318.13 91.5215 340.147 c 0
 78.918 381.097 46.7646 409.798 13.9824 434.879 c 1x9e
EndSplineSet
EndChar

StartChar: v
Encoding: 118 118 87
Width: 628
GlyphClass: 2
Flags: HMW
HStem: 499 0.5<10.0166 263.981 10.0166 264 363.017 615.98>
VStem: 362.5 0.5<498 499 498 499.518>
LayerCount: 2
Fore
SplineSet
11.2363 498.459 m 1
 95.5264 495.663 179.293 495.442 263.203 498.471 c 1
 255.447 481.744 247.895 464.729 246.431 446.036 c 0
 243.092 403.37 267.765 361.95 282.869 323.815 c 0
 302.275 274.822 324.21 192.332 342.429 142.877 c 2
 342.818 141.817 l 1
 343.341 142.819 l 2
 369.833 193.662 393.228 277.772 412.812 331.83 c 0
 423.133 360.31 432.257 391.97 422.887 422.147 c 0
 413.044 453.846 387.293 476.639 363.201 498.493 c 1
 447.949 495.631 530.388 495.218 614.293 498.434 c 1
 575.75 472.007 536.154 449.029 503.562 415.045 c 0
 433.319 341.798 398.183 211.948 356.452 121.259 c 0
 341.068 87.8311 327.267 51.9424 306.102 21.7686 c 0
 297.707 9.80371 285.217 -4.48047 269.331 -2.96094 c 0
 254.554 -1.54883 244.438 12.5869 237.474 24.5938 c 0
 220.479 53.9043 209.347 86.958 196.328 118.242 c 0
 174.535 170.605 147.902 255.531 126.858 308.186 c 0
 110.935 348.034 97.6006 389.855 74.1748 426.271 c 0
 56.7803 453.309 33.5342 475.859 11.2363 498.459 c 1
EndSplineSet
EndChar

StartChar: w
Encoding: 119 119 88
Width: 987
GlyphClass: 2
Flags: HMW
HStem: 29.083 0.5<627 627> 31.8984 0.5<267 267> 499 0.5<10.0166 263.982 10.0166 264 363.016 616.983 723.017 975.98>
VStem: 362.5 0.5<498 499 498 499.516> 722.5 0.5<498 499 498 499.518>
LayerCount: 2
Fore
SplineSet
10 499 m 1
 32.999 475.328 56.4922 451.978 74.3271 424 c 0
 97.9609 386.925 111.77 344.569 128.03 304 c 0
 148.86 252.03 177.454 165.848 198.827 114.102 c 0
 211.441 83.5625 221.903 50.5127 239.749 22.5195 c 0
 247.18 10.8633 258.2 -2.25684 273.252 -2.5 c 0
 284.974 -2.69043 294.994 5.19629 302.446 13.4893 c 0
 317.774 30.5469 327.096 52.6572 336.941 73.1016 c 0
 378.316 159.02 413.98 279.544 462 362 c 1
 497.74 276.606 540.154 156.561 575.736 71.1016 c 0
 584.178 50.8242 591.869 28.7324 605.62 11.3184 c 0
 612.346 2.80078 621.719 -5.30762 633.176 -5.31543 c 0
 649.931 -5.32812 662.076 10.6758 670.295 23.3428 c 0
 691.456 55.96 706.633 92.9561 723.032 128.102 c 0
 764.122 216.161 796.39 344.68 864.834 415.698 c 0
 897.545 449.638 937.485 472.581 976 499 c 1
 891.484 495.706 807.519 496.134 723 499 c 1
 723 498 l 1
 746.604 476.586 772.646 453.441 782.409 421.999 c 0
 791.825 391.677 782.509 359.74 772.013 331 c 0
 752.421 277.354 731.365 191.681 705.081 141.102 c 1
 685.506 190.867 660.108 275.649 639.501 325 c 0
 623.733 362.761 598.495 403.671 601.02 445.997 c 0
 602.138 464.757 609.516 482.027 617 499 c 1
 532.164 496.244 447.836 496.433 363 499 c 1
 363 498 l 1
 386.603 476.586 412.645 453.441 422.409 421.999 c 0
 431.825 391.677 422.509 359.74 412.013 331 c 0
 392.421 277.354 371.366 191.681 345.081 141.102 c 1
 327.023 190.226 303.048 274.341 283.762 323 c 0
 268.507 361.49 243.547 403.205 246.94 445.997 c 0
 248.433 464.833 256.185 482.064 264 499 c 1
 179.145 495.961 94.8555 496.158 10 499 c 1
EndSplineSet
EndChar

StartChar: x
Encoding: 120 120 89
Width: 609
GlyphClass: 2
Flags: HMW
HStem: -1.5 0.5<11.0166 263.985 11.0166 11.0166 345.016 598.985 345.016 345.016> 498.04 0.5<150 150> 502 0.5<334.017 586.98 334.017 587>
VStem: 10.5 0.5<-1 0 -1 0.304688 -1 0.304688>
LayerCount: 2
Fore
SplineSet
149.98 497.542 m 1
 22.251 502.451 l 1
 48.2988 476.29 75.4844 450.723 99.4854 422.32 c 0
 130.423 385.712 157.148 345.894 185.388 307.295 c 0
 206.536 278.392 237.657 244.844 234.835 205.964 c 0
 232.469 173.377 207.409 146.353 186.481 123.779 c 0
 160.703 95.9717 132.941 69.3066 101.277 48.1777 c 0
 72.6924 29.1045 42.1904 15.5371 11.1299 -0.495117 c 1
 95.9883 2.3291 178.521 1.95898 262.935 -0.46875 c 1
 250.914 14.5469 238.148 30.0244 229.939 47.7959 c 0
 217.234 75.2998 220.421 107.306 239.966 130.912 c 0
 249.019 141.846 262.139 150.971 277.1 149.597 c 0
 295.896 147.872 311.21 132.202 322.817 118.997 c 0
 341.597 97.6279 360.634 70.0371 358.105 39.9766 c 0
 356.905 25.709 351.314 12.5391 345.767 -0.475586 c 1
 429.773 2.13477 513.405 1.94141 597.798 -0.464844 c 1
 570.69 27.8926 542.486 55.5156 517.153 85.6787 c 0
 485.903 122.883 458.221 162.843 429.187 201.701 c 0
 407.208 231.111 374.8 265.956 379.494 306.059 c 0
 383.006 336.051 405.297 360.974 424.54 382.318 c 0
 448.392 408.773 474.301 433.863 503.716 454.158 c 0
 529.587 472.01 557.993 485.619 585.03 501.424 c 1
 501.841 498.24 418.617 498.652 335.114 501.462 c 1
 347.15 487.323 359.921 472.698 369.239 456.237 c 0
 382.823 432.242 387.096 401.702 369.729 378.151 c 0
 362.093 367.797 350.301 359.752 336.857 360.745 c 0
 319.471 362.029 305.123 376.053 294.32 388.188 c 0
 276.414 408.302 258.925 434.642 261.758 463.023 c 0
 263.117 476.646 268.69 489.158 274.217 501.475 c 1
 149.98 497.542 l 1
EndSplineSet
EndChar

StartChar: y
Encoding: 121 121 90
Width: 628
GlyphClass: 2
Flags: HMW
HStem: 499 0.5<10.0166 263.982 10.0166 264 363.017 615.98>
VStem: 362.5 0.5<498 499 498 499.518>
LayerCount: 2
Fore
SplineSet
11.2344 498.459 m 1
 95.5303 495.663 179.287 495.486 263.205 498.472 c 1
 255.471 481.739 247.904 464.723 246.435 446.036 c 0
 243.078 403.369 267.834 361.952 282.921 323.816 c 0
 302.307 274.821 320.351 225.288 338.53 175.827 c 2
 338.922 174.765 l 1
 339.443 175.77 l 2
 365.728 226.348 392.848 277.144 412.478 330.828 c 0
 422.988 359.573 432.36 391.641 422.887 422.147 c 0
 413.043 453.847 387.275 476.622 363.201 498.493 c 1
 447.908 495.632 530.469 495.221 614.231 498.432 c 1
 570.554 469.617 527.101 443.647 492.835 403.082 c 0
 450.301 352.729 421.443 292.916 392.657 234.22 c 0
 363.365 174.494 333.62 114.99 304.409 55.2197 c 0
 286.688 18.9629 270.219 -18.2363 247.59 -51.7148 c 0
 219.438 -93.3633 166.533 -148.236 111.351 -123.255 c 0
 104.245 -120.037 97.6621 -115.677 91.8232 -110.503 c 0
 84.2734 -103.814 77.8584 -95.707 73.5742 -86.5703 c 0
 70.5947 -80.2168 68.9639 -73.4482 68.54 -66.627 c 0
 66.707 -37.1309 87.4365 -6.76953 119.074 -4.80762 c 0
 154.558 -2.60547 203.638 -56.6807 232.554 -12.6689 c 0
 235.708 -7.86914 237.882 -2.47461 239.117 3.11523 c 0
 243.283 21.9609 237.18 41.6377 231.02 59.166 c 0
 220.373 89.4648 206.829 118.728 194.224 148.196 c 0
 171.762 200.709 149.037 253.15 127.86 306.186 c 0
 111.96 346.007 98.6396 387.73 75.5 424.268 c 0
 57.8506 452.135 34.0957 475.251 11.2344 498.459 c 1
EndSplineSet
EndChar

StartChar: z
Encoding: 122 122 91
Width: 614
GlyphClass: 2
Flags: HMW
HStem: -1.5 0.5<16 357 16 357> 499.167 0.5<260 260>
LayerCount: 2
Fore
SplineSet
82.8789 267.094 m 5
 90.8311 311.934 98.9385 356.221 106.593 400.916 c 4
 111.154 427.556 114.604 457.106 134.198 477.202 c 4
 165.653 509.459 219.184 499.065 259.995 498.667 c 4
 363.939 497.652 469.649 509.401 572.836 495.652 c 5
 544.534 471.077 517.732 445.395 494.103 416.315 c 4
 455.951 369.367 424.965 316.987 390.771 267.283 c 4
 334.134 184.946 274.33 104.597 220.578 20.2686 c 6
 219.939 19.2666 l 5
 221.103 19.5107 l 6
 307.369 37.5918 391.354 61.8506 454.054 128.104 c 4
 491.021 167.167 514.825 215.669 544.16 259.84 c 5
 536.072 207.671 526.623 156.045 517.951 104.082 c 4
 513.213 75.6934 510.449 43.2598 489.691 21.6504 c 4
 458.451 -10.8721 398.221 -0.5 357 -0.5 c 6
 17.0596 -0.5 l 5
 143.406 152.979 258.021 315.057 370.412 478.717 c 6
 371.102 479.722 l 6
 370.703 479.645 370.305 479.567 369.905 479.491 c 4
 295.919 465.246 222.932 440.407 168.834 385.433 c 4
 134.363 350.403 111.008 306.73 82.8789 267.094 c 5
EndSplineSet
EndChar

StartChar: braceleft
Encoding: 123 123 92
Width: 193
GlyphClass: 2
Flags: HMW
HStem: -226.88 0.5<114 114> 782.113 0.5<117 117>
VStem: 28.4229 0.5<635 635> 69.0693 0.5<279 279> 70.0693 53.9404 94.7783 0.5<180 180> 156 0.5<769 771 771 771> 157 0.5<-216 -214 -214 -214>
LayerCount: 2
Fore
SplineSet
157 -216 m 1
 157 -214 l 1
 143.747 -207.03 130.748 -199.669 120.154 -188.902 c 0
 93.4424 -161.758 91.7744 -123.508 98.0654 -88 c 0
 109.503 -23.4453 142.662 34.8193 155.602 99 c 0
 162.576 133.59 163.151 170.268 151.763 204 c 0
 143.729 227.797 125.703 250.355 124.509 276 c 0
 123.512 297.401 135.914 316.366 144.645 335 c 0
 153.426 353.739 158.746 373.325 160.088 394 c 0
 164.89 467.995 129.087 534.201 108.166 603 c 0
 94.3955 648.286 82.9238 706.025 119.365 744.041 c 0
 129.799 754.926 142.693 762.228 156 769 c 1
 156 771 l 1
 143.87 776.361 131.437 781.694 117.974 782.113 c 0
 95.3584 782.815 75.7607 769.054 61.958 752.188 c 0
 35.8047 720.23 28.2695 676.257 28.9229 636 c 0
 30.2266 555.628 74.374 486.882 90.9629 410 c 0
 95.9766 386.768 97.3818 362.922 90.0977 340 c 0
 83.6572 319.736 69.9688 300.835 69.5693 279 c 0
 69.2412 261.092 78.4453 245.072 85.082 229 c 0
 91.5615 213.306 95.4443 197.044 95.2783 180 c 0xf7
 94.8408 135.15 73.9355 93.0234 58.2051 52 c 0
 40.2354 5.13477 26.8193 -44.3779 29.0713 -95 c 0
 31.2676 -144.355 53.6074 -224.24 114.987 -226.38 c 0
 129.75 -226.9 143.575 -221.48 157 -216 c 1
EndSplineSet
EndChar

StartChar: bar
Encoding: 124 124 93
Width: 84
GlyphClass: 2
Flags: HMW
HStem: -180.5 0.5<30 58 30 58.5> 800 0.518555<29.5 30>
VStem: 29.5 0.5<-180 800 -180 800.519> 58 0.5<-180 799 799 799>
LayerCount: 2
Fore
SplineSet
30 800 m 5
 30 -180 l 5
 58 -180 l 5
 58 799 l 5
 30 800 l 5
EndSplineSet
EndChar

StartChar: braceright
Encoding: 125 125 94
Width: 193
GlyphClass: 2
Flags: HMW
HStem: -226.46 0.5<78 78>
VStem: 38.5 0.5<-215 -213 -215 -212.701 -215.326 -213> 69.1699 0.5<278 278> 70.1699 53.7686<279 279> 99.0977 0.5<180 180> 124.438 0.5<279 279> 165.065 0.5<-92 -92> 165.378 0.5<634 634>
LayerCount: 2
Fore
SplineSet
39 769 m 1
 49.4834 774.533 60.1963 780.009 72.1045 781.564 c 0
 95.3564 784.604 116.005 771.103 130.523 754.06 c 0
 158.361 721.379 166.248 675.755 165.378 634 c 0xe5
 163.711 553.923 119.786 485.651 103.371 409 c 0
 98.4756 386.139 97.0996 362.572 104.152 340 c 0
 110.487 319.726 124.055 300.801 124.438 279 c 0
 124.752 261.102 115.565 245.1 109.012 229 c 0
 102.618 213.29 98.9238 197.013 99.0977 180 c 0
 99.5586 135.078 120.625 93.0693 136.403 52 c 0
 154.051 6.06445 166.884 -42.4053 165.065 -92 c 0xee
 163.677 -129.858 154.775 -169.917 129.14 -199.059 c 0
 116.124 -213.86 98.3994 -226.02 78.0225 -225.96 c 0
 64.2139 -225.92 51.4219 -220.45 39 -215 c 1
 39 -213 l 1
 52.5762 -205.72 65.7256 -197.889 76.1689 -186.348 c 0
 110.923 -147.939 99.3525 -90.8242 85.8066 -46 c 0
 65.2686 21.96 30.1445 88.0273 34.749 161 c 0
 36.0244 181.219 40.9424 200.548 49.2822 219 c 0
 57.8936 238.053 70.4561 257.292 69.6699 279 c 0
 68.7305 304.98 50.6357 327.857 42.6982 352 c 0
 31.3223 386.604 32.4336 423.676 39.7012 459 c 0
 52.7334 522.331 84.6387 580.252 95.9609 644 c 0
 102.107 678.609 100.888 716.174 75.5293 743.202 c 0
 65.1445 754.271 52.2344 761.861 39 769 c 1
EndSplineSet
EndChar

StartChar: asciitilde
Encoding: 126 126 95
Width: 613
GlyphClass: 2
Flags: HMW
HStem: 521.166 133.334
VStem: 123.687 303.747<522.52 654.5>
LayerCount: 2
Fore
SplineSet
425 654 m 5
 419.334 642.094 413.487 630.21 405.051 619.973 c 4
 400.447 614.387 395.171 609.323 389.203 605.211 c 4
 368.012 590.612 343.434 593.651 321 603.548 c 4
 288.8 617.752 260.569 642.31 225 648.095 c 4
 181.561 655.16 139.309 626.439 126.123 584.988 c 4
 119.773 565.025 121.365 544.433 124 524 c 5
 130.673 535.005 137.473 546.053 146.571 555.26 c 4
 198.434 607.746 259.755 534.93 312 521.65 c 4
 365.55 508.039 420.811 545.394 429.116 599.999 c 4
 431.855 618.011 429.574 636.119 427 654 c 5
 425 654 l 5
EndSplineSet
EndChar

StartChar: uni0080
Encoding: 128 128 96
Width: 213
GlyphClass: 2
Flags: HMW
HStem: 560.5 0.5<117 119 117 119.337 116.598 119>
VStem: 40.6768 0.5<730 730>
LayerCount: 2
Fore
SplineSet
117.402 561.5 m 1
 110.869 591.423 103.768 620.188 87.1279 646.269 c 0
 70.4297 672.442 42.251 698.247 41.6768 730.991 c 0
 41.168 759.996 68.4121 786.983 97.875 782.421 c 0
 116.17 779.587 131.417 765.942 140.608 750.345 c 0
 173.652 694.27 140.781 615.891 118.663 561.5 c 1
 117.402 561.5 l 1
EndSplineSet
EndChar

StartChar: exclamdown
Encoding: 161 161 97
Width: 282
GlyphClass: 2
Flags: HMW
HStem: 636.148 153.435
VStem: 59.3232 0.5<123 123> 59.8232 162.747 213.806 0.5<710 710>
LayerCount: 2
Fore
SplineSet
134.047 788.585 m 0
 176.216 791.912 214.777 751.474 213.306 710.019 c 0
 212.397 684.409 196.738 660.625 175.298 647.116 c 0
 166.143 641.349 155.754 637.525 144.956 636.646 c 0
 115.637 634.259 94.2998 649.302 82.4639 670.86 c 0
 62.9609 706.386 69.4033 759.425 108.729 780.966 c 0
 116.527 785.238 125.182 787.885 134.047 788.585 c 0
149.828 590.762 m 5
 166.89 529.65 171.995 465.363 182.921 402.914 c 0
 198.99 311.055 219.308 218.43 222.07 124.985 c 0
 223.645 71.7324 214.803 -13.3135 145.963 -17.9414 c 0
 137.96 -18.4805 129.878 -17.498 122.216 -15.124 c 0
 64.7988 2.66211 58.7451 72.3076 59.8232 122.989 c 0
 61.7832 215.066 79.4082 306.336 94.8525 396.916 c 0
 102.51 441.83 105.873 488.592 120.508 531.84 c 0
 127.598 552.79 138.428 572.129 149.828 590.762 c 5
EndSplineSet
EndChar

StartChar: dieresis
Encoding: 168 168 98
Width: 543
GlyphClass: 2
Flags: HMW
HStem: 604.421 71.6992
VStem: 165.94 62.3809
LayerCount: 2
Fore
SplineSet
191.38 676.12 m 4
 211.856 680.484 224.862 666.479 228.321 649.508 c 4
 232.134 630.796 224.347 608.837 202.46 604.421 c 4
 182.273 600.348 169.498 614.019 165.94 630.682 c 4
 161.951 649.367 169.527 671.464 191.38 676.12 c 4
358.476 676.129 m 0
 336.623 671.489 328.949 649.377 332.938 630.694 c 0
 336.493 614.034 349.267 600.363 369.448 604.442 c 0
 391.33 608.864 399.122 630.805 395.315 649.501 c 0
 391.862 666.459 378.928 680.47 358.476 676.129 c 0
EndSplineSet
EndChar

StartChar: guillemotleft
Encoding: 171 171 99
Width: 479
GlyphClass: 2
Flags: HMW
VStem: 185.132 0.5<240 240> 273.116 94.5156 367.632 0.5<240 240>
LayerCount: 2
Fore
SplineSet
230.361 408.656 m 1
 227.418 380.546 220.278 354.427 210.222 328.179 c 0
 199.324 299.742 185.444 271.204 184.632 240.013 c 0
 183.785 207.401 197.729 177.366 209.28 147.818 c 0
 219.794 120.925 228.289 93.3115 235.135 65.4365 c 1
 196.112 100.055 157.215 135.207 122.849 174.342 c 0
 106.604 192.841 88.9492 215.087 90.7236 240.966 c 0
 92.46 266.276 111.217 287.382 127.641 305.398 c 0
 160.304 341.229 196.092 374.485 230.361 408.656 c 1
413.361 408.656 m 1
 378.881 374.294 342.801 340.891 310.143 304.665 c 0
 293.62 286.338 274.784 264.684 273.615 238.978 c 0
 272.433 212.947 290.577 190.79 307.088 172.34 c 0
 341.299 134.114 379.692 99.5391 418.135 65.4355 c 1
 411.289 93.3115 402.794 120.925 392.28 147.818 c 0
 380.727 177.365 366.786 207.401 367.632 240.013 c 0
 368.444 271.204 382.324 299.742 393.221 328.179 c 0
 403.278 354.427 410.418 380.546 413.361 408.656 c 1
EndSplineSet
EndChar

StartChar: acute
Encoding: 180 180 100
Width: 516
GlyphClass: 2
Flags: HW
LayerCount: 2
Fore
SplineSet
138.337 569.314 m 1
 164.813 587.589 190.16 606.672 209.47 632.778 c 0
 228.494 658.503 242.208 693.367 273.442 706.215 c 0
 288.028 712.216 301.286 710.67 312.032 704.554 c 0
 336.073 690.869 347.516 654.207 332.257 627.548 c 0
 319.883 605.93 297.523 591.392 274.811 582.259 c 0
 231.918 565.014 183.501 562.961 138.337 569.314 c 1
EndSplineSet
EndChar

StartChar: cedilla
Encoding: 184 184 101
Width: 532
GlyphClass: 2
Flags: HMW
HStem: -145.094 154.183
LayerCount: 2
Fore
SplineSet
316.71 7.78809 m 1
 325.407 -41.0908 327.177 -108.02 280.994 -139.106 c 0
 267.946 -147.89 249.53 -149.289 234.973 -144.15 c 0
 218.059 -138.181 206.419 -123.507 214.265 -101.326 c 0
 222.581 -77.8115 246.714 -63.1465 265.212 -47.8174 c 0
 284.914 -31.4912 301.453 -12.3135 316.71 7.78809 c 1
EndSplineSet
EndChar

StartChar: guillemotright
Encoding: 187 187 102
Width: 479
GlyphClass: 2
Flags: HMW
VStem: 110.412 0.5<221.389 252.611> 111.412 93.9648<237 237> 205.877 0.5<236 236> 293.412 94.9492<237 237> 388.361 0.5<237 237>
LayerCount: 2
Fore
SplineSet
60.8643 408.571 m 1
 99.0312 374.889 136.854 340.604 170.635 302.663 c 0
 187.134 284.129 205.617 262.016 205.377 236.005 c 0
 205.14 210.239 186.626 188.585 170.077 170.372 c 0
 136.209 133.099 98.3516 98.7979 60.8652 65.4395 c 1
 67.7725 93.6318 76.1836 120.878 86.7197 147.818 c 0
 97.9092 176.43 111.412 205.493 111.412 237 c 0
 111.412 268.508 97.9072 297.569 86.7207 326.182 c 0
 76.2041 353.079 67.7129 380.679 60.8643 408.571 c 1
243.864 408.569 m 5
 250.713 380.682 259.205 353.078 269.72 326.182 c 4
 280.907 297.57 294.412 268.508 294.412 237 c 4
 294.412 205.493 280.909 176.43 269.72 147.818 c 4
 259.185 120.879 250.772 93.6299 243.866 65.4404 c 5
 281.555 99.0205 319.347 133.766 353.341 171.336 c 4
 369.798 189.521 388.25 211.32 388.361 237.002 c 4
 388.471 262.66 370.092 284.418 353.767 302.66 c 4
 319.876 340.527 282.026 374.85 243.864 408.569 c 5
EndSplineSet
EndChar

StartChar: Agrave
Encoding: 192 192 103
Width: 835
GlyphClass: 2
Flags: HMW
HStem: 6.50586 0.5<321 321> 7.00586 15.4941 303.5 0.5<357.341 357.341 357.341 358.66> 638.5 0.5<496.087 528 496.053 529.419>
LayerCount: 2
Fore
SplineSet
531.159 877.579 m 1x30
 505.606 898.142 479.351 918.111 459.686 944.717 c 0
 440.637 970.488 426.771 1006.32 394.925 1019.07 c 0
 364.949 1031.07 331.416 1008.53 326.595 977.516 c 0
 323.87 959.981 331.083 942.878 341.82 929.326 c 0
 386.002 873.566 467.266 877.579 531.159 877.579 c 1x30
443.159 815.579 m 1
 445.159 815.579 l 1
 514.203 657.546 574.309 496.19 636.965 335.579 c 0
 655.453 288.191 674.271 240.933 692.848 193.579 c 0
 707.177 157.053 720.421 119.197 742.715 86.5869 c 0
 766.084 52.4053 798.5 26.8096 829.159 -0.420898 c 1
 706.873 5.0498 585.442 5.18945 463.159 -0.420898 c 1
 485.854 15.8398 511.948 32.0791 524.99 57.7568 c 0
 539.773 86.8643 528.546 119.229 517.608 147.579 c 0
 506.336 176.798 492.768 206.974 466.633 225.896 c 0
 428.492 253.512 368.737 246.864 324.159 245.085 c 0
 303.971 244.28 283.257 242.103 265.405 231.873 c 0
 203.799 196.57 195.457 102.913 243.754 54.2939 c 0
 267.027 30.8691 297.602 16.3789 326.159 0.579102 c 1
 326.159 -0.420898 l 1
 221.897 3.00977 118.419 3.55957 14.1592 -0.420898 c 1
 57.4248 27.4395 101.888 51.0605 136.771 89.8906 c 0
 201.493 161.935 229.866 257.067 264.027 345.579 c 4
 284.811 399.432 312.663 451.682 327.658 507.579 c 0
 338.322 547.331 322.167 588.854 335.595 627.579 c 0
 345.619 656.486 366.588 680.689 382.289 706.579 c 0
 403.875 742.171 421.607 779.931 443.159 815.579 c 1
360.159 542.579 m 1
 250.159 261.579 l 1
 473.159 261.579 l 1
 362.159 542.579 l 1
 360.159 542.579 l 1
EndSplineSet
EndChar

StartChar: Aacute
Encoding: 193 193 104
Width: 835
GlyphClass: 2
Flags: HMW
HStem: -18.5 0.5<11.0195 322.983 825.978 825.978> 227.006 0.5<321 321> 228.006 15.4941 524.5 0.5<357.341 357.341 357.341 358.66>
VStem: 323 0.5<-18 -17 -18 -18>
LayerCount: 2
Fore
SplineSet
440 798 m 1
 442 798 l 1
 511.044 639.967 571.149 478.611 633.806 318 c 0
 652.294 270.612 671.112 223.354 689.688 176 c 0
 704.018 139.474 717.262 101.618 739.556 69.0078 c 0
 762.925 34.8262 795.341 9.23242 826 -18 c 1
 703.714 -12.5283 582.283 -12.3867 460 -18 c 1
 482.694 -1.74316 508.789 14.499 521.831 40.1768 c 0
 536.614 69.2852 525.387 101.649 514.449 130 c 0
 503.177 159.219 489.608 189.395 463.474 208.317 c 0
 425.333 235.933 365.578 229.285 321 227.506 c 0
 300.812 226.701 280.098 224.523 262.246 214.294 c 0
 200.64 178.991 192.298 85.334 240.595 36.7148 c 0
 263.868 13.2861 294.442 -1.19922 323 -17 c 1
 323 -18 l 1
 218.738 -14.5703 115.26 -14.0156 11 -18 c 1
 54.2656 9.85742 98.7285 33.4814 133.612 72.3105 c 0
 198.334 144.355 226.707 239.488 260.868 328 c 0
 281.651 381.852 309.504 434.102 324.499 490 c 0
 335.163 529.752 319.008 571.274 332.436 610 c 0
 342.46 638.907 363.429 663.11 379.13 689 c 0
 400.716 724.592 418.448 762.351 440 798 c 1
357 525 m 1
 247 244 l 1
 470 244 l 1
 359 525 l 1
 357 525 l 1
327.391 878.63 m 1
 352.28 899.164 377.642 918.804 396.877 944.947 c 0
 415.922 970.827 429.85 1006.19 461.341 1018.91 c 0
 464.587 1020.22 467.875 1021.12 471.165 1021.65 c 0
 497.902 1025.92 524.789 1005.35 529.098 977.984 c 0
 531.833 960.615 524.729 943.629 514.043 930.108 c 0
 470.685 875.252 390.737 878.576 327.391 878.63 c 1
EndSplineSet
EndChar

StartChar: Acircumflex
Encoding: 194 194 105
Width: 835
GlyphClass: 2
Flags: HMW
HStem: 12.5059 0.5<321 321> 13.0059 15.4941 309.5 0.5<357.341 357.341 357.341 358.66> 695.527 0.5<440 440> 696.527 94.7334<441 441> 791.761 0.5<440 440>
LayerCount: 2
Fore
SplineSet
267.606 877.545 m 2x3c
 298.364 916.843 330.074 956.767 367.73 989.843 c 0
 387.861 1007.53 411.969 1024.32 439.997 1024.5 c 0
 468.4 1024.67 492.896 1007.77 513.271 989.863 c 0
 550.929 956.771 582.634 916.854 613.395 877.545 c 2
 614.291 876.397 l 1
 612.879 876.751 l 2
 584.946 883.748 557.646 892.036 530.817 902.57 c 0
 501.879 913.936 472.531 927.621 440.998 927.764 c 0
 409.46 927.904 380.121 914.266 351.184 902.944 c 0
 324.019 892.318 296.385 883.875 268.122 876.752 c 2
 266.706 876.395 l 1
 267.606 877.545 l 2x3c
269.295 878.08 m 1
 299.812 917.057 331.185 956.41 368.392 989.091 c 0
 388.48 1006.74 412.383 1023.32 440.003 1023.5 c 0
 467.992 1023.67 492.277 1006.98 512.61 989.111 c 0
 549.783 956.445 581.386 916.812 611.707 878.077 c 1
 584.211 885.015 557.521 893.159 531.184 903.502 c 0
 502.295 914.846 472.82 928.619 441.002 928.764 c 0
 409.176 928.906 379.705 915.176 350.817 903.876 c 0
 324.188 893.458 296.802 885.062 269.295 878.08 c 1
268 877.236 m 1
 296.246 884.355 323.859 892.793 351 903.41 c 0
 379.913 914.721 409.317 928.405 441 928.264 c 0
 472.677 928.12 502.088 914.391 531 903.036 c 0
 557.804 892.512 585.083 884.229 613 877.236 c 1
 582.24 916.544 550.554 956.436 512.94 989.487 c 0
 492.586 1007.37 468.196 1024.17 440 1024 c 0
 412.176 1023.82 388.172 1007.13 368.062 989.467 c 0
 330.449 956.43 298.757 916.534 268 877.236 c 1
440 815.236 m 1
 442 815.236 l 1
 511.302 656.925 571.356 495.154 634.2 334.236 c 0
 652.574 287.188 671.242 240.256 689.688 193.236 c 0
 704.019 156.71 717.263 118.854 739.557 86.2441 c 0
 762.926 52.0625 795.342 26.4658 826 -0.763672 c 1
 703.715 4.70605 582.282 4.84668 460 -0.763672 c 1
 482.694 15.4961 508.789 31.7363 521.831 57.4131 c 0
 536.614 86.5215 525.388 118.885 514.449 147.236 c 0
 503.178 176.455 489.608 206.631 463.475 225.554 c 0
 425.354 253.153 365.559 246.521 321 244.742 c 0
 300.812 243.938 280.099 241.76 262.246 231.53 c 0
 200.66 196.238 192.316 102.562 240.597 53.9512 c 0
 263.866 30.5166 294.443 16.0361 323 0.236328 c 1
 323 -0.763672 l 1
 218.738 2.66602 115.261 3.21582 11 -0.763672 c 1
 54.2617 27.0859 98.7285 50.707 133.596 89.5469 c 0
 198.293 161.619 226.702 256.711 260.868 345.236 c 0
 281.652 399.09 309.485 451.334 324.478 507.236 c 0
 335.14 546.99 319.006 588.505 332.437 627.236 c 0
 342.46 656.144 363.43 680.346 379.131 706.236 c 0
 400.718 741.83 418.41 779.606 440 815.236 c 1
359.341 542.736 m 1
 356.659 542.736 l 1
 246.269 260.736 l 1
 470.735 260.736 l 1x7c
 359.341 542.736 l 1
EndSplineSet
EndChar

StartChar: Atilde
Encoding: 195 195 106
Width: 835
GlyphClass: 2
Flags: HMW
HStem: -18.5 0.5<11.0195 322.983 825.978 825.978> 227.006 0.5<321 321> 228.006 15.4941 524.5 0.5<357.341 357.341 357.341 358.66>
VStem: 323 0.5<-18 -17 -18 -18>
LayerCount: 2
Fore
SplineSet
440 798 m 1
 442 798 l 1
 511.044 639.967 571.149 478.611 633.806 318 c 0
 652.294 270.612 671.112 223.354 689.688 176 c 0
 704.018 139.474 717.262 101.618 739.556 69.0078 c 0
 762.925 34.8262 795.341 9.23242 826 -18 c 1
 703.714 -12.5283 582.283 -12.3867 460 -18 c 1
 482.694 -1.74316 508.789 14.499 521.831 40.1768 c 0
 536.614 69.2852 525.387 101.649 514.449 130 c 0
 503.177 159.219 489.608 189.395 463.474 208.317 c 0
 425.333 235.933 365.578 229.285 321 227.506 c 0
 300.812 226.701 280.098 224.523 262.246 214.294 c 0
 200.64 178.991 192.298 85.334 240.595 36.7148 c 0
 263.868 13.2861 294.442 -1.19922 323 -17 c 1
 323 -18 l 1
 218.738 -14.5703 115.26 -14.0156 11 -18 c 1
 54.2656 9.85742 98.7285 33.4814 133.612 72.3105 c 0
 198.334 144.355 226.707 239.488 260.868 328 c 0
 281.651 381.852 309.504 434.102 324.499 490 c 0
 335.163 529.752 319.008 571.274 332.436 610 c 0
 342.46 638.907 363.429 663.11 379.13 689 c 0
 400.716 724.592 418.448 762.351 440 798 c 1
357 525 m 1
 247 244 l 1
 470 244 l 1
 359 525 l 1
 357 525 l 1
297.668 892.626 m 1
 304.393 903.557 311.234 914.54 320.352 923.676 c 0
 372.589 976.008 434.793 903.188 487.668 890.171 c 0
 540.846 877.08 595.031 915.608 602.571 969.624 c 0
 605.049 987.372 602.585 1005.1 599.668 1022.63 c 1
 594.322 1010.74 588.862 998.803 580.849 988.427 c 0
 576.237 982.452 570.863 977.038 564.708 972.652 c 0
 543.093 957.247 517.63 960.181 494.668 970.786 c 0
 461.376 986.163 432.817 1013.24 395.668 1019.46 c 0
 352.162 1026.75 310.189 996.053 298.018 954.619 c 0
 292.01 934.167 294.321 913.301 297.668 892.626 c 1
EndSplineSet
EndChar

StartChar: Adieresis
Encoding: 196 196 107
Width: 835
GlyphClass: 2
Flags: HMW
HStem: -18.5 0.5<11.0195 322.983 825.978 825.978> 227.006 0.5<321 321> 228.006 15.4941 524.5 0.5<357.341 357.341 357.341 358.66>
VStem: 323 0.5<-18 -17 -18 -18>
LayerCount: 2
Fore
SplineSet
440 798 m 1
 442 798 l 1
 511.044 639.967 571.149 478.611 633.806 318 c 0
 652.294 270.612 671.112 223.354 689.688 176 c 0
 704.018 139.474 717.262 101.618 739.556 69.0078 c 0
 762.925 34.8262 795.341 9.23242 826 -18 c 1
 703.714 -12.5283 582.283 -12.3867 460 -18 c 1
 482.694 -1.74316 508.789 14.499 521.831 40.1768 c 0
 536.614 69.2852 525.387 101.649 514.449 130 c 0
 503.177 159.219 489.608 189.395 463.474 208.317 c 0
 425.333 235.933 365.578 229.285 321 227.506 c 0
 300.812 226.701 280.098 224.523 262.246 214.294 c 0
 200.64 178.991 192.298 85.334 240.595 36.7148 c 0
 263.868 13.2861 294.442 -1.19922 323 -17 c 1
 323 -18 l 1
 218.738 -14.5703 115.26 -14.0156 11 -18 c 1
 54.2656 9.85742 98.7285 33.4814 133.612 72.3105 c 0
 198.334 144.355 226.707 239.488 260.868 328 c 0
 281.651 381.852 309.504 434.102 324.499 490 c 0
 335.163 529.752 319.008 571.274 332.436 610 c 0
 342.46 638.907 363.429 663.11 379.13 689 c 0
 400.716 724.592 418.448 762.351 440 798 c 1
357 525 m 1
 247 244 l 1
 470 244 l 1
 359 525 l 1
 357 525 l 1
353.304 970.235 m 4
 373.95 973.025 385.928 957.633 388.056 940.24 c 4
 390.328 921.664 381.3 901.156 359.674 898.521 c 0
 339.308 896.042 327.459 910.905 325.148 927.887 c 0
 322.617 946.489 331.598 967.3 353.304 970.235 c 4
520.236 970.73 m 0
 563.642 976.599 569.327 903.214 526.734 898.025 c 0
 483.375 892.745 478.003 965.019 520.236 970.73 c 0
EndSplineSet
EndChar

StartChar: AE
Encoding: 198 198 108
Width: 1284
GlyphClass: 2
Flags: HMW
HStem: -1.5 0.5<11.0195 321.982 11.0195 11.0195 521 1017> 244.542 0.5<416 416> 245.542 15.958 260.5 0.5<280 612 280 612.5> 765 0.5<584 584 584 586> 780.556 20G<521.5 521.5> 787.476 0.5<696 696>
VStem: 10.5 0.5<-1 0 -1 0.293945 -1 0.293945> 521.5 0.5<799 800 799 800.556> 610.92 0.5<147 147> 611.5 0.5<261.5 261.5> 612 0.5<228.68 245.5 245 245.5> 787 0.5<175 388.432> 1033 0.5<202 592 592 592>
LayerCount: 2
Fore
SplineSet
522 800 m 1
 522 799 l 1
 574 773 l 1
 478.654 636.133 395.625 490.457 310.734 347 c 0
 254.567 252.083 205.546 147.137 122.755 71.7598 c 0
 89.5352 41.5146 49.9258 21.6777 11 0 c 1
 11 -1 l 1
 114.92 2.97266 218.077 2.62598 322 -1 c 1
 290.019 20.458 253.455 40.2949 234.07 75.0957 c 0
 200.94 134.573 242.609 217.08 304.012 238.254 c 0
 339.692 250.559 379.973 245.226 417 245.042 c 0
 481.997 244.72 547.002 245 612 245 c 1
 612 212.359 612.684 179.622 611.42 147 c 0
 610.322 118.673 607.301 89.7139 592.049 65.0869 c 0
 574.788 37.2139 546.672 18.3965 521 -1 c 1
 1017 -1 l 2
 1054.99 -1 1093.01 -1.38281 1131 -0.900391 c 0
 1155.53 -0.586914 1181.64 0.891602 1200.27 18.9736 c 0
 1222.72 40.7637 1224.57 74.8477 1228.7 104 c 0
 1237.06 163.011 1246.48 221.871 1254 281 c 1
 1230 241.254 1213.02 197.388 1185.14 160.01 c 0
 1131.49 88.0996 1048.98 43.4111 962 26.0654 c 0
 907.729 15.2422 841.017 10.6055 805.614 62.3994 c 0
 783.245 95.124 787.001 137.299 787 175 c 2
 787 389 l 1
 862.951 379.214 943.387 364.521 990.185 296.943 c 0
 1010.36 267.809 1015.47 232.426 1033 202 c 1
 1033 592 l 1
 1015.47 561.577 1010.32 526.189 990.132 497.069 c 0
 943.37 429.62 862.694 415.25 787 405 c 1
 787 483.005 788.481 560.988 787.934 639 c 0
 787.678 675.615 781.34 718.928 805.333 749.968 c 0
 836.673 790.515 893.56 781.486 937 770.676 c 0
 1000.21 754.945 1056.8 721.633 1104.93 678.162 c 0
 1142.63 644.115 1174.73 604.506 1212 570 c 1
 1199.01 605.033 1186.14 640.118 1172.75 675 c 0
 1161.04 705.491 1148.29 737.054 1122.13 758.15 c 0
 1099.79 776.165 1071.71 782.165 1044 786.351 c 0
 1013.22 790.999 982.077 794.168 951 795.966 c 0
 865.764 800.897 781.112 789.062 696 787.476 c 0xcbdc
 637.767 786.39 579.79 793.927 522 800 c 1
584 765 m 1
 586 765 l 1
 596.624 744.144 606.19 723.076 610.839 700 c 0
 621.01 649.52 613.132 596.973 612.132 546 c 0
 610.268 450.977 612 356.024 612 261 c 1xd9dc
 280 261 l 1
 584 765 l 1
EndSplineSet
EndChar

StartChar: Ccedilla
Encoding: 199 199 109
Width: 776
GlyphClass: 2
Flags: HMW
HStem: 277 0.5<710 711 710 710> 474.5 0.5<710 711 710 711.5 709.674 711>
VStem: 217 0.5<328.296 418.332> 437 0.5<-29 -29> 711 0.5<-19 277 277 277 475 788 788 788>
LayerCount: 2
Fore
SplineSet
423 -30 m 1
 408.789 -49.3164 393.868 -67.4932 375.802 -83.3711 c 0
 358.806 -98.3086 336.693 -112.812 328.922 -135.174 c 0
 320.858 -158.381 337.641 -183.383 362.158 -185.164 c 0
 376.184 -186.183 389.384 -179.268 399.659 -170.25 c 0
 439.331 -135.43 436.952 -77.1299 437 -29 c 1
 478.829 -22.2803 519.992 -12.6338 559 4.23828 c 0
 586.96 16.332 619.098 37.9561 650.962 30.6592 c 0
 677.303 24.626 694.928 0.867188 711 -19 c 1
 711 277 l 1
 710 277 l 1
 677.31 213.828 658.633 145.52 612.026 90.0674 c 0
 545.391 10.7861 423.347 -43.1436 327.015 17.2979 c 0
 310.645 27.5693 296.047 40.582 283.499 55.2529 c 0
 267.093 74.4355 254.646 96.5156 245.531 120 c 0
 214.843 199.059 217 286.592 217 370 c 0
 217 466.664 212.891 569.896 253.753 660 c 0
 263.899 682.373 277.114 703.258 293.865 721.284 c 0
 307.038 735.46 322.189 747.921 339.01 757.533 c 0
 437.442 813.785 551.229 748.914 615.455 670.967 c 0
 639.013 642.375 658.296 610.195 672.534 576 c 0
 686.362 542.789 695.495 507.985 710 475 c 1
 711 475 l 1
 711 788 l 1
 694.454 772.559 676.778 755.282 653.997 750.008 c 0
 628.706 744.152 603.201 755.271 580 764.128 c 0
 548.109 776.301 515.841 787.817 482 793.191 c 0
 402.923 805.751 322.648 784.751 253 747.386 c 0
 179.497 707.952 114.082 649.079 74.5117 575 c 4
 -17.7236 402.328 41.8467 176.261 192.004 56.3506 c 0
 258.643 3.13574 339.484 -20.4912 423 -30 c 1
EndSplineSet
EndChar

StartChar: Egrave
Encoding: 200 200 110
Width: 790
GlyphClass: 2
Flags: HMW
HStem: 552.09 0.5<199 199> 638.5 0.5<448.044 480 448.011 481.466>
VStem: 118 174.5<61 154.57 169.427 170 170 209.165 -59 341> 292.5 0.5<-59 154 -59 154.57 -59 154 -59 154.57 -59 154 170 209.164> 538.5 0.5<-31.1055 355.109 -31.1055 355.109 -31.1055 -31.1055 355.109 355.109>
LayerCount: 2
Fore
SplineSet
480 878.27 m 5
 453.822 898.476 427.39 918.594 407.545 945.41 c 4
 388.326 971.379 374.179 1007.49 341.865 1020 c 4
 311.708 1031.68 278.464 1008.25 274.259 977.215 c 4
 271.869 959.569 279.442 942.546 290.389 929.092 c 4
 335.23 873.982 416.021 878.27 480 878.27 c 5
27 804.27 m 1
 84.0977 798.056 141.45 790.806 199 791.859 c 0
 284.462 793.422 369.429 805.278 455 800.253 c 0
 485.741 798.449 516.537 795.465 547 790.938 c 0
 575.027 786.774 603.562 780.613 626.146 762.42 c 0
 651.753 741.791 664.484 711.101 676.044 681.27 c 0
 689.799 645.772 702.781 609.968 716 574.27 c 1
 678.814 608.837 646.613 648.349 608.92 682.371 c 0
 561.104 725.527 504.733 758.867 442 774.694 c 0
 398.753 785.605 341.582 794.598 310.355 754.229 c 0
 286.541 723.44 292.68 680.608 292.934 644.27 c 0
 293.483 565.943 293 487.597 293 409.27 c 1
 368.68 419.626 449.358 433.871 496.132 501.338 c 0
 516.324 530.462 521.438 565.859 539 596.27 c 1
 539 206.27 l 1
 521.473 236.691 516.311 272.074 496.152 301.213 c 0
 449.318 368.905 368.968 383.316 293 393.27 c 1
 293 180.27 l 2xd8
 293.003 142.207 289.349 99.792 311.844 66.7148 c 0
 346.967 15.0693 413.983 19.4795 468 30.2588 c 0
 555.058 47.6367 637.433 92.2744 691.094 164.278 c 0
 718.976 201.689 735.869 245.572 760 285.27 c 1
 752.521 226.477 743.141 167.953 734.889 109.27 c 0
 730.752 79.8438 728.911 45.2295 706.273 23.2295 c 0
 687.637 5.10938 661.549 3.66895 637 3.36914 c 0
 599.009 2.89941 560.993 3.26953 523 3.26953 c 2
 27 3.26953 l 1
 60.6416 29.6895 99.0049 55.9854 111.46 99.2705 c 0
 119.231 126.279 117.976 155.447 117.996 183.27 c 2
 118 300.27 l 1
 118 580.27 l 2
 118 626.292 125.335 681.324 105.465 724.257 c 0
 89.3818 759.009 56.2549 781.42 27 804.27 c 1
EndSplineSet
EndChar

StartChar: Eacute
Encoding: 201 201 111
Width: 790
GlyphClass: 2
Flags: HMW
HStem: 552.09 0.5<199 199>
VStem: 118 174.5<61 154.57 169.427 170 170 209.165 -59 341> 292.5 0.5<-59 154 -59 154.57 -59 154 -59 154.57 -59 154 170 209.164> 538.5 0.5<-31.1055 355.109 -31.1055 355.109 -31.1055 -31.1055 355.109 355.109>
LayerCount: 2
Fore
SplineSet
268 875.862 m 1x90
 332.482 872.82 419.538 871.738 460.806 931.3 c 0
 469.967 944.521 475.372 960.657 472.192 976.771 c 0
 466.166 1007.32 432.705 1028.15 403.27 1015.83 c 0
 372.371 1002.9 358.66 968.342 340.166 942.964 c 0
 320.534 916.026 294.502 895.613 268 875.862 c 1x90
27 800.862 m 1
 84.0977 794.649 141.449 787.399 199 788.452 c 0
 284.462 790.015 369.429 801.871 455 796.846 c 0
 485.74 795.042 516.537 792.058 547 787.531 c 0
 575.027 783.367 603.562 777.206 626.145 759.013 c 0
 651.754 738.384 664.484 707.694 676.045 677.862 c 0
 689.799 642.365 702.781 606.561 716 570.862 c 1
 678.814 605.43 646.613 644.942 608.92 678.964 c 0
 561.105 722.12 504.732 755.46 442 771.287 c 0
 398.753 782.198 341.582 791.19 310.354 750.821 c 0
 286.541 720.033 292.68 677.201 292.934 640.862 c 0
 293.482 562.536 293 484.189 293 405.862 c 1
 368.68 416.219 449.357 430.464 496.132 497.931 c 0
 516.324 527.055 521.438 562.452 539 592.862 c 1
 539 202.862 l 1
 521.473 233.285 516.311 268.667 496.151 297.806 c 0
 449.317 365.498 368.968 379.909 293 389.862 c 1
 293 176.862 l 2xb0
 293.003 138.8 289.349 96.3848 311.844 63.3076 c 0
 346.967 11.6621 413.982 16.0723 468 26.8516 c 0
 555.059 44.2295 637.434 88.8672 691.094 160.871 c 0
 718.977 198.283 735.869 242.166 760 281.862 c 1
 752.52 223.07 743.141 164.546 734.889 105.862 c 0
 730.752 76.4365 728.91 41.8223 706.273 19.8223 c 0
 687.637 1.70215 661.549 0.261719 637 -0.0380859 c 0
 599.01 -0.507812 560.992 -0.137695 523 -0.137695 c 2
 27 -0.137695 l 1
 60.6416 26.2822 99.0049 52.5781 111.46 95.8633 c 0
 119.23 122.872 117.976 152.041 117.995 179.862 c 2
 118 296.862 l 1
 118 576.862 l 2xd0
 118 622.885 125.335 677.917 105.465 720.85 c 0
 89.3809 755.602 56.2549 778.013 27 800.862 c 1
EndSplineSet
EndChar

StartChar: Ecircumflex
Encoding: 202 202 112
Width: 790
GlyphClass: 2
Flags: HMW
HStem: 558.054 0.5<199 199> 695.307 0.5<367 367> 696.307 94.9961<368 368> 791.803 0.5<367 367>
VStem: 118 0.5<67 369.984 347 369.984 347 370.015> 292.5 0.5<-53 160 -53 160.57 -53 160 -53 160.57 -53 160 176 214.998> 538.5 0.5<-25.1055 361.109 -25.1055 361.109 -25.1055 -25.1055 361.109 361.109>
LayerCount: 2
Fore
SplineSet
195 875.067 m 5
 222.91 881.978 250.209 890.297 277 900.774 c 4
 306.328 912.246 335.855 926.008 368 925.875 c 4
 399.76 925.744 428.998 912.148 458 900.797 c 4
 484.791 890.308 512.062 881.904 540 875.067 c 5
 509.277 914.38 477.531 954.281 439.939 987.32 c 4
 419.576 1005.21 395.213 1022.05 367 1021.87 c 4
 339.148 1021.7 315.18 1005.02 295.061 987.327 c 4
 257.475 954.267 225.721 914.394 195 875.067 c 5
27 801.067 m 1
 84.0898 794.855 141.457 787.577 199 788.622 c 0
 284.439 790.174 369.455 802.12 455 797.073 c 0
 486.08 795.24 517.213 792.139 548 787.474 c 0
 575.689 783.277 603.82 777.189 626.145 759.216 c 0
 651.758 738.596 664.484 707.896 676.045 678.067 c 0
 689.799 642.57 702.781 606.767 716 571.067 c 1
 678.814 605.636 646.613 645.147 608.92 679.17 c 0
 561.117 722.314 504.732 755.697 442 771.481 c 0
 398.682 782.382 341.023 791.666 309.957 750.814 c 0
 286.348 719.77 292.705 676.516 292.941 640.067 c 0
 293.445 562.074 293 484.063 293 406.067 c 1
 368.68 416.425 449.357 430.67 496.133 498.137 c 0
 516.324 527.261 521.438 562.658 539 593.067 c 1
 539 203.067 l 1
 521.473 233.49 516.311 268.872 496.152 298.011 c 0
 449.307 365.72 368.982 380.113 293 390.067 c 1
 293 177.067 l 2
 293.004 139.009 289.328 96.5713 311.848 63.5098 c 0
 347.047 11.8281 413.9 16.2676 468 27.0273 c 0
 554.598 44.2529 636.74 88.7041 690.357 160.077 c 0
 718.641 197.727 735.713 241.983 760 282.067 c 1
 752.52 223.274 743.158 164.749 734.893 106.067 c 0
 730.746 76.6406 728.914 42.0303 706.273 20.0273 c 0
 687.637 1.9082 661.549 0.467773 637 0.167969 c 0
 599.01 -0.301758 560.992 0.0673828 523 0.0673828 c 2
 27 0.0673828 l 1
 60.6504 26.498 98.9863 52.7861 111.473 96.0684 c 0
 119.262 123.073 117.977 152.247 117.996 180.067 c 2
 118 297.067 l 1
 118 577.067 l 2
 118 623.097 125.311 678.109 105.459 721.056 c 0
 89.3926 755.811 56.248 778.224 27 801.067 c 1
EndSplineSet
EndChar

StartChar: Edieresis
Encoding: 203 203 113
Width: 790
GlyphClass: 2
Flags: HMW
HStem: -190.5 0.5<27 523 27 523 27 523 27 523 27 523 27 523 523 541.995> 598.589 0.5<200 200> 707.479 71.6494
VStem: 117.496 0.503906 243.275 62.4307 293 0.5<-13 199.43 -13 200> 539 0.5<13 403 403 403>
LayerCount: 2
Fore
SplineSet
270.308 970.426 m 0
 228.271 963.412 235.114 890.642 278.675 897.789 c 0
 320.824 904.706 313.674 977.659 270.308 970.426 c 0
437.308 970.426 m 0
 480.674 977.659 487.824 904.706 445.675 897.789 c 0
 402.114 890.642 395.271 963.412 437.308 970.426 c 0
27 801.804 m 1
 56.2549 778.954 89.3818 756.543 105.465 721.791 c 0
 125.335 678.858 118 623.826 118 577.804 c 2
 118 297.804 l 1
 117.996 180.804 l 2
 117.976 152.983 119.261 123.809 111.472 96.8047 c 0
 98.9863 53.5215 60.6504 27.2344 27 0.803711 c 1
 523 0.803711 l 2
 560.993 0.803711 599.009 0.429688 637 0.901367 c 0
 661.549 1.20508 687.637 2.64453 706.273 20.7578 c 0
 728.914 42.7656 730.746 77.376 734.892 106.804 c 0
 743.159 165.485 752.521 224.011 760 282.804 c 1
 735.713 242.72 718.644 198.461 690.358 160.815 c 0
 636.734 89.4443 554.596 44.9873 468 27.7617 c 0
 413.933 17.0059 347.041 12.5674 311.884 64.2451 c 0
 289.366 97.3457 293.003 139.708 293 177.804 c 2
 293 390.804 l 1
 368.982 380.849 449.307 366.455 496.152 298.746 c 0
 516.312 269.608 521.473 234.227 539 203.804 c 1
 539 593.804 l 1
 521.438 563.394 516.324 527.996 496.132 498.872 c 0
 449.358 431.405 368.68 417.16 293 406.804 c 1
 293 485.131 293.484 563.478 292.934 641.804 c 4
 292.679 678.157 286.517 720.96 310.333 751.771 c 4
 341.652 792.289 398.63 783.13 442 772.217 c 0
 504.732 756.433 561.118 723.051 608.92 679.905 c 0
 646.613 645.883 678.814 606.371 716 571.804 c 1
 702.781 607.502 689.799 643.307 676.044 678.804 c 0
 664.485 708.631 651.757 739.331 626.146 759.951 c 0
 603.82 777.926 575.689 784.014 548 788.209 c 0
 517.213 792.874 486.081 795.976 455 797.809 c 0
 369.785 802.836 285.109 790.955 200 789.393 c 0
 142.084 788.329 84.4697 795.689 27 801.804 c 1
EndSplineSet
EndChar

StartChar: Igrave
Encoding: 204 204 114
Width: 412
GlyphClass: 2
Flags: HMW
HStem: 550.963 0.5<224 224> 560.494 0.505859 638.5 0.5<279.952 312 279.918 313.447>
VStem: 119 173.5<61 338 338 340 340 361.056> 291.666 0.5<-37 -37> 292.5 0.5<36.9956 52 52 338 52 338>
LayerCount: 2
Fore
SplineSet
310.554 874.594 m 1
 246.464 874.537 166.849 871.143 122.794 926.089 c 0
 112.001 939.553 104.527 956.514 107.127 973.954 c 0
 107.679 977.654 108.646 981.23 109.974 984.641 c 0
 119.686 1009.59 148.63 1025.59 174.677 1015.4 c 0
 206.704 1002.88 220.727 967.033 239.956 940.889 c 0
 259.336 914.536 285.245 894.447 310.554 874.594 c 1
28.6865 798.436 m 1
 57.8213 776.218 90.8955 753.949 106.91 719.291 c 0
 126.825 676.188 119.5 621.037 119.5 575.095 c 2
 119.496 179.095 l 2
 119.476 151.301 120.771 122.05 112.905 94.957 c 0
 100.397 51.8818 62.2334 25.8203 28.6436 -0.258789 c 1
 147.238 10.043 264.51 10.541 383.329 -0.250977 c 1
 348.857 26.2344 310.943 52.5293 298.377 96.959 c 0
 289.204 129.384 290.706 163.907 291.666 197.109 c 0
 292.533 227.099 292.5 257.086 292.5 287.095 c 2xec
 292.5 573.095 l 2
 292.5 619.206 284.738 674.941 304.421 718.29 c 0
 320.072 752.761 351.94 774.896 382.366 795.589 c 1
 329.768 795.312 276.946 786.854 224.008 786.059 c 0
 158.677 785.074 93.7422 792.343 28.6865 798.436 c 1
EndSplineSet
EndChar

StartChar: Iacute
Encoding: 205 205 115
Width: 412
GlyphClass: 2
Flags: HMW
HStem: 550.963 0.5<224 224> 560.496 0.503906
VStem: 119 173.5<61 338 338 340 340 361.056> 291.648 0.5<-38 -38> 292.5 0.5<36.8281 52 52 338 52 338>
LayerCount: 2
Fore
SplineSet
27 799 m 5
 56.6396 776.242 90.2383 754.017 106.448 718.984 c 4
 126.301 676.08 119 620.992 119 575 c 6
 119 296 l 5
 118.995 179 l 6
 118.972 151.2 120.246 121.976 112.422 95.002 c 4
 99.8203 51.5537 60.8398 25.3926 27 -1 c 5
 146.713 9.50195 265.295 9.99219 385 -1 c 5
 349.974 25.9355 311.525 52.2148 298.858 97 c 4
 289.805 129.005 291.22 163.113 292.148 196 c 4
 293.005 226.334 293 256.656 293 287 c 6
 293 573 l 6
 293 619.174 285.275 674.82 304.876 717.987 c 4
 320.682 752.799 353.42 775.18 384 796 c 5
 329.54 795.998 275.482 787.223 221 786.499 c 4
 156.145 785.637 91.4805 793.153 27 799 c 5
110.319 879.72 m 1
 136.173 897.894 161.044 916.659 180.014 942.249 c 0
 199.263 968.211 212.931 1003.28 244.35 1016.5 c 0
 258.743 1022.56 272.101 1021.14 283.049 1015.15 c 0
 307.129 1001.99 319.501 966.659 304.816 939.866 c 0
 292.791 917.922 270.523 902.869 247.806 893.448 c 0
 204.826 875.625 155.792 873.274 110.319 879.72 c 1
EndSplineSet
EndChar

StartChar: Icircumflex
Encoding: 206 206 116
Width: 412
GlyphClass: 2
Flags: HMW
HStem: 556.963 0.5<224 224> 566.496 0.503906 695.282 0.5<206 206> 696.282 95.2324<206 206> 792.015 0.5<206 206>
VStem: 119 173.5<67 344 344 346 346 367.061> 291.706 0.5<-32 -32> 292.5 0.5<42.8296 58 42.8296 58 58 344 58 344>
LayerCount: 2
Fore
SplineSet
27 799 m 1
 56.6396 776.242 90.2383 754.017 106.448 718.984 c 0
 126.301 676.08 119 620.992 119 575 c 2
 119 296 l 1
 118.995 179 l 2
 118.972 151.2 120.246 121.976 112.422 95.002 c 0
 99.8203 51.5537 60.8398 25.3926 27 -1 c 1
 146.713 9.50195 265.295 9.99219 385 -1 c 1
 349.974 25.9355 311.525 52.2148 298.858 97 c 0
 289.805 129.005 291.22 163.113 292.148 196 c 0
 293.005 226.334 293 256.656 293 287 c 2
 293 573 l 2
 293 619.174 285.275 674.82 304.876 717.987 c 0
 320.682 752.799 353.42 775.18 384 796 c 1
 329.54 795.998 275.482 787.223 221 786.499 c 0
 156.145 785.637 91.4805 793.153 27 799 c 1
33 875.746 m 5
 61.2734 882.649 88.8828 891.12 116 901.719 c 4
 144.971 913.042 174.278 926.53 206 926.528 c 4
 237.716 926.527 267.036 913.021 296 901.696 c 4
 323.111 891.096 350.732 882.648 379 875.746 c 5
 348.235 915.056 316.539 954.963 278.945 988.04 c 4
 258.558 1005.98 234.23 1022.76 206 1022.76 c 4
 177.774 1022.76 153.43 1006.04 133.054 988.087 c 4
 95.4717 954.977 63.7363 915.098 33 875.746 c 5
EndSplineSet
EndChar

StartChar: Idieresis
Encoding: 207 207 117
Width: 412
GlyphClass: 2
Flags: HMW
HStem: 599.463 0.5<224 224> 609 0.5<384 384> 707.266 71.8779
VStem: 90.9023 62.4385 118.496 0.503906 257.902 62.4385 292.148 0.5<9 9> 293 0.5<100 386 386 409.087>
LayerCount: 2
Fore
SplineSet
27 799 m 1
 56.6396 776.242 90.2383 754.017 106.448 718.984 c 0
 126.301 676.08 119 620.992 119 575 c 2
 119 296 l 1
 118.995 179 l 2
 118.972 151.2 120.246 121.976 112.422 95.002 c 0
 99.8203 51.5537 60.8398 25.3926 27 -1 c 1
 146.713 9.50195 265.295 9.99219 385 -1 c 1
 349.974 25.9355 311.525 52.2148 298.858 97 c 0
 289.805 129.005 291.22 163.113 292.148 196 c 0
 293.005 226.334 293 256.656 293 287 c 2
 293 573 l 2
 293 619.174 285.275 674.82 304.876 717.987 c 0
 320.682 752.799 353.42 775.18 384 796 c 1
 329.54 795.998 275.482 787.223 221 786.499 c 0
 156.145 785.637 91.4805 793.153 27 799 c 1
283.711 967.433 m 0
 261.765 962.758 253.905 940.543 257.902 921.811 c 0
 261.467 905.106 274.263 891.406 294.475 895.508 c 0
 316.354 899.946 324.15 921.949 320.341 940.696 c 0xe4
 316.885 957.7 304.17 971.793 283.711 967.433 c 0
116.401 967.879 m 4
 74.2949 958.906 84.0264 886.182 127.574 895.017 c 4
 170.005 903.627 160.1 977.189 116.401 967.879 c 4
EndSplineSet
EndChar

StartChar: Ntilde
Encoding: 209 209 118
Width: 925
GlyphClass: 2
Flags: HMW
HStem: -220.689 2.02051 572 1<11 11>
VStem: 162.5 1.01465 163.4 19.127 164.015 0.5<64 64> 769 0.5<56 100.333> 769.5 17.5<54.6895 56 54.6895 56 54.6895 54.6895 56 100.333>
LayerCount: 2
Fore
SplineSet
11 799 m 1xdfc0
 70.2295 793.416 129.39 785.926 189 787.252 c 0xbfc0
 232.501 788.219 279.495 799.514 320.999 781.452 c 0
 350.519 768.605 373.002 743.658 393.884 719.981 c 0
 420.842 689.415 446.979 658.109 473.307 627 c 0
 571.143 511.397 668.13 394.986 769 282 c 1
 769 370.666 768.782 459.334 769.02 548 c 0
 769.153 597.833 775.394 651.976 751.935 697.996 c 0
 728.732 743.515 683.002 770.118 643 799 c 1
 733.422 791.343 822.584 791.175 913 799 c 1
 871.725 769.469 824.181 742.19 802.352 693.992 c 0
 787.695 661.632 787.289 624.89 787.057 590 c 0
 786.782 548.67 787 507.331 787 466 c 2
 787 -11 l 1
 699.622 67.3145 626.63 159.241 550.383 248 c 0
 428.44 389.956 307.657 533.195 181 671 c 1
 181 544.663 182 418.341 182 292 c 0
 182 256.69 181.318 221.292 182.63 186 c 0
 183.718 156.727 186.234 126.712 199.295 100.01 c 0
 221.552 54.5059 267.36 27.1387 308 0 c 1
 308 -1 l 1
 253.555 5.44531 198.886 11.1113 144 7.83301 c 0
 129.978 6.99609 115.705 4.93457 101.648 5.8125 c 0
 96.126 6.15625 88.5732 6.94629 85.0781 11.9053 c 0
 76.5898 23.9512 101.839 43.374 108.658 50.2402 c 0
 140.357 82.1631 158.339 119.226 162.903 164 c 0
 167.162 205.789 164.093 248.092 164.013 290 c 0
 163.86 371.002 163 451.992 163 533 c 0
 163 587.669 172.693 655.698 144.05 704.935 c 0
 114.91 755.024 59.4688 772.726 11 798 c 1
 11 799 l 1xdfc0
313 883.688 m 5
 319.965 894.919 327.062 906.208 336.572 915.5 c 4
 358.547 936.971 386.082 937.421 413 925.418 c 4
 446.476 910.488 475.729 884.72 513 879.313 c 4
 558.251 872.75 602.744 904.181 615.19 947.693 c 4
 621.4 969.403 618.642 991.812 615 1013.69 c 5
 609.703 1001.77 604.279 989.825 596.274 979.434 c 4
 591.879 973.729 586.79 968.532 580.987 964.251 c 4
 559.511 948.407 534.079 951.116 511 961.766 c 4
 477.723 977.123 449.076 1004.15 412 1010.48 c 4
 368.204 1017.97 325.674 987.521 313.357 945.681 c 4
 307.337 925.232 309.653 904.361 313 883.688 c 5
EndSplineSet
EndChar

StartChar: Ograve
Encoding: 210 210 119
Width: 796
GlyphClass: 2
Flags: HMW
HStem: 638.5 0.5<492 492>
VStem: 227.436 0.5<199 199> 569.356 0.5<184 184>
LayerCount: 2
Fore
SplineSet
375 796.933 m 0
 337.517 794.288 300.438 784.393 266 769.504 c 0
 -7.79395 651.131 -62.3389 227.54 174.009 43.8721 c 0
 202.325 21.8672 234.208 4.6875 268 -7.26953 c 0
 320.121 -25.7148 375.985 -31.6611 431 -27.7803 c 0
 477.848 -24.4756 524.581 -13.3613 567 7.00879 c 0
 677.266 59.958 744.475 173.873 762.333 292 c 0
 788.801 467.091 722.94 664.779 562 754.146 c 0
 536.177 768.485 508.561 779.682 480 787.229 c 0
 445.788 796.27 410.293 799.423 375 796.933 c 0
384 775.032 m 0
 472.32 786.035 527.226 699.379 547.231 625 c 0
 566.348 553.921 568.945 479.2 569.856 406 c 0
 570.946 318.532 568.896 228.401 543.592 144 c 0
 524.719 81.0498 484.86 4.68945 412 -4.02832 c 0
 323.188 -14.6533 272.599 81.0254 251.825 153 c 0
 226.956 239.159 225.378 330.975 227.436 420 c 0
 229.031 489.042 231.975 559.003 250.23 626 c 0
 268.047 691.388 309.801 765.788 384 775.032 c 0
492 875.967 m 5
 466.118 896.228 439.956 916.372 420.282 943.053 c 4
 401.137 969.017 387.081 1005.12 354.853 1017.69 c 4
 324.928 1029.36 291.308 1006.91 286.671 975.9 c 4
 284.037 958.277 291.619 941.193 302.457 927.681 c 4
 347.036 872.099 427.855 875.967 492 875.967 c 5
EndSplineSet
EndChar

StartChar: Oacute
Encoding: 211 211 120
Width: 796
GlyphClass: 2
Flags: HMW
VStem: 227.436 0.5<199 199> 569.356 0.5<184 184>
LayerCount: 2
Fore
SplineSet
375 796.933 m 0
 337.517 794.288 300.438 784.393 266 769.504 c 0
 -7.79395 651.131 -62.3389 227.54 174.009 43.8721 c 0
 202.325 21.8672 234.208 4.6875 268 -7.26953 c 0
 320.121 -25.7148 375.985 -31.6611 431 -27.7803 c 0
 477.848 -24.4756 524.581 -13.3613 567 7.00879 c 0
 677.266 59.958 744.475 173.873 762.333 292 c 0
 788.801 467.091 722.94 664.779 562 754.146 c 0
 536.177 768.485 508.561 779.682 480 787.229 c 0
 445.788 796.27 410.293 799.423 375 796.933 c 0
384 775.032 m 0
 472.32 786.035 527.226 699.379 547.231 625 c 0
 566.348 553.921 568.945 479.2 569.856 406 c 0
 570.946 318.532 568.896 228.401 543.592 144 c 0
 524.719 81.0498 484.86 4.68945 412 -4.02832 c 0
 323.188 -14.6533 272.599 81.0254 251.825 153 c 0
 226.956 239.159 225.378 330.975 227.436 420 c 0
 229.031 489.042 231.975 559.003 250.23 626 c 0
 268.047 691.388 309.801 765.788 384 775.032 c 0
293 875.906 m 5
 339.444 869.207 389.312 871.535 432.995 890.028 c 4
 455.309 899.475 477.331 914.421 489.186 936.149 c 4
 510.643 975.486 474.59 1033.02 428.165 1013.41 c 4
 396.921 1000.21 383.185 965.688 364.376 940.029 c 4
 345.094 913.723 319.508 894.38 293 875.906 c 5
EndSplineSet
EndChar

StartChar: Ocircumflex
Encoding: 212 212 121
Width: 796
GlyphClass: 2
Flags: HMW
HStem: 695.752 0.5<400 415.78> 696.752 94.6846<400 400> 791.937 0.5<400 400>
VStem: 227.436 0.5<205 205> 569.356 0.5<190 190>
CounterMasks: 1 e0
LayerCount: 2
Fore
SplineSet
227 877.88 m 5
 257.764 917.189 289.473 957.068 327.061 990.151 c 4
 347.439 1008.09 371.769 1024.86 400 1024.82 c 0
 428.219 1024.77 452.54 1008.03 472.938 990.111 c 0
 510.548 957.078 542.238 917.168 573 877.88 c 1
 544.756 884.926 517.116 893.285 490 903.915 c 0
 461.077 915.252 431.704 929.132 400 929.132 c 0
 368.332 929.133 338.891 915.344 310 904 c 0
 282.876 893.352 255.258 884.932 227 877.88 c 5
375 814.813 m 0
 410.294 817.3 445.775 814.09 480 805.104 c 0
 508.208 797.696 535.465 786.65 561 772.577 c 0
 722.889 683.354 789.122 484.577 762.18 308.88 c 0
 744.181 191.502 677.377 78.3633 568 25.3701 c 0
 525.327 4.7002 478.204 -6.55859 431 -9.89941 c 0
 375.951 -13.79 320.138 -7.93945 268 10.5898 c 0
 234.229 22.5898 202.321 39.752 174.009 61.7529 c 0
 -62.0547 245.186 -7.93164 667.916 265 786.891 c 0
 299.767 802.045 337.104 812.143 375 814.813 c 0
384 792.912 m 0
 309.824 783.671 268.009 709.262 250.203 643.88 c 0
 231.96 576.883 229.03 506.919 227.436 437.88 c 0
 225.377 348.806 226.94 257.09 251.824 170.88 c 0
 272.594 98.9258 323.204 3.23047 412 13.8506 c 0
 484.86 22.5703 524.729 98.9287 543.594 161.88 c 0
 568.888 246.29 570.945 336.403 569.855 423.88 c 0
 568.944 497.086 566.35 571.793 547.23 642.88 c 0
 527.226 717.259 472.319 803.915 384 792.912 c 0
EndSplineSet
EndChar

StartChar: Otilde
Encoding: 213 213 122
Width: 796
GlyphClass: 2
Flags: HMW
VStem: 227.413 0.5<208 208> 569.356 0.5<193 193>
LayerCount: 2
Fore
SplineSet
375.07 809.885 m 0
 410.312 812.372 445.715 809.22 479.872 800.194 c 0
 508.392 792.658 535.97 781.479 561.757 767.158 c 0
 722.158 678.089 788.044 481.202 761.99 306.523 c 0
 744.384 188.483 677.603 74.708 567.781 21.3594 c 0
 525.2 0.670898 478.098 -10.5039 430.965 -13.832 c 0
 375.661 -17.7305 319.492 -11.6621 267.168 7.01953 c 0
 233.398 19.0713 201.556 36.4131 173.32 58.5264 c 0
 122.585 98.2646 85.3643 149.109 60.9346 205.605 c 0
 -27.7197 410.631 52.1846 689.96 266.198 782.472 c 0
 300.604 797.345 337.625 807.244 375.07 809.885 c 0
248 888.449 m 1
 244.678 909.115 242.353 930.002 248.361 950.441 c 0
 260.656 992.261 303.219 1022.78 347 1015.19 c 0
 384.411 1008.7 413.275 981.09 447 965.796 c 0
 469.743 955.482 494.72 952.567 515.844 968.217 c 0
 521.588 972.472 526.616 977.64 530.959 983.306 c 0
 539.125 993.961 544.614 1006.24 550 1018.45 c 1
 552.917 1000.92 555.378 983.197 552.905 965.447 c 0
 545.366 911.341 491.317 872.792 438 886.049 c 0
 385.11 899.2 323.023 972.002 270.706 919.514 c 0
 261.589 910.367 254.736 899.382 248 888.449 c 1
384 788.484 m 0
 309.769 779.212 268.039 704.865 250.164 639.449 c 0
 231.867 572.49 228.976 502.461 227.413 433.449 c 0
 225.397 344.457 226.91 252.572 251.804 166.449 c 0
 272.617 94.4473 323.153 -1.18066 412 9.40918 c 0
 484.95 18.0889 524.718 94.4424 543.594 157.449 c 0
 568.885 241.867 570.946 331.966 569.856 419.449 c 0
 568.945 492.64 566.345 567.379 547.231 638.449 c 0
 527.222 712.841 472.324 799.516 384 788.484 c 0
EndSplineSet
EndChar

StartChar: Odieresis
Encoding: 214 214 123
Width: 796
GlyphClass: 2
Flags: HMW
HStem: 707.461 71.6738
VStem: 227.39 0.5<246 246> 284.935 62.4141 451.169 62.8916 569.44 0.5<224 224>
LayerCount: 2
Fore
SplineSet
310.401 968.504 m 0
 268.354 959.576 278.058 887.099 321.571 895.852 c 0
 364.037 904.394 354.037 977.77 310.401 968.504 c 0
479.238 968.62 m 0
 522.643 974.449 528.34 900.981 485.734 895.844 c 0
 442.394 890.618 437.041 962.952 479.238 968.62 c 0
375 812.811 m 0
 337.514 810.153 300.442 800.251 266 785.362 c 0
 -8.13184 666.861 -62.501 242.093 175.008 58.9805 c 0
 203.343 37.1348 235.252 20.0918 269 8.25879 c 0
 320.811 -9.90723 376.366 -15.79 431 -11.8896 c 0
 478.587 -8.48828 526.045 2.86133 569 23.8594 c 0
 677.533 76.9102 743.822 189.238 762.021 305.88 c 0
 789.408 481.416 723.442 680.38 562 770.026 c 0
 536.178 784.366 508.562 795.562 480 803.109 c 0
 445.791 812.149 410.29 815.311 375 812.811 c 0
384 790.912 m 0
 472.331 801.916 527.217 715.272 547.231 640.88 c 0
 567.02 567.324 569.459 489.637 569.94 413.88 c 0
 570.479 328.912 568.16 241.861 543.595 159.88 c 0
 524.721 96.8975 484.878 20.5967 412 11.8486 c 0
 323.187 1.1875 272.598 96.9111 251.825 168.88 c 0
 227.039 254.752 225.424 346.15 227.391 434.88 c 0
 228.928 504.221 231.856 574.6 250.209 641.88 c 0
 268.048 707.273 309.79 781.668 384 790.912 c 0
EndSplineSet
EndChar

StartChar: Ugrave
Encoding: 217 217 124
Width: 903
GlyphClass: 2
Flags: HMW
HStem: 638.5 0.5<560 560>
VStem: 109.747 0.5<415 415> 110 0.5<299.499 341.659 299.499 341.662> 110.5 174.5<128.998 341.659 128.998 341.659> 111 0.5<162 162> 737.005 0.5<262 262> 737.505 15.4951
LayerCount: 2
Fore
SplineSet
560 877.284 m 1
 534.77 897.921 508.788 917.919 489.282 944.37 c 0
 470.28 970.139 456.438 1005.57 424.832 1018.62 c 0
 395.078 1030.9 361.118 1009.2 355.83 978.204 c 0
 352.91 961.094 359.745 944.308 369.996 930.866 c 0
 413.615 873.669 495.604 877.287 560 877.284 c 1
18 802.284 m 1
 79.1807 797.276 140.546 791.798 202 792.611 c 0
 260.07 793.38 317.95 800.18 376 800.284 c 1
 340.393 777.223 302.618 751.547 290.831 708.283 c 0
 284.052 683.4 285.028 656.843 285.005 631.284 c 2
 285 526.284 l 1
 285 428.284 l 2
 285 306.279 264.201 150.408 368.306 62.251 c 0
 380.731 51.7295 394.363 42.6074 409.001 35.4541 c 0
 428.699 25.835 450.163 19.7842 472 17.7949 c 0
 503.649 14.9141 535.624 20.7549 565 32.5742 c 0
 588.077 41.8584 609.679 54.7119 628.948 70.4307 c 0
 645.164 83.6611 659.956 98.7744 672.789 115.308 c 0
 756.89 223.657 737.119 372.325 737.005 500.284 c 0xd4
 736.974 535.61 737.392 570.962 736.825 606.284 c 0
 736.338 636.592 735.141 668.147 722.67 696.28 c 0
 701.074 744.998 652.175 772.196 611 802.284 c 1
 701.122 794.358 789.886 794.203 880 802.284 c 1
 839.481 772.652 792.101 745.654 770.049 698.281 c 0
 746.621 647.953 754 586.236 754 532.284 c 0
 754 484.944 753 437.625 753 390.284 c 0
 753 293.205 752.184 187.7 693.423 105.291 c 0
 677.868 83.4756 659.02 63.8916 637.973 47.3242 c 0
 474.606 -81.2656 201.046 5.29492 133.655 199.284 c 0
 111.272 263.719 111.012 332.886 111 400.284 c 0
 110.99 455.287 110 510.276 110 565.284 c 0xaa
 110 594.607 110.407 623.968 109.747 653.284 c 0xc0
 109.176 678.65 107.687 705.116 96.2568 728.258 c 0
 79.8301 761.518 47.3545 781.676 18 802.284 c 1
EndSplineSet
EndChar

StartChar: Uacute
Encoding: 218 218 125
Width: 903
GlyphClass: 2
Flags: HMW
VStem: 109.747 0.5<415 415> 110 0.5<299.499 341.659 299.499 341.662> 110.5 174.5<128.998 341.659 128.998 341.659> 111 0.5<162 162> 737.005 0.5<262 262> 737.505 15.4951
LayerCount: 2
Fore
SplineSet
382 883.581 m 5
 428.463 876.878 478.289 879.24 521.995 897.713 c 4
 544.305 907.144 566.335 922.092 578.167 943.824 c 4
 599.577 983.149 563.586 1040.66 517.165 1021.08 c 4
 485.92 1007.89 472.177 973.356 453.376 947.702 c 4
 434.09 921.386 408.523 902.048 382 883.581 c 5
18 804.581 m 5
 79.1807 799.573 140.546 794.094 202 794.908 c 4
 260.07 795.676 317.95 802.477 376 802.581 c 5
 340.393 779.52 302.618 753.843 290.831 710.58 c 4
 284.052 685.697 285.028 659.139 285.005 633.581 c 6
 285 528.581 l 5
 285 430.581 l 6
 285 308.576 264.201 152.705 368.306 64.5469 c 4
 380.731 54.0264 394.363 44.9043 409.001 37.751 c 4
 428.699 28.1309 450.163 22.0811 472 20.0908 c 4
 503.649 17.2109 535.624 23.0508 565 34.8711 c 4
 588.077 44.1553 609.679 57.0078 628.948 72.7275 c 4
 645.164 85.958 659.956 101.071 672.789 117.604 c 4
 756.89 225.954 737.119 374.622 737.005 502.581 c 4xa8
 736.974 537.907 737.392 573.258 736.825 608.581 c 4
 736.338 638.888 735.141 670.444 722.67 698.577 c 4
 701.074 747.295 652.175 774.493 611 804.581 c 5
 701.122 796.655 789.886 796.5 880 804.581 c 5
 839.481 774.949 792.101 747.951 770.049 700.578 c 4
 746.621 650.25 754 588.533 754 534.581 c 4
 754 487.241 753 439.921 753 392.581 c 4
 753 295.502 752.184 189.997 693.423 107.587 c 4
 677.868 85.7725 659.02 66.1885 637.973 49.6211 c 4
 474.606 -78.9688 201.046 7.59082 133.655 201.581 c 4
 111.272 266.016 111.012 335.183 111 402.581 c 4
 110.99 457.584 110 512.573 110 567.581 c 4x54
 110 596.904 110.407 626.264 109.747 655.581 c 4x80
 109.176 680.947 107.687 707.413 96.2568 730.554 c 4
 79.8301 763.814 47.3545 783.972 18 804.581 c 5
EndSplineSet
EndChar

StartChar: Ucircumflex
Encoding: 219 219 126
Width: 903
VWidth: 1200
GlyphClass: 2
Flags: HMW
HStem: 895.752 0.5<485 500.78> 896.752 94.6846<485 485> 991.937 0.5<485 485>
VStem: 109.706 0.5<622 622> 110 0.5<505.333 547.825 505.333 547.827> 110.5 174.5<335.007 547.825 335.007 547.825> 111 0.5<367 367> 737.005 0.5<468 468> 737.505 15.4951
CounterMasks: 1 e0
LayerCount: 2
Fore
SplineSet
18 799 m 5
 47.3545 778.391 79.8301 758.233 96.2568 724.974 c 4
 107.687 701.832 109.176 675.366 109.747 650 c 4x77c0
 110.407 620.683 110 591.323 110 562 c 4
 110 506.992 110.99 452.003 111 397 c 4
 111.012 329.602 111.272 260.435 133.655 196 c 4
 201.044 2.00977 474.607 -84.5518 637.973 44.04 c 4
 659.02 60.6074 677.868 80.1914 693.423 102.006 c 4
 752.184 184.416 753 289.921 753 387 c 4
 753 434.34 754 481.66 754 529 c 4
 754 582.952 746.621 644.669 770.049 694.997 c 4
 792.101 742.369 839.481 769.368 880 799 c 5
 789.886 790.919 701.122 791.074 611 799 c 5
 652.175 768.912 701.074 741.714 722.67 692.996 c 4
 735.141 664.863 736.338 633.307 736.825 603 c 4
 737.392 567.677 736.974 532.326 737.005 497 c 4
 737.119 369.041 756.89 220.373 672.789 112.023 c 4
 659.956 95.4902 645.164 80.377 628.948 67.1465 c 4
 609.684 51.4307 588.082 38.5625 565 29.3027 c 4
 535.648 17.5303 503.613 11.6416 472 14.5137 c 4
 450.163 16.499 428.698 22.5488 409.001 32.1719 c 4
 393.983 39.5088 380.023 48.9199 367.34 59.79 c 4
 264.47 147.946 285 302.641 285 424 c 6
 285 522 l 5
 285.004 627 l 6
 285.024 652.879 283.966 679.802 290.831 704.999 c 4
 302.618 748.263 340.393 773.938 376 797 c 5
 317.95 796.896 260.07 790.096 202 789.326 c 4
 140.546 788.513 79.1807 793.992 18 799 c 5
312 871.917 m 1
 340.258 878.968 367.876 887.388 395 898.037 c 0
 423.892 909.381 453.332 923.17 485 923.169 c 0
 516.705 923.169 546.078 909.289 575 897.952 c 0
 602.117 887.322 629.756 878.963 658 871.917 c 1
 627.214 911.173 595.547 951.112 557.938 984.132 c 0
 537.534 1002.05 513.222 1018.81 485 1018.85 c 0
 456.77 1018.9 432.44 1002.13 412.062 984.188 c 0
 374.484 951.113 342.768 911.209 312 871.917 c 1
EndSplineSet
EndChar

StartChar: Udieresis
Encoding: 220 220 127
Width: 903
VWidth: 1200
GlyphClass: 2
Flags: HMW
HStem: 802.327 0.5<202 202> 810 0.5<376 376> 907.501 71.5938
VStem: 109.206 0.5<663 663> 109.5 0.5<547.33 589.827 547.33 589.83 547.33 589.827 547.33 589.83 547.33 589.827 547.33 589.83> 110.5 0.5<409 409> 285 0.5<376.953 536> 360.949 62.3984 736.505 0.5<510 510> 753 0.5<351.457 423.667 351.457 423.67> 754 0.5<518.33 568.976>
LayerCount: 2
Fore
SplineSet
18 799 m 1
 47.3545 778.391 79.8301 758.233 96.2568 724.974 c 0
 107.687 701.832 109.176 675.366 109.747 650 c 0x77c0
 110.407 620.683 110 591.323 110 562 c 0
 110 506.992 110.99 452.003 111 397 c 0
 111.012 329.602 111.272 260.435 133.655 196 c 0
 201.044 2.00977 474.607 -84.5518 637.973 44.04 c 0
 659.02 60.6074 677.868 80.1914 693.423 102.006 c 0
 752.184 184.416 753 289.921 753 387 c 0
 753 434.34 754 481.66 754 529 c 0
 754 582.952 746.621 644.669 770.049 694.997 c 0
 792.101 742.369 839.481 769.368 880 799 c 1
 789.886 790.919 701.122 791.074 611 799 c 1
 652.175 768.912 701.074 741.714 722.67 692.996 c 0
 735.141 664.863 736.338 633.307 736.825 603 c 0
 737.392 567.677 736.974 532.326 737.005 497 c 0
 737.119 369.041 756.89 220.373 672.789 112.023 c 0
 659.956 95.4902 645.164 80.377 628.948 67.1465 c 0
 609.684 51.4307 588.082 38.5625 565 29.3027 c 0
 535.648 17.5303 503.613 11.6416 472 14.5137 c 0
 450.163 16.499 428.698 22.5488 409.001 32.1719 c 0
 393.983 39.5088 380.023 48.9199 367.34 59.79 c 0
 264.47 147.946 285 302.641 285 424 c 2
 285 522 l 1
 285.004 627 l 2
 285.024 652.879 283.966 679.802 290.831 704.999 c 0
 302.618 748.263 340.393 773.938 376 797 c 1
 317.95 796.896 260.07 790.096 202 789.326 c 0
 140.546 788.513 79.1807 793.992 18 799 c 1
386.401 973.637 m 0
 344.382 964.683 354.068 892.3 397.571 901.011 c 0
 440.059 909.519 430.013 982.93 386.401 973.637 c 0
553.401 973.637 m 4
 597.013 982.93 607.059 909.519 564.571 901.011 c 4
 521.069 892.3 511.382 964.683 553.401 973.637 c 4
EndSplineSet
EndChar

StartChar: Yacute
Encoding: 221 221 128
Width: 849
VWidth: 1200
GlyphClass: 2
Flags: HMW
HStem: 752.716 0.5<206 206> 763.466 0.53418
VStem: 306.558 174.288<111 111> 480.474 0.5<209 209> 480.846 0.5<112 112>
LayerCount: 2
Fore
SplineSet
359 843 m 5
 404.83 836.388 453.584 838.841 496.996 856.109 c 4
 520.068 865.287 542.914 880.172 555.334 902.306 c 4
 577.183 941.244 541.909 999.672 495.216 980.727 c 4
 463.655 967.92 450.02 932.673 431.085 907.071 c 4
 411.577 880.696 385.761 861.42 359 843 c 5
11 764 m 1
 76.0088 757.953 140.622 751.992 206 753.216 c 0
 259.733 754.221 313.224 762.031 367 761 c 1
 343.912 744.741 316.361 724.771 314.152 693.986 c 0
 311.59 658.287 341.003 624.76 359.56 597 c 0
 399.99 536.516 438.974 474.787 474 411 c 1
 476 411 l 1
 509.17 469.493 546.476 525.472 581.251 583 c 0
 600.185 614.321 623.401 649.78 621.142 688 c 0
 619.42 717.121 601.461 741.205 585 764 c 1
 669.519 761.134 753.484 760.706 838 764 c 1
 796.003 738.854 750.139 720.404 711.001 690.578 c 0
 644.357 639.789 599.406 568.388 554.61 499 c 0
 529.461 460.044 501.201 421.345 488.85 376 c 0
 474.208 322.24 480.791 264.986 480.974 210 c 0xd0
 481.083 177.347 480.426 144.643 481.346 112 c 0xc8
 482.186 82.2324 484.973 51.6543 501.923 26.209 c 0
 519.566 -0.280273 547.356 -17.2305 573 -35 c 1
 453.4 -31.0605 334.6 -31.0605 215 -35 c 1
 240.579 -17.21 268.339 -0.25 285.924 26.2227 c 0
 302.672 51.4326 305.606 81.5156 306.558 111 c 0
 307.601 143.307 306.892 175.681 307.038 208 c 0
 307.255 256.201 311.163 305.166 297.05 352 c 0
 277.151 418.038 228.736 472.79 193.53 531 c 0
 162.141 582.896 133.232 637.081 94.3799 683.962 c 0
 69.8076 713.613 40.5117 738.461 11 763 c 1
 11 764 l 1
EndSplineSet
EndChar

StartChar: agrave
Encoding: 224 224 129
Width: 514
GlyphClass: 2
Flags: HMW
HStem: 568.5 0.5<349 349>
VStem: 305.322 0.5<172 172> 306.322 133.642
LayerCount: 2
Fore
SplineSet
307.734 60.4238 m 0
 257.959 29.166 206.611 -8.73242 145.027 -5.41309 c 0
 126.221 -4.39941 108.384 1.29297 92.8389 10.3535 c 0
 46.1123 37.5918 20.1875 95.1982 50.7969 147.702 c 0
 79.6924 197.266 134.935 223.78 186.188 244.597 c 0
 221.936 259.114 261.773 271.593 285.81 304.256 c 0
 312.576 340.627 317.185 409.648 290.504 447.318 c 0
 287.239 451.928 283.666 455.811 279.864 459.007 c 0
 254.887 480.001 220.253 471.205 198.354 445.099 c 0
 162.744 402.646 180.209 340.916 147.327 298.002 c 0
 140.12 288.597 130.777 280.896 120.527 275.568 c 0
 93.0146 261.271 59.1055 264.087 42.1787 296.726 c 0
 18.2275 342.904 64.7617 393.199 96.4844 422.112 c 0
 109.861 434.303 124.166 445.48 139.275 455.441 c 0
 208.335 500.967 323.291 535.371 392.391 472.064 c 0
 436.954 431.24 439.346 368.563 439.483 311.999 c 0
 439.592 267.668 439.653 223.331 439.464 179.002 c 0
 439.281 136.25 433.234 85.4453 469.951 54.3535 c 0
 479.504 46.2637 490.782 40.8232 501.963 35.9092 c 1
 452.577 3.04883 387.688 -24.6035 337.629 21.5723 c 0
 325.592 32.6787 316.733 46.1934 308.431 60.2539 c 2
 308.169 60.6963 l 2
 308.024 60.6055 307.879 60.5146 307.734 60.4238 c 0
302 273 m 1
 247.827 249.382 193.896 221.303 174.428 161 c 0
 161.605 121.282 171.716 61.4736 220.097 51.5283 c 0
 251.761 45.0186 280.707 71.541 293.452 98.085 c 0
 304.425 120.938 305.404 147.099 305.822 172 c 0
 306.387 205.696 305.67 239.484 302 273 c 1
349 569 m 5
 323.771 589.637 297.788 609.634 278.282 636.086 c 4
 259.137 662.049 245.081 698.158 212.852 710.725 c 4
 182.943 722.388 149.306 699.922 144.671 668.931 c 4
 142.036 651.309 149.62 634.226 160.457 620.714 c 4
 204.829 565.391 285.113 569.01 349 569 c 5
EndSplineSet
EndChar

StartChar: aacute
Encoding: 225 225 130
Width: 514
GlyphClass: 3
Flags: HMW
VStem: 307.322 0.5<172 172> 308.322 133.642
LayerCount: 2
Fore
SplineSet
307.734 60.4238 m 0
 257.959 29.166 206.611 -8.73242 145.027 -5.41309 c 0
 126.221 -4.39941 108.384 1.29297 92.8389 10.3535 c 0
 46.1123 37.5918 20.1875 95.1982 50.7969 147.702 c 0
 79.6924 197.266 134.935 223.78 186.188 244.597 c 0
 221.936 259.114 261.773 271.593 285.81 304.256 c 0
 312.576 340.627 317.185 409.648 290.504 447.318 c 0
 287.239 451.928 283.666 455.811 279.864 459.007 c 0
 254.887 480.001 220.253 471.205 198.354 445.099 c 0
 162.744 402.646 180.209 340.916 147.327 298.002 c 0
 140.12 288.597 130.777 280.896 120.527 275.568 c 0
 93.0146 261.271 59.1055 264.087 42.1787 296.726 c 0
 18.2275 342.904 64.7617 393.199 96.4844 422.112 c 0
 109.861 434.303 124.166 445.48 139.275 455.441 c 0
 208.335 500.967 323.291 535.371 392.391 472.064 c 0
 436.954 431.24 439.346 368.563 439.483 311.999 c 0
 439.592 267.668 439.653 223.331 439.464 179.002 c 0
 439.281 136.25 433.234 85.4453 469.951 54.3535 c 0
 479.504 46.2637 490.782 40.8232 501.963 35.9092 c 1
 452.577 3.04883 387.688 -24.6035 337.629 21.5723 c 0
 325.592 32.6787 316.733 46.1934 308.431 60.2539 c 2
 308.169 60.6963 l 2
 308.024 60.6055 307.879 60.5146 307.734 60.4238 c 0
302 273 m 1
 247.827 249.382 193.896 221.303 174.428 161 c 0
 161.605 121.282 171.716 61.4736 220.097 51.5283 c 0
 251.761 45.0186 280.707 71.541 293.452 98.085 c 0
 304.425 120.938 305.404 147.099 305.822 172 c 0
 306.387 205.696 305.67 239.484 302 273 c 1
148 573 m 5
 194.166 566.341 243.467 568.682 286.996 586.727 c 4
 309.692 596.136 332.161 611.193 344.182 633.243 c 4
 365.618 672.562 329.566 730.099 283.165 710.499 c 4
 251.92 697.301 238.184 662.781 219.376 637.122 c 4
 200.093 610.816 174.507 591.473 148 573 c 5
EndSplineSet
LCarets2: 1 0 
Ligature2: "sous-table 'liga' Ligatures standard dans Latin lookup 0" a acute
EndChar

StartChar: acircumflex
Encoding: 226 226 131
Width: 514
GlyphClass: 2
Flags: HMW
HStem: 619.752 0.5<240.238 271.78> 620.752 94.6367<256 256> 715.889 0.5<256 256>
VStem: 305.322 0.5<172 172> 306.322 133.642
CounterMasks: 1 e0
LayerCount: 2
Fore
SplineSet
307.734 60.4238 m 0
 257.959 29.166 206.611 -8.73242 145.027 -5.41309 c 0
 126.221 -4.39941 108.384 1.29297 92.8389 10.3535 c 0
 46.1123 37.5918 20.1875 95.1982 50.7969 147.702 c 0
 79.6924 197.266 134.935 223.78 186.188 244.597 c 0
 221.936 259.114 261.773 271.593 285.81 304.256 c 0
 312.576 340.627 317.185 409.648 290.504 447.318 c 0
 287.239 451.928 283.666 455.811 279.864 459.007 c 0
 254.887 480.001 220.253 471.205 198.354 445.099 c 0
 162.744 402.646 180.209 340.916 147.327 298.002 c 0
 140.12 288.597 130.777 280.896 120.527 275.568 c 0
 93.0146 261.271 59.1055 264.087 42.1787 296.726 c 0
 18.2275 342.904 64.7617 393.199 96.4844 422.112 c 0
 109.861 434.303 124.166 445.48 139.275 455.441 c 0
 208.335 500.967 323.291 535.371 392.391 472.064 c 0
 436.954 431.24 439.346 368.563 439.483 311.999 c 0
 439.592 267.668 439.653 223.331 439.464 179.002 c 0
 439.281 136.25 433.234 85.4453 469.951 54.3535 c 0
 479.504 46.2637 490.782 40.8232 501.963 35.9092 c 1
 452.577 3.04883 387.688 -24.6035 337.629 21.5723 c 0
 325.592 32.6787 316.733 46.1934 308.431 60.2539 c 2
 308.169 60.6963 l 2
 308.024 60.6055 307.879 60.5146 307.734 60.4238 c 0
302 273 m 1
 247.827 249.382 193.896 221.303 174.428 161 c 0
 161.605 121.282 171.716 61.4736 220.097 51.5283 c 0
 251.761 45.0186 280.707 71.541 293.452 98.085 c 0
 304.425 120.938 305.404 147.099 305.822 172 c 0
 306.387 205.696 305.67 239.484 302 273 c 1
83 569 m 5
 111.258 576.052 138.876 584.471 166 595.121 c 4
 194.891 606.464 224.332 620.252 256 620.252 c 4
 287.705 620.252 317.078 606.372 346 595.035 c 4
 373.118 584.406 400.756 576.048 429 569 c 5
 398.241 608.283 366.524 648.168 328.933 681.21 c 4
 308.531 699.143 284.235 715.873 256 715.889 c 4
 227.786 715.904 203.447 699.168 183.061 681.252 c 4
 145.464 648.211 113.716 608.321 83 569 c 5
EndSplineSet
EndChar

StartChar: atilde
Encoding: 227 227 132
Width: 514
GlyphClass: 2
Flags: HMW
VStem: 305.322 0.5<172 172> 306.322 133.642
LayerCount: 2
Fore
SplineSet
307.734 60.4238 m 0
 257.959 29.166 206.611 -8.73242 145.027 -5.41309 c 0
 126.221 -4.39941 108.384 1.29297 92.8389 10.3535 c 0
 46.1123 37.5918 20.1875 95.1982 50.7969 147.702 c 0
 79.6924 197.266 134.935 223.78 186.188 244.597 c 0
 221.936 259.114 261.773 271.593 285.81 304.256 c 0
 312.576 340.627 317.185 409.648 290.504 447.318 c 0
 287.239 451.928 283.666 455.811 279.864 459.007 c 0
 254.887 480.001 220.253 471.205 198.354 445.099 c 0
 162.744 402.646 180.209 340.916 147.327 298.002 c 0
 140.12 288.597 130.777 280.896 120.527 275.568 c 0
 93.0146 261.271 59.1055 264.087 42.1787 296.726 c 0
 18.2275 342.904 64.7617 393.199 96.4844 422.112 c 0
 109.861 434.303 124.166 445.48 139.275 455.441 c 0
 208.335 500.967 323.291 535.371 392.391 472.064 c 0
 436.954 431.24 439.346 368.563 439.483 311.999 c 0
 439.592 267.668 439.653 223.331 439.464 179.002 c 0
 439.281 136.25 433.234 85.4453 469.951 54.3535 c 0
 479.504 46.2637 490.782 40.8232 501.963 35.9092 c 1
 452.577 3.04883 387.688 -24.6035 337.629 21.5723 c 0
 325.592 32.6787 316.733 46.1934 308.431 60.2539 c 2
 308.169 60.6963 l 2
 308.024 60.6055 307.879 60.5146 307.734 60.4238 c 0
302 273 m 1
 247.827 249.382 193.896 221.303 174.428 161 c 0
 161.605 121.282 171.716 61.4736 220.097 51.5283 c 0
 251.761 45.0186 280.707 71.541 293.452 98.085 c 0
 304.425 120.938 305.404 147.099 305.822 172 c 0
 306.387 205.696 305.67 239.484 302 273 c 1
117 598 m 5
 123.812 609.086 130.734 620.263 140.069 629.444 c 4
 191.924 680.443 253.95 608.57 306 595.242 c 4
 359.28 581.599 413.51 620.014 421.567 673.998 c 4
 424.213 691.729 421.821 709.459 419 727 c 5
 413.405 714.77 407.689 702.485 399.338 691.842 c 4
 394.902 686.188 389.794 681.03 383.973 676.799 c 4
 363.018 661.571 338.462 664.498 316 674.59 c 4
 282.265 689.746 253.321 717.36 216 723.877 c 4
 172.206 731.524 129.623 700.838 117.435 658.993 c 4
 111.577 638.878 113.804 618.344 117 598 c 5
EndSplineSet
EndChar

StartChar: adieresis
Encoding: 228 228 133
Width: 514
GlyphClass: 2
Flags: HMW
HStem: 589.501 71.6885
VStem: 142.949 62.3984 305.322 0.5<172 172> 306.322 133.142 309.949 62.3984 439.964 0.5<179 179>
LayerCount: 2
Fore
SplineSet
307.734 60.4238 m 4
 257.959 29.166 206.611 -8.73242 145.027 -5.41309 c 4
 126.221 -4.39941 108.384 1.29297 92.8389 10.3535 c 4
 46.1123 37.5918 20.1875 95.1982 50.7969 147.702 c 4
 79.6924 197.266 134.935 223.78 186.188 244.597 c 4
 221.936 259.114 261.773 271.593 285.81 304.256 c 4
 312.576 340.627 317.185 409.648 290.504 447.318 c 4
 287.239 451.928 283.666 455.811 279.864 459.007 c 4
 254.887 480.001 220.253 471.205 198.354 445.099 c 4
 162.744 402.646 180.209 340.916 147.327 298.002 c 4
 140.12 288.597 130.777 280.896 120.527 275.568 c 4
 93.0146 261.271 59.1055 264.087 42.1787 296.726 c 4
 18.2275 342.904 64.7617 393.199 96.4844 422.112 c 4
 109.861 434.303 124.166 445.48 139.275 455.441 c 4
 208.335 500.967 323.291 535.371 392.391 472.064 c 4
 436.954 431.24 439.346 368.563 439.483 311.999 c 4
 439.592 267.668 439.653 223.331 439.464 179.002 c 4
 439.281 136.25 433.234 85.4453 469.951 54.3535 c 4
 479.504 46.2637 490.782 40.8232 501.963 35.9092 c 5
 452.577 3.04883 387.688 -24.6035 337.629 21.5723 c 4
 325.592 32.6787 316.733 46.1934 308.431 60.2539 c 6
 308.169 60.6963 l 6
 308.024 60.6055 307.879 60.5146 307.734 60.4238 c 4
302 273 m 5
 247.827 249.382 193.896 221.303 174.428 161 c 4
 161.605 121.282 171.716 61.4736 220.097 51.5283 c 4
 251.761 45.0186 280.707 71.541 293.452 98.085 c 4
 304.425 120.938 305.404 147.099 305.822 172 c 4
 306.387 205.696 305.67 239.484 302 273 c 5
168.401 661.636 m 0
 126.382 652.682 136.068 580.3 179.572 589.011 c 0
 222.059 597.518 212.013 670.93 168.401 661.636 c 0
335.401 661.636 m 0
 379.013 670.93 389.059 597.518 346.571 589.011 c 0
 303.068 580.3 293.382 652.682 335.401 661.636 c 0
EndSplineSet
EndChar

StartChar: ae
Encoding: 230 230 134
Width: 813
GlyphClass: 2
Flags: HMW
HStem: 93.5088 0.5<628 628> 286.5 0.5<444.697 780 444 780.592 444.697 444.697> 287.5 17<443.303 646.504 441.453 779.408 443.303 443.303> 505.508 0.5<558 558> 507.169 0.5<299 299>
VStem: 645.496 0.503906<305 305.5>
LayerCount: 2
Fore
SplineSet
333 114 m 1
 370.305 74.9307 406.664 33.9316 457 11.5254 c 0
 540.287 -25.5518 643.846 -11.1357 710.408 52.2471 c 0
 742.22 82.54 762.173 120.995 779 161 c 1
 746.349 137.921 713.785 111.994 675 100.125 c 0
 659.798 95.4736 643.906 93.1064 628 93.5088 c 0
 614.795 93.8428 601.648 96.0322 589 99.8232 c 0
 504.238 125.23 469.805 210.722 444 287 c 1
 780 287 l 1
 774.073 321.989 766.307 356.564 749.192 388 c 0
 711.452 457.32 637.383 504.891 558 505.508 c 0
 533.888 505.696 510.238 501.784 487 495.553 c 0
 463.102 489.146 439.143 480.319 414 482.519 c 0
 374.585 485.968 339.281 505.983 299 507.169 c 0
 223.048 509.406 149.952 471.998 95.1484 421.632 c 0
 71.9492 400.311 48.6016 374.826 39.2998 344 c 0
 35.4062 331.099 34.418 317.155 38.7031 304.216 c 0
 51.0059 267.068 95.3438 256.385 126.437 276.892 c 0
 182.114 313.614 158.292 389.718 193.811 438.49 c 0
 214.556 466.975 253.562 484.809 282.264 456.379 c 0
 287.454 451.238 291.709 445.192 294.997 438.678 c 0
 311.504 405.969 308.86 353.829 293.596 321.071 c 0
 274.889 280.925 232.275 264.251 194 248.331 c 0
 134.18 223.45 60.5557 191.097 38.9453 123.999 c 0
 13.9619 46.4307 97.1084 -10.5762 167 -5.50391 c 0
 240.436 -0.173828 295.819 54.9033 333 114 c 1
442 305 m 1
 446.316 352.756 450.735 403.486 483.614 441.309 c 0
 518.682 481.649 576.975 493.477 614.051 448.927 c 0
 622.65 438.594 629.062 426.612 633.604 413.991 c 0
 646.038 379.421 645.731 341.269 646 305 c 1
 442 305 l 1
299 272 m 1
 305.339 238.703 311.281 204.845 313.633 171 c 0
 316.458 130.346 306.568 89.3203 272.243 63.8184 c 0
 255.723 51.5439 234.227 44.8633 214.317 52.6445 c 0
 201.681 57.584 191.362 67.3281 184.084 78.6191 c 0
 152.835 127.095 177.101 189.68 216.524 224.909 c 0
 240.509 246.343 269.928 259.104 299 272 c 1
EndSplineSet
EndChar

StartChar: ccedilla
Encoding: 231 231 135
Width: 532
GlyphClass: 2
Flags: HMW
VStem: 299 0.5<-11 -11>
LayerCount: 2
Fore
SplineSet
286 -11 m 5
 271.617 -31.1123 256.46 -49.9736 237.79 -66.3174 c 4
 220.537 -81.4209 197.802 -96.1729 190.441 -119.125 c 4
 182.938 -142.524 200.694 -167.086 225.132 -168.215 c 4
 239.621 -168.885 253.071 -161.247 263.386 -151.664 c 4
 301.579 -116.18 298.959 -58.7969 299 -11 c 5
 328.21 -6.15039 357.276 -0.117188 383.999 13.1309 c 4
 444.63 43.1895 481.736 101.377 509 161 c 5
 470.997 134.113 432.265 103.557 385 96.0156 c 4
 284.395 79.9658 202.913 175.402 182.166 265 c 4
 168.293 324.911 173.82 394.976 217.193 442.023 c 4
 244.354 471.486 288.227 491.194 322.514 461.05 c 4
 374.603 415.258 329.531 334.83 377.328 287.263 c 4
 404.818 259.906 445.961 266.457 466.484 298.62 c 4
 488.7 333.438 475.661 379.218 455.986 411.982 c 4
 411.893 485.411 322.069 517.138 240 501.062 c 4
 75.2246 468.789 -15.3643 262.06 68.7578 118.003 c 4
 114.991 38.8291 199.517 3.7207 286 -11 c 5
EndSplineSet
EndChar

StartChar: egrave
Encoding: 232 232 136
Width: 543
GlyphClass: 3
Flags: HMW
HStem: 287 0.5<174 509.395 173.303 510 174 174> 287.5 17<173.303 376.504 171.453 509.395 173.303 173.303 173.303 376.504 171.453 509.395> 568.5 0.5<378 378>
VStem: 375.496 0.503906<305 305.5>
LayerCount: 2
Fore
SplineSet
378 569 m 5
 352.771 589.637 326.788 609.634 307.282 636.086 c 4
 288.137 662.049 274.081 698.158 241.852 710.725 c 4
 211.943 722.388 178.306 699.922 173.671 668.931 c 4
 171.036 651.309 178.62 634.226 189.457 620.714 c 4
 233.829 565.391 314.113 569.01 378 569 c 5
509 161 m 1
 481.202 96.835 440.949 35.5488 374 7.5127 c 0
 266.668 -37.4326 136.611 12.4395 74.8867 108.01 c 0
 42.4863 158.178 30.1699 219.964 37.1182 279 c 0
 55.7119 436.972 239.506 564.344 387.999 480.917 c 0
 460.64 440.106 494.936 365.531 510 287 c 1
 174 287 l 1
 199.873 210.753 234.234 125.262 319 99.8652 c 0
 331.649 96.0762 344.793 93.8584 358 93.5176 c 0
 373.907 93.1094 389.802 95.5 405 100.162 c 0
 443.763 112.054 476.356 137.928 509 161 c 1
172 305 m 1
 376 305 l 1
 375.731 341.262 376.053 379.438 363.596 413.995 c 0
 359.144 426.346 352.874 438.049 344.51 448.202 c 0
 307.397 493.245 249.066 482.098 213.615 441.309 c 0
 180.752 403.495 176.315 352.741 172 305 c 1
EndSplineSet
LCarets2: 1 0 
Ligature2: "sous-table 'liga' Ligatures standard dans Latin lookup 0" e grave
EndChar

StartChar: eacute
Encoding: 233 233 137
Width: 543
GlyphClass: 3
Flags: HMW
HStem: 287 0.5<174 509.395 173.303 510 174 174> 287.5 17<173.303 376.504 171.453 509.395 173.303 173.303 173.303 376.504 171.453 509.395>
VStem: 375.496 0.503906<305 305.5>
LayerCount: 2
Fore
SplineSet
188 573 m 5
 234.445 566.301 284.312 568.628 327.995 587.122 c 4
 350.305 596.567 372.335 611.513 384.182 633.243 c 4
 405.618 672.562 369.566 730.099 323.165 710.499 c 4
 291.92 697.301 278.184 662.781 259.376 637.122 c 4
 240.093 610.816 214.507 591.473 188 573 c 5
509 161 m 1
 481.202 96.835 440.949 35.5488 374 7.5127 c 0
 266.668 -37.4326 136.611 12.4395 74.8867 108.01 c 0
 42.4863 158.178 30.1699 219.964 37.1182 279 c 0
 55.7119 436.972 239.506 564.344 387.999 480.917 c 0
 460.64 440.106 494.936 365.531 510 287 c 1
 174 287 l 1
 199.873 210.753 234.234 125.262 319 99.8652 c 0
 331.649 96.0762 344.793 93.8584 358 93.5176 c 0
 373.907 93.1094 389.802 95.5 405 100.162 c 0
 443.763 112.054 476.356 137.928 509 161 c 1
172 305 m 1
 376 305 l 1
 375.731 341.262 376.053 379.438 363.596 413.995 c 0
 359.144 426.346 352.874 438.049 344.51 448.202 c 0
 307.397 493.245 249.066 482.098 213.615 441.309 c 0
 180.752 403.495 176.315 352.741 172 305 c 1
EndSplineSet
LCarets2: 1 0 
Ligature2: "sous-table 'liga' Ligatures standard dans Latin lookup 0" e acute
EndChar

StartChar: ecircumflex
Encoding: 234 234 138
Width: 543
GlyphClass: 2
Flags: HMW
HStem: 287 0.5<174 509.395 173.303 510 174 174> 287.5 17<173.303 376.504 171.453 509.395 173.303 173.303 173.303 376.504 171.453 509.395> 619.752 0.5<277.238 308.78> 620.752 94.6836<293 293> 715.936 0.5<293 293>
VStem: 375.496 0.503906<305 305.5>
LayerCount: 2
Fore
SplineSet
120 569 m 5
 148.258 576.052 175.876 584.471 203 595.121 c 4
 231.891 606.464 261.332 620.252 293 620.252 c 4
 324.705 620.252 354.078 606.372 383 595.035 c 4
 410.118 584.406 437.756 576.048 466 569 c 5
 435.203 608.271 403.556 648.191 365.939 681.232 c 4
 345.539 699.15 321.22 715.89 293 715.936 c 4
 264.769 715.982 240.44 699.208 220.061 681.271 c 4
 182.476 648.192 150.771 608.299 120 569 c 5
509 161 m 1
 481.202 96.835 440.949 35.5488 374 7.5127 c 0
 266.668 -37.4326 136.611 12.4395 74.8867 108.01 c 0
 42.4863 158.178 30.1699 219.964 37.1182 279 c 0
 55.7119 436.972 239.506 564.344 387.999 480.917 c 0
 460.64 440.106 494.936 365.531 510 287 c 1
 174 287 l 1
 199.873 210.753 234.234 125.262 319 99.8652 c 0
 331.649 96.0762 344.793 93.8584 358 93.5176 c 0
 373.907 93.1094 389.802 95.5 405 100.162 c 0
 443.763 112.054 476.356 137.928 509 161 c 1
172 305 m 1
 376 305 l 1
 375.731 341.262 376.053 379.438 363.596 413.995 c 0
 359.144 426.346 352.874 438.049 344.51 448.202 c 0
 307.397 493.245 249.066 482.098 213.615 441.309 c 0
 180.752 403.495 176.315 352.741 172 305 c 1
EndSplineSet
EndChar

StartChar: edieresis
Encoding: 235 235 139
Width: 543
GlyphClass: 2
Flags: HMW
HStem: 93.5176 0.5<358 358> 286.5 0.5<174.698 510 174 510.605 174.698 510 174 510.605 174.698 174.698 174.698 510 174 510.605 174.698 174.698> 287.5 17<173.303 376.504 171.453 509.395 173.303 376.504 171.453 509.395 173.303 173.303 173.303 376.504 171.453 509.395 173.303 173.303> 589.501 71.6885
VStem: 170.949 62.3984 337.949 62.3984 375.496 0.503906<305 305.5>
LayerCount: 2
Fore
SplineSet
196.401 661.636 m 0
 154.382 652.682 164.068 580.3 207.572 589.011 c 0
 250.059 597.518 240.013 670.93 196.401 661.636 c 0
363.401 661.636 m 4
 407.013 670.93 417.059 597.518 374.571 589.011 c 4
 331.068 580.3 321.382 652.682 363.401 661.636 c 4
509 161 m 1
 476.356 137.928 443.763 112.054 405 100.162 c 0
 389.802 95.5 373.907 93.1094 358 93.5176 c 0
 344.793 93.8584 331.649 96.0762 319 99.8652 c 0
 234.234 125.262 199.873 210.753 174 287 c 1
 510 287 l 1
 494.936 365.531 460.64 440.106 387.999 480.917 c 0
 239.506 564.344 55.7119 436.972 37.1182 279 c 0
 30.1699 219.964 42.4863 158.178 74.8867 108.01 c 0
 136.611 12.4395 266.668 -37.4326 374 7.5127 c 0
 440.949 35.5488 481.202 96.835 509 161 c 1
172 305 m 1
 176.315 352.741 180.752 403.495 213.615 441.309 c 0
 249.066 482.098 307.397 493.245 344.51 448.202 c 0
 352.874 438.049 359.144 426.346 363.596 413.995 c 0
 376.053 379.438 375.731 341.262 376 305 c 1
 172 305 l 1
EndSplineSet
EndChar

StartChar: igrave
Encoding: 236 236 140
Width: 301
GlyphClass: 3
Flags: HMW
HStem: -1.5 0.5<37.0176 290.982 37.0176 37.0176 37.0176 290.982 37.0176 37.0176> -1.5 1.04297 479.639 20G<231.5 231.5 231.5 231.5> 568.5 0.5<243 243>
VStem: 95.5371 0.5<198 198> 96.5371 133.963 230.5 1<191.131 216 216 498.36 216 498.36 498.36 498.36> 231 0.5<216 499 499 499> 291 0.5<-1 0 0 0>
LayerCount: 2
Fore
SplineSet
243 569 m 5
 217.771 589.637 191.787 609.634 172.282 636.086 c 4
 153.129 662.06 139.076 698.144 106.852 710.745 c 4
 76.918 722.451 43.3066 699.942 38.6719 668.934 c 4
 36.0371 651.31 43.6191 634.227 54.457 620.714 c 4
 98.8154 565.407 179.13 569.01 243 569 c 5
10 435 m 1
 32.5342 418.62 54.5576 401.079 70.5459 377.936 c 0
 106.432 325.99 96.3066 257.542 96.0371 198 c 0
 95.8359 153.352 103.485 99.6797 84.2432 58.0146 c 0
 73.5518 34.8633 54.6865 16.8467 37 -1 c 1
 121.864 1.95996 206.136 1.95996 291 -1 c 1
 291 0 l 1
 272.803 17.1562 254.28 34.9805 243.591 58.0049 c 0
 222.047 104.416 231 166.195 231 216 c 2
 231 499 l 1xb980
 195.6 490.234 161.776 473.696 127 462.684 c 0
 107.471 456.499 86.0889 453.818 66 449.8 c 0
 52.3193 447.064 38.6816 444.136 25 441.4 c 0
 19.7109 440.342 12.458 440.44 10 435 c 1
EndSplineSet
Ligature2: "sous-table 'liga' Ligatures standard dans Latin lookup 0" grave
EndChar

StartChar: iacute
Encoding: 237 237 141
Width: 301
GlyphClass: 2
Flags: HMW
HStem: -1 0.542969 479.639 21G
VStem: 96.0332 0.5<198 198> 230.5 0.5<191.133 216 216 498.36 216 498.36 498.36 498.36>
LayerCount: 2
Fore
SplineSet
18 573 m 5
 64.1377 566.343 113.485 568.633 156.996 586.668 c 4
 179.696 596.077 202.163 611.177 214.167 633.238 c 4
 235.566 672.564 199.596 730.083 153.165 710.493 c 4
 121.92 697.311 108.177 662.775 89.376 637.121 c 4
 70.0898 610.805 44.5225 591.467 18 573 c 5
10 435 m 1
 12.458 440.44 19.7109 440.342 25 441.4 c 0
 38.6816 444.136 52.3193 447.064 66 449.8 c 0
 86.0889 453.818 107.471 456.499 127 462.684 c 0
 161.776 473.696 195.6 490.234 231 499 c 1
 231 216 l 2
 231 166.2 222.062 104.417 243.593 58.0049 c 0
 254.276 34.9785 272.805 17.1553 291 0 c 1
 291 -1 l 1
 206.136 -0.178295 121.864 1.18111 37 -1 c 1
 54.6865 16.8467 73.5518 34.8633 84.2432 58.0146 c 0
 103.481 99.6719 95.8506 153.359 96.0332 198 c 0
 96.2764 257.538 106.416 325.978 70.543 377.936 c 0
 54.5625 401.082 32.5322 418.622 10 435 c 1
EndSplineSet
EndChar

StartChar: icircumflex
Encoding: 238 238 142
Width: 301
GlyphClass: 2
Flags: HMW
HStem: -1 0.542969 479.639 21G 640.69 0.5<172 172> 641.69 93.583<173 173> 735.773 0.5<172 172>
VStem: 119.033 0.5<198 198> 253.5 0.5<191.133 216 191.133 216 216 498.36 216 498.36 216 498.36 216 498.36 498.36 498.36 498.36 498.36>
LayerCount: 2
Fore
SplineSet
33 435 m 1
 35.458 440.44 42.7109 440.342 48 441.4 c 0
 61.6816 444.136 75.3193 447.064 89 449.8 c 0
 109.089 453.818 130.471 456.499 150 462.684 c 0
 184.776 473.696 218.6 490.234 254 499 c 1
 254 216 l 2
 254 166.2 245.062 104.417 266.593 58.0049 c 0
 277.276 34.9785 295.805 17.1553 314 0 c 1
 314 -1 l 1
 229.134 1.91699 144.866 1.91699 60 -1 c 1
 77.6865 16.8467 96.5518 34.8536 107.243 58.0049 c 0
 126.481 99.6622 118.851 153.359 119.033 198 c 0
 119.277 257.544 129.393 325.97 93.5225 377.932 c 0
 77.5479 401.072 55.4951 418.59 33 435 c 1
1 590 m 1
 28.9238 597.193 56.1719 606.102 83 616.675 c 0
 111.874 628.054 141.36 641.308 173 641.19 c 0
 204.692 641.072 234.131 627.649 263 616.107 c 0
 289.464 605.527 316.324 596.801 344 590 c 1
 313.488 629.408 281.65 669.281 243.946 702.12 c 0
 223.817 719.653 199.747 735.964 172 735.773 c 0
 144.174 735.581 120.17 718.954 100.054 701.279 c 0
 62.7969 668.542 31.2676 629.098 1 590 c 1
EndSplineSet
EndChar

StartChar: idieresis
Encoding: 239 239 143
Width: 301
GlyphClass: 2
Flags: HMW
HStem: -1.5 0.5<37.0186 289.98 37.0186 289.98 37.0186 289.98> 479.639 20G<231.5 231.5 231.5 231.5 231.5 231.5> 589.501 71.668
VStem: 33.9492 62.3975 95.5332 0.5<198 198> 96.5332 134.096 200.949 62.3984 231 0.5<226 499 499 499>
LayerCount: 2
Fore
SplineSet
59.4014 661.636 m 0
 17.3818 652.682 27.0684 580.3 70.5713 589.011 c 0
 113.059 597.518 103.013 670.93 59.4014 661.636 c 0
226.401 661.636 m 4
 270.013 670.93 280.059 597.518 237.572 589.011 c 4
 194.068 580.3 184.382 652.682 226.401 661.636 c 4
10 435 m 1
 32.5596 418.65 54.5908 401.101 70.5605 377.94 c 0
 106.378 325.994 96.2764 257.51 96.0332 198 c 0
 95.8506 153.359 103.481 99.6719 84.2432 58.0146 c 0
 73.5518 34.8633 54.6865 16.8467 37 -1 c 1
 121.515 2.1748 205.487 2.29395 290 -1 c 1
 272.164 17.457 253.126 36.1299 242.668 60.0029 c 0
 232.253 83.7803 231.467 110.443 231.129 136 c 0
 230.731 165.993 231 196.004 231 226 c 2
 231 499 l 1xe9
 195.609 490.237 161.781 473.676 127 462.683 c 0
 107.464 456.509 86.0928 453.819 66 449.8 c 0
 52.3193 447.064 38.6816 444.136 25 441.4 c 0
 19.7109 440.342 12.458 440.44 10 435 c 1
EndSplineSet
EndChar

StartChar: ntilde
Encoding: 241 241 144
Width: 617
GlyphClass: 2
Flags: HMW
HStem: -1 0.556641
VStem: 99.5371 134.645 233.5 0.5<424 424 424 497.354 424 424 424 497.354 497.354 497.354> 406.987 2.52734 542.664 0.5<283 283> 543.447 0.5<173 173> 543.664 0.570557
LayerCount: 2
Fore
SplineSet
157 586 m 5
 163.727 596.908 170.574 607.869 179.706 616.966 c 4
 231.667 668.729 293.625 596.652 346 583.242 c 4
 399.288 569.597 453.475 608.031 461.546 661.998 c 4
 464.198 679.73 461.821 697.455 459 715 c 5
 453.403 702.766 447.688 690.477 439.338 679.827 c 4
 434.903 674.17 429.796 669.008 423.973 664.776 c 4
 403.012 649.543 378.466 652.483 356 662.573 c 4
 322.262 677.727 293.326 705.369 256 711.874 c 4
 212.213 719.505 169.621 688.831 157.435 646.993 c 4
 151.577 626.878 153.804 606.344 157 586 c 5
234 424 m 1
 264.961 445.48 296.671 465.985 331 481.732 c 0
 352.34 491.52 374.72 499.495 398 503.06 c 0
 415.883 505.799 434.438 505.925 451.998 501.158 c 0
 498.196 488.615 527.276 444.616 537.21 400 c 0
 545.752 361.641 543.622 321.982 543.164 283 c 0
 542.733 246.337 544.161 209.671 543.947 173 c 0
 543.785 145.089 541.481 116.556 547.069 89 c 0
 554.434 52.6768 578.868 25.6621 603 -1 c 1
 518.487 2.17188 434.513 2.17188 350 -1 c 1
 369.178 18.7969 389.696 38.8711 399.99 65.001 c 0
 412.513 96.7881 409.083 132.572 409.015 166 c 0
 408.912 217.193 411.16 268.933 406.987 320 c 0
 403.263 365.579 387.473 433.611 329.994 434.828 c 0
 270.011 436.099 238.082 371.303 234.681 320 c 0
 231.418 270.778 234.443 221.291 233.869 172 c 0
 233.466 137.346 229.15 100.065 241.939 67.001 c 0
 252.357 40.0674 273.319 19.3838 293 -1 c 1
 208.368 2.57031 124.631 2.86035 40 -1 c 1
 58 17.4814 77.4092 36.1367 88.1943 60.0029 c 0
 106.868 101.326 98.8379 154.812 99.0371 199 c 0
 99.3057 258.306 109.389 326.232 73.5615 377.927 c 0
 57.543 401.04 35.459 418.532 13 435 c 1
 15.499 440.531 22.6826 440.103 28 441.224 c 0
 41.6455 444.1 55.3311 446.722 69 449.476 c 0
 89.4639 453.599 111.032 456.27 131 462.369 c 0
 165.615 472.941 198.95 488.978 234 498 c 1
 234 424 l 1
EndSplineSet
EndChar

